<?xml version="1.0" encoding="utf-8"?>
<!-- Generator: Adobe Illustrator 16.0.4, SVG Export Plug-In . SVG Version: 6.00 Build 0)  -->
<!DOCTYPE svg PUBLIC "-//W3C//DTD SVG 1.1//EN" "http://www.w3.org/Graphics/SVG/1.1/DTD/svg11.dtd">
<svg version="1.1" id="圖層_1" xmlns="http://www.w3.org/2000/svg" xmlns:xlink="http://www.w3.org/1999/xlink" x="0px" y="0px"
	 width="527px" height="280px" viewBox="0 11.736 527 280" enable-background="new 0 11.736 527 280" xml:space="preserve">
<g id="圖層_1_拷貝" display="none">
	<g display="inline">
		<path fill="#D8AC66" d="M81.758,41.891l12.026,8.28c-0.525,0.662-1.668,1.49-3.512,1.821v42.564
			c0,7.121-1.579,12.008-15.889,13.497c0-8.611-4.303-10.6-11.414-11.592v-0.91h13.432c0.967,0,1.406-0.332,1.406-1.242V49.095
			H31.806v54.324c0,0.414-1.669,4.802-12.466,4.802V42.717l13.433,5.051h12.026c0.967-5.549,1.843-13.166,2.282-18.383l18.875,4.056
			c-0.264,1.076-1.051,1.575-3.511,1.575c-3.776,3.56-9.747,8.694-15.452,12.752h29.936L81.758,41.891z M74.997,64.828
			c-0.612,0.662-1.755,1.407-3.511,1.822v22.854c0,0.083-2.984,2.981-11.677,2.981v-7.37H49.451v5.715
			c0,0.247-1.843,3.975-11.414,3.975V58.12l11.765,4.388h9.13l4.301-5.381L74.997,64.828z M49.452,83.792h10.359V63.834H49.452
			V83.792z"/>
		<path fill="#D8AC66" d="M120.113,64.662c4.565-0.579,9.394-1.325,14.225-1.988l0.088,0.745c-3.514,2.154-8.166,4.804-14.312,7.868
			v23.02c0,7.454-1.756,12.755-14.571,13.913c-0.175-7.785-1.404-10.434-8.778-11.511v-1.077h9.92c0.877,0,1.142-0.33,1.142-1.16
			V77.166l-4.479,2.071c-0.525,1.076-1.579,1.905-2.719,2.153l-5.006-13.829c2.636-0.249,6.937-0.745,12.205-1.325V51.829
			l6.144,0.413c1.931-4.473,3.951-10.848,5.18-14.906H97.028L96.59,36.01h21.859l6.146-5.712l10.009,8.943
			c11.325-2.815,24.143-6.957,31.166-10.103l11.326,10.849c-0.616,0.413-1.406,0.663-2.372,0.663c-1.141,0-2.457-0.332-3.951-0.913
			c-5.266,0.663-12.027,1.16-19.225,1.491l7.725,2.649c-0.437,1.16-1.667,1.657-3.687,1.575c-3.424,3.312-7.287,6.541-11.062,9.109
			c2.811,1.655,3.951,3.726,3.951,5.631c0,3.147-2.984,5.962-6.321,5.962c-1.494,0-3.073-0.578-4.479-1.821
			c-0.704-4.389-3.423-9.523-6.848-12.422l0.525-0.497c4.039,0.249,7.286,0.828,9.747,1.656c0.966-3.312,2.02-7.453,2.897-11.509
			c-4.565,0.082-9.217,0.166-13.607,0.082c-3.776,3.395-8.868,7.619-13.521,10.849l6.585,0.415
			c-0.088,0.993-0.525,1.656-3.337,1.987v9.768H120.113z M174.28,53.979c-0.351,0.579-0.876,0.91-1.843,0.91
			c-0.526,0-1.14-0.166-1.843-0.332c-5.443,5.217-13.604,11.509-22.122,16.81c5.178,0,10.885,0,16.679-0.082
			c-1.229-2.153-2.807-4.141-4.564-5.631l0.525-0.498c14.046,1.574,18.612,6.791,18.612,11.097c0,3.478-2.983,6.376-6.497,6.376
			c-1.578,0-3.247-0.579-4.739-1.987c-0.264-2.236-0.967-4.638-2.021-6.957c-2.194,0.663-4.566,1.325-7.287,2.07v29.232
			c0,0.579-3.862,3.063-10.271,3.063h-2.372V89.501h-0.526c-5.529,7.784-12.818,12.917-20.719,16.064l-0.877-0.746
			c4.214-4.801,8.34-13.333,10.708-22.275l11.414,4.306v-7.866c-3.423,0.828-7.199,1.738-11.237,2.649
			c-0.614,1.076-1.667,1.657-2.72,1.822l-5.004-12.256c3.513,0.083,9.132,0.166,15.98,0.166
			c6.583-7.619,13.255-17.224,17.293-24.345L174.28,53.979z M160.848,83.625c13.959,3.147,18.611,9.026,18.611,13.747
			c0,3.892-3.162,6.956-6.759,6.956c-1.757,0-3.6-0.746-5.18-2.402c-0.264-6.046-3.074-13.416-7.286-17.804L160.848,83.625z"/>
		<path fill="#D8AC66" d="M250.475,59.61l12.992,8.778c-0.702,0.91-1.842,1.159-4.39,1.159h-30.549v23.934
			c0,7.701-2.107,13.414-17.47,14.739c-0.176-8.778-3.688-11.015-13.258-12.254V94.97h15.716c1.141,0,1.58-0.498,1.58-1.489V69.547
			h-34.68l-0.437-1.325h35.117v-14.74l11.674,0.744c4.126-4.388,8.781-10.848,11.414-15.072h-50.042l-0.437-1.325h50.218
			l7.199-6.542l11.761,10.435c-0.788,0.828-1.668,1.076-3.688,1.241c-6.406,3.892-15.012,8.198-23.174,11.51l1.756,0.083
			c-0.175,1.076-0.528,1.656-3.248,2.071v11.594h14.837L250.475,59.61z"/>
		<path fill="#D8AC66" d="M334.568,73.025l12.113,8.198c-0.701,0.91-1.848,1.16-4.305,1.16h-78.57l-0.44-1.326h16.24V36.919
			l13.695,3.891c11.5-3.312,23.701-7.865,30.555-11.426l11.762,10.434c-0.521,0.413-1.312,0.663-2.367,0.663
			c-1.059,0-2.285-0.25-3.859-0.747c-9.48,1.906-23.887,3.479-37.312,4.059v11.262h33.096l6.496-7.867l11.939,8.033
			c-0.615,0.91-1.932,1.159-4.305,1.159h-13.52v24.677h2.191L334.568,73.025z M301.82,90.996c-0.348,0.582-0.965,0.994-2.191,0.994
			c-0.354,0-0.791,0-1.23-0.082c-7.465,6.625-19.752,13.084-33.447,16.231l-0.438-0.995c10.1-6.208,19.229-16.396,23.44-24.096
			L301.82,90.996z M292.078,56.381v24.676h20.98V56.381H292.078z M311.303,86.11c24.229,0.745,32.043,9.193,32.043,15.319
			c0,3.726-2.717,6.542-6.494,6.542c-1.229,0-2.547-0.248-3.951-0.993c-4.65-7.618-13.164-15.735-21.941-20.123L311.303,86.11z"/>
		<path fill="#D8AC66" d="M346.848,52.572c13.344,0.331,17.824,4.637,17.824,8.446c0,3.229-3.16,6.21-6.674,6.21
			c-1.58,0-3.16-0.579-4.652-1.905c-0.879-4.472-3.422-9.357-6.934-12.257L346.848,52.572z M353.17,83.129
			c1.492,0,1.844,0,2.896-1.74c2.283-3.395,2.283-3.395,20.631-40.079l1.229,0.331c-4.389,13.084-12.814,38.258-12.814,44.22v0.332
			c0.178,4.638,4.123,6.956,4.123,13.912c0,6.461-5.354,8.116-8.777,8.116c-2.371,0-5.002-0.994-5.971-4.306
			c0.791-3.726,1.229-7.372,1.229-10.353c0-6.375-1.143-8.694-6.674-8.943v-1.49c3.162,0,4.127-0.083,4.127-0.083L353.17,83.129
			L353.17,83.129z M351.592,31.291c14.307,0.166,18.963,4.719,18.963,8.776c0,3.312-3.076,6.21-6.674,6.21
			c-1.494,0-3.16-0.497-4.652-1.738c-1.312-4.556-4.389-9.689-8.074-12.754L351.592,31.291z M419.189,59.61l11.414,8.447
			c-0.705,0.91-1.936,1.159-4.309,1.159h-31.688l12.9,4.141c-0.438,1.075-1.398,1.821-3.859,1.738
			c-4.738,6.459-10.271,12.422-15.979,17.143c7.109-0.084,15.711-0.25,24.578-0.497c-1.403-4.057-3.424-7.95-5.793-10.931
			l0.701-0.415c16.152,5.134,21.512,12.834,21.512,18.632c0,4.803-3.6,8.364-7.729,8.364c-2.021,0-4.127-0.911-6.062-2.815
			c-0.174-3.229-0.705-6.708-1.754-10.103c-7.022,2.899-16.945,6.294-31.342,10.684c-0.705,1.076-1.843,1.738-2.898,1.905
			l-6.758-14.74h11.853c2.021-6.128,4.392-15.154,6.229-23.104h-18.174l-0.353-1.325h21.512V48.93h-15.805l-0.354-1.326h16.154
			V29.386l16.594,1.49c-0.178,1.076-0.879,1.74-3.336,2.071v14.656h3.6l6.059-7.95l11.062,8.115
			c-0.703,0.911-1.93,1.161-4.303,1.161h-16.416v18.963h6.493L419.189,59.61z"/>
		<path fill="#D8AC66" d="M497.838,71.537c0.264-2.32,0.705-6.045,0.969-8.777h-55.924c0.354,1.242,0.439,2.484,0.439,3.561
			c0,7.122-6.322,7.95-7.643,7.95c-3.247,0-5.438-2.402-5.438-5.053c0-1.987,1.312-4.14,4.301-5.547
			c2.457-0.911,4.654-3.479,4.564-7.288l1.055-0.083c0.789,1.324,1.404,2.568,1.844,3.809l-0.615-26.581l10.357,1.655
			c2.721-2.07,5.445-4.471,6.85-5.962l7.729,5.382c1.93,0,3.598,0.084,5.002,0.331c1.143-1.656,2.191-3.394,2.896-4.968l8.16,3.892
			c-0.262,0.497-0.785,0.744-1.578,0.744c-0.352,0-0.787-0.082-1.312-0.166c-0.615,0.829-1.402,1.657-2.371,2.568
			c1.844,1.241,2.637,2.816,2.637,4.141c0,1.822-1.314,3.312-3.25,3.312c-0.611,0-1.312-0.166-2.016-0.497
			c-0.705-0.91-1.584-1.905-2.637-2.815c-2.727,1.822-5.799,3.312-8.693,4.389l-0.174-0.248c-0.701,0.248-1.668,0.332-2.896,0.332
			h-7.461l0.176,7.452h1.402l3.336-4.387l6.498,4.637c-0.615,0.91-1.844,1.076-3.863,1.076h-7.285l0.178,7.038h36.08l0.354-7.038
			h-6.852l-0.438-1.326h7.289l0.353-7.452h-6.763l-0.438-1.326h7.284l0.263-7.536h-8.076l-0.437-1.325h7.728l4.562-5.135
			l11.148,7.701c-0.701,0.747-1.4,1.077-3.248,1.325l-0.703,19.129l2.986-2.816l10.443,9.522c-0.701,0.663-1.492,0.91-3.332,0.994
			c-3.336,1.74-9.043,4.389-12.73,5.878L497.838,71.537z M494.943,86.192l6.055-7.95l11.062,8.115
			c-0.699,0.91-1.846,1.16-4.303,1.16h-29.496v6.874c0,7.535-1.846,12.751-15.448,13.909c0-8.692-3.604-10.682-10.536-11.51v-1.077
			h12.293c0.965,0,1.312-0.33,1.312-1.158v-7.039h-33.97l-0.354-1.325h34.326v-6.044l7.199,0.413
			c2.457-2.484,5.354-5.714,7.285-8.032h-32.043l-0.439-1.325h32.66l6.586-5.879l10.797,9.688c-0.703,0.744-1.578,0.91-3.512,1.076
			c-4.654,1.407-11.412,3.228-17.471,4.637l4.479,0.249c-0.088,0.993-0.438,1.491-3.16,1.822v3.394h16.684L494.943,86.192
			L494.943,86.192z M457.455,40.15l5.445,3.725c2.018-1.49,3.947-3.394,5.707-5.383c-1.318-0.993-2.639-1.904-3.949-2.65
			c-2.721,0.746-7.551,1.657-12.205,2.153l0.176,6.294h1.492L457.455,40.15z M464.828,48.93c2.984,0,5.445,0.249,7.465,0.746
			c1.227-1.656,2.279-3.313,3.07-4.969l8.256,3.727c-0.354,0.497-0.881,0.829-1.756,0.829c-0.354,0-0.705-0.083-1.146-0.166
			c-0.787,0.994-1.668,1.987-2.719,2.981c1.842,1.325,2.543,2.981,2.543,4.388c0,1.987-1.492,3.643-3.512,3.643
			c-0.787,0-1.58-0.165-2.373-0.662c-0.611-0.994-1.49-2.071-2.455-3.146c-3.164,1.905-6.846,3.478-10.445,4.389l-0.789-1.16
			c2.984-1.49,5.795-3.726,8.25-6.209c-1.578-1.408-3.25-2.65-4.824-3.561L464.828,48.93z"/>
		<path fill="#D8AC66" d="M114.049,135.899l19.497,12.736c-1.091,1.416-2.863,1.803-6.818,1.803H85.143l23.588,5.658
			c-0.545,1.545-1.773,2.314-5.319,2.188c-5.317,5.021-13.769,11.709-21.814,16.854h21.134l7.365-9.01l18.816,12.738
			c-0.821,1.027-2.591,2.312-5.457,2.828v49.656c0,10.035-2.043,17.366-22.633,19.557c0-11.578-4.09-14.408-8.862-15.824
			c-6,2.572-12.135,2.572-15.544,2.572v-7.33H60.463v4.113c0,0.26-2.59,5.791-17.044,5.791v-37.691
			c-3,1.416-6.407,2.701-10.089,3.857v37.438c0,0.642-2.862,6.942-19.088,6.942v-83.229l20.588,7.593h43.632
			c1.773-7.203,3.544-17.496,4.499-24.701H5.106l-0.681-2.055h53.719v-19.943l25.225,2.317c-0.271,1.671-1.5,2.573-5.18,3.087v14.54
			h25.359L114.049,135.899z M33.328,177.195v26.5c8.454-6.047,10.909-15.051,11.591-26.5H33.328z M35.238,150.825
			c17.589,3.086,23.453,9.262,23.453,14.534c0,5.019-5.181,9.136-10.771,9.136c-3.138,0-6.271-1.287-8.59-4.375
			c0.271-6.304-1.637-14.022-5.046-18.651L35.238,150.825z M72.051,177.195h-9.135c-2.181,10.55-7.499,18.138-16.5,23.671
			l14.726,5.401h14.044l4.363-5.401c-6.137-1.287-7.5-5.275-7.5-15.054v-8.617H72.051z M60.462,228.27h15.954V208.33H60.462V228.27z
			 M93.732,232.514h8.863c1.09,0,1.5-0.388,1.5-1.673v-33.705c-1.773,2.574-5.182,4.246-10.771,4.246h-8.181l12.953,8.231
			c-0.682,0.771-2.181,1.804-4.362,2.188v20.711h-0.002V232.514L93.732,232.514z M104.094,177.195H88.415v9.005
			c0,2.446,0,2.446,1.227,2.446h4.499c2.182,0,3.546-3.477,5.045-7.852h1.227v6.562c1.775,0.771,2.864,1.412,3.683,1.93v-12.094
			h-0.002V177.195z"/>
		<path fill="#D8AC66" d="M262.404,211.675c-0.953,1.541-2.729,1.8-6.542,1.8h-44.315c11.728,8.746,33.135,14.536,51.54,16.338
			l-0.138,1.414c-6.543,1.674-11.453,7.203-13.225,15.438c-19.223-6.433-32.588-17.367-41.314-33.188H208v33.316
			c-0.135,0.902-5.996,4.117-16.088,4.117h-3.683v-26.5c-13.36,10.164-32.313,17.496-53.719,22.387l-0.817-1.932
			c17.589-7.717,32.315-19.555,40.769-31.387h-38.859l-0.683-2.062h53.31v-14.793h-37.767l-0.682-2.061h38.448v-14.021h-44.584
			l-0.682-2.062h33.268c-2.317-0.385-4.636-1.672-6.408-3.982c0.137-1.031,0.271-2.062,0.271-3.088c0-4.895-1.637-10.162-4.5-13.379
			l0.955-0.646c16.499,2.313,22.087,7.72,22.087,12.606c0,4.115-3.954,7.719-8.589,8.488h29.314
			c2.046-6.306,3.546-15.181,4.228-21.48l23.998,5.527c-0.409,1.547-1.772,2.315-5.183,2.188
			c-4.771,4.503-12.137,9.776-19.633,13.767h16.499l9.271-10.551l17.179,10.812c-1.089,1.543-2.862,1.801-6.543,1.801h-41.176
			v14.021H226l8.725-10.028l16.5,10.289c-0.954,1.543-2.861,1.801-6.407,1.801h-36.816v14.793h27.271l9.545-11.063L262.404,211.675z
			 M136.693,156.741l-0.682-2.058h24.951c-1.636-0.518-3.272-1.549-4.772-3.219c0.409-6.435-2.043-14.023-6.68-18.269l0.817-0.771
			c17.861,1.929,23.724,8.104,23.724,13.508c0,3.986-3.134,7.586-7.226,8.75h9.681v-26.248l22.359,2.059
			c-0.271,1.414-1.229,2.315-4.636,2.702v21.482H202v-26.246l22.635,2.059c-0.272,1.414-1.364,2.315-4.636,2.702v21.485h2.86
			c2.316-6.436,4.5-15.699,5.592-22.129l23.454,6.175c-0.411,1.544-1.776,2.188-5.185,2.059c-4.908,4.5-12.955,9.902-20.59,13.896
			h10.225l9.002-10.039l16.906,10.292c-0.954,1.541-2.724,1.801-6.405,1.801L136.693,156.741L136.693,156.741z"/>
		<path fill="#D8AC66" d="M320.637,154.812c1.229-1.678,2.998-2.962,5.045-3.858c3.818-1.676,8.043-6.435,7.498-11.063h1.773
			c2.592,5.272,3.547,9.903,3.547,13.763c0,5.791-2.729,12.479-10.635,12.479c-5.047,0-8.729-2.832-8.729-7.074
			c0-1.026,0.273-1.93,0.548-2.83c-1.095,0.515-2.591,0.644-4.91,0.644H263.37l-0.546-2.058H299.5l7.502-9.647L320.637,154.812z
			 M317.771,209.1c-0.818,0.899-2.316,1.93-4.908,2.313v29.2c0,0.259-4.229,4.505-17.182,4.505v-9.647H286v8.618
			c0,0.386-2.453,5.92-17.043,5.92v-51.073l17.59,6.69h7.906l6.137-7.72L317.771,209.1z M300.592,162.146l13.773,9.772
			c-0.955,1.414-3.004,1.804-6.271,1.804h-38.043l-0.682-2.06h23.859L300.592,162.146z M293.229,188.518l7.363-9.521l13.773,9.776
			c-0.955,1.416-3.004,1.804-6.271,1.804h-38.043l-0.682-2.06H293.229L293.229,188.518z M315.045,138.73
			c-0.953,1.417-2.998,1.802-6.271,1.802h-38.041l-0.682-2.059h23.316l7.5-9.777L315.045,138.73z M286.002,233.413h9.682v-25.729
			h-9.682V233.413z M366.721,184.271c-0.137,1.67-1.092,2.574-5.182,3.088c0.818,9.904,2.727,18.009,6.547,24.695
			c1.635-7.461,3.133-15.82,3.68-20.322l23.729,9.646c-0.82,1.285-2.318,2.06-5.043,1.672c-3.957,3.476-11.598,9.521-18.82,14.281
			c5.047,6.303,12.408,10.937,22.359,14.021v1.545c-8.861,2.188-13.637,7.722-14.725,18.396c-12-7.977-16.5-26.115-18.545-47.6
			h-0.137c-2.043,21.74-9.951,37.178-49.223,47.211l-1.09-1.674c33.949-15.691,32.312-36.275,32.453-66.639L366.721,184.271z
			 M333.18,193.02c3.135,6.174,4.496,11.578,4.496,16.08c0,7.85-4.361,13.768-11.859,13.768c-5.18,0-9.135-2.959-9.135-7.334
			c0-3.855,3.271-6.818,6.953-8.359c4.361-2.059,8.59-7.721,7.771-14.021L333.18,193.02z M392.49,147.864
			c-0.545,0.902-1.5,1.543-3.137,1.543c-0.545,0-1.094,0-1.641-0.129c-4.227,3.217-12.543,8.621-19.902,12.611
			c16.635,3.471,22.496,10.935,22.496,17.107c0,5.4-4.361,9.773-9.684,9.773c-2.045,0-4.363-0.771-6.545-2.312
			c-2.998-7.721-8.998-16.338-15.812-22.516c-5.049,11.578-15.816,20.711-40.225,27.271l-1.098-1.675
			c28.771-14.535,27.406-33.575,27.543-60.718l23.449,1.673c-0.271,1.673-1.09,2.574-5.043,3.087
			c-0.408,10.035-0.814,19.039-3.406,27.018c1.771,0.129,3.545,0.387,5.182,0.646c2.455-7.336,5.318-17.756,6.271-23.03
			L392.49,147.864z"/>
		<path fill="#D8AC66" d="M440.631,202.279l8.59-11.575l15.684,11.834c-0.953,1.416-2.996,1.803-6.543,1.803h-21.404v40.007
			c0,1.803-8.318,6.305-15.678,6.305h-3.688v-46.312h-24.543l-0.547-2.062h25.09v-25.342h-22.633l-0.547-2.061h23.18v-46.312
			l24.678,2.187c-0.27,1.801-1.359,2.959-5.312,3.345v40.778h1.771l8.593-11.576l15.68,11.834c-0.955,1.414-3,1.803-6.547,1.803
			h-19.496v25.342h3.678L440.631,202.279L440.631,202.279z M397.41,135.642c12.814,6.562,17.178,13.895,17.178,19.684
			c0,6.178-4.908,10.549-10.086,10.549c-2.727,0-5.592-1.285-7.637-4.5c1.094-3.475,1.502-7.336,1.502-11.192
			c0-5.146-0.818-10.162-2.453-14.024L397.41,135.642z M467.355,141.303c-0.551,1.675-1.908,2.702-5.592,2.96
			c-6.002,7.205-12.951,15.18-19.09,20.713l-1.91-0.771c0.818-6.944,2.049-18.91,3-28.815L467.355,141.303z M490.26,147.093
			c-0.135,1.801-1.225,2.83-5.043,3.346v64.834c0,0.129-3.408,4.631-19.09,4.631v-74.74L490.26,147.093z M497.76,129.728
			l24.814,1.928c-0.135,1.674-0.816,2.832-5.318,3.475v94.039c0,11.576-2.857,20.326-23.996,22.127
			c0-12.865-3.812-16.467-15.812-18.268v-1.674h18.271c1.498,0,2.043-0.646,2.043-2.062L497.76,129.728L497.76,129.728z"/>
	</g>
	<g display="inline">
		<path fill="#DCDCDD" d="M16.124,273.521c0.959,0.35,1.453,0.668,1.453,1.018c0,0.115-0.058,0.174-0.174,0.23
			c0.755,0.06,1.627,0.088,2.673,0.088h1.25v-1.336c0-0.785-0.087-1.601-0.232-2.412c1.22,0.117,2.412,0.291,3.574,0.494
			c0.697,0.059,1.075,0.229,1.075,0.552c0,0.116-0.232,0.29-0.64,0.493c-0.494,0.205-0.726,0.466-0.726,0.757v1.452h1.714
			c0.058,0,0.349-0.351,0.9-0.986c0.639-0.757,1.017-1.163,1.133-1.163c0.32,0,0.843,0.378,1.541,1.133
			c0.697,0.757,1.075,1.192,1.075,1.366c0,0.32-0.175,0.465-0.465,0.465h-5.898v2.15h1.366c0.058-0.028,0.291-0.319,0.755-0.901
			c0.523-0.668,0.843-1.017,0.959-1.017c0.291,0,0.755,0.349,1.395,1.017c0.639,0.697,0.988,1.104,0.988,1.25
			c0,0.291-0.174,0.437-0.464,0.437h-4.998v2.5h2.063c0,0,0.261-0.291,0.785-0.899c0.697-0.812,1.133-1.249,1.366-1.249
			c0.203,0,0.813,0.465,1.801,1.396c0.61,0.58,0.93,0.959,0.93,1.104c0,0.32-0.204,0.465-0.581,0.465H16.095
			c-0.058,0.232-0.175,0.32-0.349,0.32h-3.749v2.119c1.453,0.554,2.499,1.048,3.109,1.48c0.64,0.494,0.988,0.934,0.988,1.278
			c0,0.757-0.204,1.364-0.61,1.858c-0.378,0.522-0.813,0.757-1.308,0.757c-0.262,0-0.465-0.06-0.639-0.202
			c-0.174-0.146-0.349-0.643-0.523-1.514c-0.175-0.64-0.523-1.396-1.017-2.209v10.955c0,0.351-0.436,0.642-1.308,0.845
			c-0.407,0.059-0.668,0.087-0.843,0.087c-0.697,0-1.017-0.319-1.017-0.932c0.145-1.742,0.233-3.312,0.233-4.767v-4.067
			c-0.698,1.365-1.308,2.383-1.86,3.08c-0.582,0.844-1.25,1.601-2.005,2.237l-0.465-0.231c1.743-3.721,2.964-7.32,3.661-10.778
			c-1.511,0-2.557,0.059-3.196,0.114l-0.465-1.133c0.93,0.174,2.237,0.23,3.981,0.23h0.349v-5.463c0-1.859-0.088-3.486-0.233-4.881
			c0.872,0.086,1.947,0.229,3.284,0.464c0.901,0.116,1.365,0.319,1.365,0.581c0,0.291-0.29,0.521-0.872,0.697
			c-0.407,0.114-0.61,0.349-0.61,0.668v7.934h0.465c0.058-0.029,0.291-0.29,0.697-0.756c0.494-0.551,0.785-0.844,0.901-0.844
			c0.232,0,0.639,0.293,1.191,0.873c0.116,0.174,0.232,0.291,0.349,0.379h5.725v-2.5h-0.581c-1.656,0-2.819,0.059-3.516,0.113
			l-0.436-1.133c0.901,0.176,2.208,0.23,3.952,0.23h0.581v-2.148h-1.25c-1.686,0-2.848,0.061-3.516,0.116l-0.261-0.642
			c-0.117,0.061-0.175,0.115-0.204,0.176c-0.843,1.568-1.976,2.992-3.4,4.302l-0.465-0.32c0.813-2.004,1.337-4.239,1.598-6.712
			C14.643,272.882,15.427,273.2,16.124,273.521z M7.9,275.787c0.523,0.812,0.814,1.568,0.814,2.268c0,0.58-0.116,0.987-0.349,1.19
			c-0.32,0.349-0.668,0.493-1.017,0.493c-0.465,0-0.843-0.146-1.133-0.438c-0.262-0.2-0.378-0.812-0.378-1.827
			c0-1.076-0.232-2.354-0.639-3.865l0.348-0.088C6.535,274.218,7.319,274.975,7.9,275.787z M20.396,284.186h5.23
			c0.291-0.291,0.494-0.521,0.668-0.695c0.523-0.522,0.93-0.785,1.163-0.785c0.291,0,0.9,0.352,1.83,0.986
			c0.873,0.697,1.337,1.162,1.337,1.396c0,0.203-0.232,0.465-0.639,0.784c-0.581,0.378-0.843,0.728-0.843,1.019v7.961
			c0,0.933-0.552,1.629-1.598,2.149c-0.872,0.378-1.569,0.581-2.15,0.581c-0.203,0-0.377-0.377-0.522-1.075
			c-0.233-0.842-1.075-1.539-2.529-2.12l0.117-0.553c1.22,0.23,2.179,0.318,2.935,0.318c0.465,0,0.698-0.291,0.698-0.899v-1.687
			h-6.48v5.201c0,0.35-0.494,0.641-1.453,0.844c-0.436,0.059-0.755,0.087-0.93,0.087c-0.61,0-0.901-0.319-0.901-0.931
			c0.058-1.019,0.116-2.007,0.116-3.053v-6.827c0-1.426-0.087-2.819-0.232-4.187C17.548,283.052,18.943,283.546,20.396,284.186z
			 M26.091,287.236v-2.27h-6.48v2.27H26.091z M26.091,290.752v-2.702h-6.48v2.702H26.091z"/>
		<path fill="#DCDCDD" d="M42.799,271.43c0.64,0.057,0.988,0.203,0.988,0.493c0,0.115-0.204,0.261-0.581,0.437
			c-0.465,0.203-0.669,0.438-0.669,0.697v0.9h1.831c0.058,0,0.349-0.35,0.901-1.018c0.639-0.756,1.017-1.133,1.133-1.133
			c0.32,0,0.843,0.377,1.541,1.104c0.697,0.756,1.075,1.221,1.075,1.395c0,0.291-0.175,0.438-0.465,0.438H37.655
			c-1.656,0-2.818,0.058-3.516,0.114l-0.436-1.133c0.901,0.174,2.208,0.231,3.952,0.231h2.062v-0.668
			c0-0.729-0.087-1.481-0.232-2.269C40.62,271.139,41.724,271.254,42.799,271.43z M38.615,276.107h4.62
			c0.261-0.353,0.494-0.644,0.726-0.873c0.204-0.231,0.407-0.377,0.64-0.377c0.262,0,0.755,0.262,1.482,0.785
			c0.813,0.551,1.22,0.928,1.22,1.159c0,0.177-0.145,0.351-0.377,0.522c-0.233,0.175-0.378,0.316-0.407,0.492v1.918
			c0,0.351-0.436,0.58-1.279,0.728c0.291,0.146,0.698,0.407,1.191,0.785c0.813,0.642,1.22,1.134,1.22,1.452
			c0,0.203-0.319,0.35-0.93,0.404c-0.697,0.062-1.104,0.146-1.22,0.266c-0.901,0.402-1.86,0.729-2.848,1.02v0.49
			c1.86-0.113,3.633-0.23,5.347-0.377l0.116,0.35c-1.801,0.641-3.604,1.164-5.463,1.567v2.763c0,1.135-0.436,1.891-1.278,2.268
			c-0.785,0.291-1.424,0.438-1.889,0.438c-0.203,0-0.378-0.291-0.523-0.873c-0.174-0.697-1.046-1.365-2.557-2.062l0.116-0.468
			c0.93,0.231,1.686,0.351,2.267,0.351c0.755,0,1.133-0.174,1.133-0.581v-1.221c-1.104,0.232-2.208,0.406-3.313,0.553
			c-0.436,0.028-0.639,0.115-0.639,0.23c-0.059,0.088-0.088,0.203-0.088,0.318c-0.058,0.232-0.145,0.35-0.261,0.35
			c-0.32,0-0.697-0.551-1.104-1.654c-0.116-0.291-0.319-0.812-0.61-1.512c2.092-0.061,4.097-0.146,6.015-0.262v-0.088
			c0-0.379-0.087-1.104-0.204-2.15c0.872,0.146,1.743,0.351,2.646,0.582l0.872-1.047h-5.58c-1.104,0-2.063,0.088-2.818,0.231
			l-0.465-1.364c1.162,0.23,2.267,0.348,3.283,0.348h5.347c0.407-0.348,0.755-0.639,1.045-0.869
			c0.059-0.061,0.146-0.088,0.233-0.146c-0.407-0.059-0.611-0.291-0.611-0.697h-5.202v0.232c0,0.35-0.464,0.581-1.336,0.697
			c-0.378,0.059-0.669,0.087-0.843,0.087c-0.523,0-0.785-0.263-0.785-0.784c0.058-0.465,0.116-0.986,0.116-1.599v-1.339
			c0-0.608-0.087-1.336-0.233-2.178C36.435,275.264,37.51,275.643,38.615,276.107z M38.585,291.77c0,1.859-0.117,3.108-0.319,3.777
			c-0.233,0.727-0.639,1.249-1.22,1.568c-0.349,0.146-0.698,0.232-1.075,0.232c-0.611,0-1.104-0.176-1.512-0.522
			c-0.377-0.32-0.552-0.755-0.552-1.308c0-0.232,0.349-0.522,1.104-0.873c0.813-0.351,1.424-0.728,1.889-1.162
			c0.436-0.406,0.813-0.987,1.104-1.801L38.585,291.77z M43.67,279.07v-2.15h-5.202v2.15H43.67z M45.269,293.426
			c0.523,0.553,0.785,1.075,0.785,1.54c0,0.843-0.175,1.425-0.494,1.743c-0.437,0.494-0.901,0.756-1.424,0.756
			c-0.378,0-0.669-0.146-0.901-0.379c-0.232-0.202-0.32-0.755-0.32-1.627c0-0.929-0.174-2.033-0.494-3.342l0.464-0.23
			C43.874,292.352,44.659,292.873,45.269,293.426z M50.47,276.339c0-0.465,0.029-0.899,0.029-1.364c0-1.018-0.087-2.326-0.233-3.953
			c0.901,0.146,1.802,0.319,2.674,0.494c1.162,0.232,1.743,0.494,1.743,0.756c0,0.203-0.232,0.406-0.697,0.582
			c-0.407,0.146-0.64,0.318-0.668,0.554c0,1.104-0.029,2.092-0.029,2.935h0.958c0.174-0.229,0.407-0.492,0.698-0.755
			c0.407-0.407,0.697-0.608,0.872-0.608c0.291,0,0.872,0.35,1.743,1.047c0.727,0.64,1.104,1.074,1.104,1.336
			c0,0.175-0.262,0.466-0.726,0.843c-0.349,0.379-0.523,0.64-0.523,0.757c0,3.079,0.087,5.316,0.291,6.712
			c0.174,1.046,0.436,1.569,0.727,1.569c0.203,0,0.609-1.162,1.249-3.518l0.581,0.114c-0.319,2.095-0.465,3.312-0.465,3.633
			c0,0.757,0.116,1.31,0.407,1.716c0.174,0.465,0.262,0.783,0.262,1.019c0,0.202-0.117,0.407-0.291,0.581
			c-0.232,0.23-0.436,0.32-0.61,0.32c-0.872,0-1.715-0.291-2.499-0.873c-0.755-0.522-1.308-1.453-1.686-2.85
			c-0.552-1.802-0.813-5.229-0.813-10.229H53.29c-0.058,2.412-0.175,4.039-0.291,4.854c-0.058,0.264-0.117,0.493-0.175,0.668
			c0.465,0.407,0.843,0.785,1.133,1.192c0.407,0.581,0.61,1.159,0.61,1.771c0,0.467-0.174,0.844-0.465,1.162
			c-0.291,0.377-0.61,0.553-0.988,0.553c-0.291,0-0.755-0.521-1.453-1.627c-0.058,0.088-0.087,0.146-0.117,0.201
			c-0.581,1.02-1.424,1.979-2.557,2.85c-1.075,0.845-2.731,1.656-4.969,2.439l-0.232-0.465c1.627-1.018,2.993-2.18,4.068-3.518
			c0.872-1.019,1.54-2.323,2.005-3.895c0-0.027,0.029-0.061,0.029-0.088c-0.755-0.871-1.627-1.655-2.586-2.383l0.232-0.553
			c1.046,0.291,1.947,0.58,2.703,0.871c0.116-1.074,0.174-2.412,0.231-4.011c-1.279,0-2.15,0.028-2.586,0.06l-0.464-1.133
			C48.437,276.252,49.453,276.339,50.47,276.339z M51.894,293.251c0.726,0.61,1.104,1.19,1.104,1.715
			c0,0.755-0.291,1.336-0.843,1.802c-0.32,0.291-0.728,0.465-1.22,0.465c-0.233,0-0.407-0.114-0.553-0.317
			c-0.145-0.174-0.262-0.608-0.377-1.31c-0.145-0.985-0.523-2.209-1.104-3.604l0.349-0.23
			C50.412,292.234,51.284,292.729,51.894,293.251z M58.955,293.542c0.552,0.581,0.843,1.22,0.843,1.976
			c0,0.522-0.232,1.047-0.697,1.541c-0.32,0.351-0.727,0.521-1.221,0.521c-0.349,0-0.668-0.465-0.901-1.395
			c-0.349-1.338-0.9-2.615-1.714-3.836l0.233-0.467C57.125,292.408,58.287,292.961,58.955,293.542z"/>
		<path fill="#DCDCDD" d="M66.83,276.455h2.382c0.059,0,0.378-0.348,0.901-1.018c0.639-0.756,1.045-1.136,1.162-1.136
			c0.319,0,0.843,0.38,1.54,1.104c0.698,0.756,1.046,1.22,1.046,1.396c0,0.29-0.146,0.438-0.436,0.438H66.83
			c-1.656,0-2.819,0.059-3.516,0.115l-0.465-1.133C63.778,276.396,65.085,276.455,66.83,276.455z M67.846,272.939h0.698
			c0.058,0,0.291-0.291,0.727-0.844c0.522-0.642,0.843-0.986,0.958-0.986c0.291,0,0.726,0.348,1.366,0.986
			c0.61,0.641,0.93,1.047,0.93,1.19c0,0.29-0.174,0.437-0.465,0.437h-4.213c-1.656,0-2.818,0.06-3.516,0.114l-0.436-1.133
			C64.795,272.882,66.103,272.939,67.846,272.939z M67.846,280.088h1.046c0.058,0,0.319-0.349,0.842-1.018
			c0.581-0.756,0.959-1.133,1.075-1.133c0.291,0,0.785,0.377,1.482,1.104c0.668,0.755,1.017,1.221,1.017,1.395
			c0,0.291-0.174,0.438-0.465,0.438h-4.998c-1.656,0-2.818,0.06-3.516,0.116l-0.436-1.137
			C64.795,280.029,66.103,280.088,67.846,280.088z M67.963,283.953h1.133c0.059-0.029,0.349-0.35,0.872-0.96
			c0.581-0.696,0.959-1.075,1.075-1.075c0.291,0,0.755,0.379,1.395,1.075c0.639,0.696,0.988,1.134,0.988,1.308
			c0,0.291-0.175,0.438-0.465,0.438h-4.998c-1.657,0-2.819,0.058-3.517,0.114l-0.437-1.133
			C64.912,283.895,66.219,283.953,67.963,283.953z M68.108,288.05h0.785c0.378-0.465,0.755-0.901,1.104-1.249
			c0.232-0.291,0.465-0.466,0.698-0.466c0.203,0,0.726,0.263,1.54,0.728c0.93,0.641,1.424,1.074,1.424,1.31
			c0,0.262-0.204,0.521-0.552,0.782c-0.261,0.232-0.377,0.522-0.377,0.813v2.267c0,0.9,0.029,2.121,0.116,3.635
			c0,0.349-0.494,0.639-1.453,0.812c-0.436,0.059-0.755,0.086-0.929,0.086c-0.523,0-0.785-0.317-0.785-0.898V295.2h-2.267v1.249
			c0,0.349-0.465,0.639-1.395,0.812c-0.407,0.059-0.697,0.088-0.872,0.088c-0.639,0-0.93-0.32-0.93-0.9
			c0.059-0.988,0.117-1.977,0.117-2.965v-2.85c0-1.395-0.087-2.729-0.232-4.066C65.405,286.916,66.742,287.41,68.108,288.05z
			 M69.677,294.385v-5.551H67.41v5.551H69.677z M82.724,290.084c0.407,0.697,1.017,1.336,1.831,1.946
			c1.075,0.812,2.702,1.452,4.882,1.919v0.668c-0.93,0.552-1.511,1.22-1.744,2.033c-0.232,0.521-0.436,0.812-0.639,0.812
			c-0.291,0-0.93-0.379-1.889-1.073c-0.901-0.729-1.627-1.514-2.15-2.354c-0.668-0.933-1.191-2.035-1.569-3.312
			c-0.059-0.203-0.116-0.381-0.146-0.555c-0.232,0.755-0.465,1.365-0.756,1.857c-0.697,1.339-1.831,2.5-3.341,3.486
			c-1.25,0.813-3.051,1.568-5.375,2.27l-0.233-0.438c1.569-0.812,2.964-1.744,4.126-2.818c1.046-0.899,1.917-2.12,2.557-3.633
			c0.494-1.338,0.755-2.936,0.812-4.795c0-1.453-0.059-2.645-0.116-3.633c0.901,0.116,1.802,0.291,2.673,0.465
			c1.22,0.232,1.86,0.438,1.86,0.668c0,0.232-0.204,0.465-0.581,0.668c-0.465,0.178-0.669,0.379-0.669,0.582
			c-0.116,1.223-0.261,2.269-0.436,3.139c0.116,0.523,0.291,0.988,0.522,1.396c0.319-0.465,0.639-1.018,0.958-1.599
			c0.581-0.987,1.075-2.093,1.453-3.283c0.959,0.64,1.86,1.19,2.703,1.714c0.756,0.582,1.162,0.988,1.162,1.25
			c0,0.319-0.145,0.467-0.436,0.467l-1.714-0.232C85.572,288.484,84.322,289.27,82.724,290.084z M77.494,285.202
			c0,1.976-0.087,3.342-0.204,4.067c-0.203,0.812-0.522,1.363-0.93,1.686c-0.232,0.175-0.494,0.262-0.785,0.262
			c-0.61,0-1.104-0.175-1.511-0.521c-0.349-0.291-0.523-0.728-0.523-1.309c0-0.262,0.291-0.582,0.9-0.959
			c0.668-0.378,1.191-0.814,1.569-1.309c0.349-0.436,0.668-1.104,0.93-2.033L77.494,285.202z M81.649,271.573
			c1.22,0.233,1.86,0.465,1.86,0.698c0,0.229-0.204,0.465-0.581,0.639c-0.465,0.203-0.669,0.406-0.669,0.609
			c-0.174,1.857-0.406,3.312-0.727,4.418c1.396,0.35,2.558,0.694,3.458,1.045c1.104,0.494,1.889,1.019,2.412,1.6
			c0.436,0.464,0.668,0.93,0.668,1.424c0,0.521-0.204,0.93-0.552,1.277c-0.319,0.466-0.697,0.67-1.162,0.67
			c-0.349,0-1.046-0.698-2.063-2.15c-0.843-1.047-1.859-2.006-3.08-2.877c-0.116,0.262-0.232,0.494-0.32,0.668
			c-0.581,1.135-1.481,2.121-2.702,2.993c-1.018,0.728-2.47,1.366-4.33,1.918l-0.204-0.437c1.133-0.641,2.122-1.424,2.993-2.324
			c0.756-0.756,1.366-1.743,1.86-3.021c0.349-1.104,0.552-2.438,0.581-3.979c0-1.426-0.059-2.646-0.116-3.635
			C79.876,271.227,80.777,271.398,81.649,271.573z M77.377,273.172c0,2.034-0.058,3.398-0.174,4.155
			c-0.146,0.813-0.378,1.364-0.669,1.687c-0.203,0.202-0.406,0.289-0.609,0.289c-0.611,0-1.104-0.174-1.511-0.521
			c-0.378-0.29-0.552-0.728-0.552-1.31c0-0.262,0.262-0.58,0.813-0.988c0.582-0.403,1.018-0.842,1.337-1.336
			c0.32-0.465,0.581-1.162,0.813-2.092L77.377,273.172z M83.188,277.589l-0.232-0.349c0.377-0.465,0.755-1.047,1.133-1.803
			c0.465-0.812,0.843-1.688,1.133-2.615c0.9,0.582,1.743,1.104,2.528,1.57c0.727,0.521,1.104,0.93,1.104,1.159
			c0,0.232-0.175,0.351-0.465,0.351l-1.569-0.115C85.979,276.368,84.758,276.979,83.188,277.589z"/>
		<path fill="#DCDCDD" d="M96.7,281.337h1.395c0.029-2.034,0.058-4.358,0.058-7.032c0-0.842-0.058-1.859-0.116-3.078
			c1.104,0.174,2.092,0.35,2.993,0.494c1.162,0.202,1.771,0.463,1.771,0.754s-0.261,0.553-0.726,0.729
			c-0.494,0.176-0.727,0.379-0.727,0.64c0,2.938-0.029,5.437-0.087,7.497h1.22c0.058-0.025,0.349-0.378,0.901-1.072
			c0.639-0.785,1.017-1.19,1.133-1.19c0.349,0,0.872,0.405,1.627,1.161c0.727,0.812,1.104,1.279,1.104,1.453
			c0,0.291-0.174,0.436-0.465,0.436h-5.55c-0.058,1.628-0.146,2.965-0.232,4.04c2.121-0.437,4.155-0.959,6.131-1.54l0.232,0.465
			c-2.15,1.309-4.388,2.411-6.683,3.283c-0.059,0.232-0.087,0.406-0.146,0.553c-0.61,1.801-1.424,3.312-2.441,4.475
			c-1.336,1.481-3.167,2.906-5.492,4.303l-0.465-0.466c1.424-1.222,2.586-2.5,3.458-3.951c0.728-0.987,1.308-2.269,1.772-3.776
			c-0.639,0.203-1.278,0.379-1.917,0.523c-0.465,0.059-0.698,0.174-0.698,0.402c-0.058,0.117-0.087,0.233-0.116,0.408
			c-0.058,0.262-0.174,0.377-0.319,0.377c-0.407,0-0.843-0.639-1.337-1.976c-0.174-0.349-0.407-0.96-0.727-1.772
			c1.918-0.175,3.778-0.437,5.579-0.727c0.087-1.162,0.174-2.702,0.232-4.621H96.7c-1.685,0-2.848,0.059-3.545,0.117l-0.437-1.133
			C93.62,281.279,94.957,281.337,96.7,281.337z M96.671,275.729c0.61,0.697,0.93,1.336,0.93,1.859c0,0.785-0.233,1.424-0.669,1.947
			c-0.406,0.521-0.872,0.783-1.395,0.783c-0.204,0-0.377-0.086-0.552-0.262c-0.145-0.177-0.291-0.845-0.464-1.947
			c-0.233-1.248-0.785-2.76-1.686-4.504l0.436-0.317C94.899,274.218,96.032,275.032,96.671,275.729z M106.348,273.579
			c0.813,0.291,1.249,0.552,1.249,0.843c0,0.262-0.232,0.436-0.697,0.493c-0.465,0.088-0.727,0.175-0.785,0.291
			c-0.465,0.987-1.018,1.802-1.627,2.498c-0.61,0.67-1.396,1.338-2.354,2.034l-0.349-0.318c0.523-1.104,0.93-2.121,1.221-3.052
			c0.262-0.988,0.494-2.15,0.727-3.546C104.633,273.085,105.505,273.348,106.348,273.579z M111.316,274.538
			c0.901,0.116,1.366,0.319,1.366,0.552c0,0.29-0.291,0.553-0.843,0.727c-0.407,0.117-0.61,0.319-0.61,0.642v14.183
			c0,0.377-0.465,0.67-1.336,0.844c-0.407,0.058-0.669,0.086-0.843,0.086c-0.698,0-1.017-0.289-1.017-0.93
			c0.146-1.716,0.232-3.312,0.232-4.768v-6.915c0-1.858-0.087-3.488-0.232-4.882C108.905,274.16,109.98,274.305,111.316,274.538z
			 M115.995,271.37c1.569,0.231,2.382,0.437,2.382,0.668c0,0.319-0.291,0.61-0.813,0.872c-0.349,0.115-0.553,0.349-0.553,0.697
			v19.76c0,1.831-0.436,3.021-1.307,3.545c-0.959,0.581-1.686,0.872-2.208,0.872c-0.291,0-0.552-0.349-0.727-0.988
			c-0.291-1.104-1.599-1.976-3.923-2.731l0.087-0.694c1.279,0.229,2.383,0.349,3.312,0.349c0.582,0,0.988-0.087,1.279-0.261
			c0.174-0.116,0.291-0.407,0.291-0.873v-16.911c0-1.801-0.087-3.342-0.203-4.646C114.484,271.139,115.269,271.254,115.995,271.37z"
			/>
		<path fill="#DCDCDD" d="M133.139,293.191c-1.221,1.135-2.731,1.687-4.504,1.687c-2.208,0-3.923-0.842-5.114-2.586
			c-1.046-1.511-1.569-3.429-1.569-5.754c0-6.915,2.586-10.401,7.788-10.401c1.133,0,2.121,0.231,2.993,0.639
			c1.104,0.555,1.656,1.336,1.656,2.386c0,0.639-0.175,1.188-0.494,1.627c-0.407,0.521-0.901,0.755-1.54,0.755
			c-0.552,0-1.046-0.174-1.453-0.521c-0.407-0.351-0.611-0.784-0.611-1.338c0-0.35,0.117-0.696,0.407-1.104
			c0.262-0.379,0.407-0.555,0.407-0.555c0-0.582-0.407-0.899-1.162-0.899c-1.772,0-3.08,0.845-3.923,2.527
			c-0.64,1.276-0.988,2.965-0.988,4.997c0.959-0.985,2.325-1.512,4.097-1.512c1.656,0,3.051,0.553,4.155,1.602
			c1.104,1.072,1.686,2.438,1.686,4.097C134.969,290.636,134.359,292.088,133.139,293.191z M131.25,285.783
			c-0.698-1.104-1.541-1.686-2.586-1.686c-1.046,0-1.889,0.578-2.557,1.686c-0.581,0.988-0.872,2.033-0.872,3.139
			c0,1.191,0.261,2.268,0.843,3.254c0.639,1.163,1.511,1.715,2.586,1.715c1.075,0,1.947-0.552,2.615-1.686
			c0.552-0.988,0.843-2.062,0.843-3.254C132.122,287.816,131.831,286.771,131.25,285.783z"/>
		<path fill="#DCDCDD" d="M143.396,279.188h6.015c0.117-1.25,0.204-2.586,0.232-3.979c0-1.566-0.058-2.904-0.116-3.979
			c0.987,0.146,1.976,0.316,2.935,0.494c1.366,0.262,2.063,0.521,2.063,0.756c0,0.291-0.233,0.521-0.64,0.726
			c-0.494,0.233-0.727,0.437-0.727,0.64c-0.174,1.978-0.349,3.777-0.552,5.348h6.363c0.058-0.026,0.438-0.465,1.134-1.336
			c0.813-0.986,1.307-1.512,1.453-1.512c0.407,0,1.075,0.493,1.947,1.424c0.901,0.987,1.366,1.568,1.366,1.772
			c0,0.29-0.204,0.437-0.581,0.437h-10.665c0.465,1.891,1.075,3.66,1.889,5.287c0.872,1.859,2.034,3.43,3.487,4.77
			c1.801,1.598,3.777,2.876,5.986,3.806l-0.116,0.669c-1.046,0.406-1.744,0.9-2.034,1.539c-0.349,0.785-0.669,1.19-0.93,1.19
			c-0.32,0-0.93-0.438-1.801-1.25c-1.018-0.843-2.093-2.031-3.197-3.603c-0.872-1.164-1.656-2.703-2.354-4.621
			c-0.726-1.803-1.307-4.416-1.771-7.787h-0.291c-0.464,3.021-1.046,5.287-1.801,6.799c-1.162,2.498-2.731,4.621-4.736,6.335
			c-1.744,1.569-4.098,2.993-7.09,4.358l-0.233-0.58c2.325-1.541,4.33-3.312,6.073-5.406c1.541-1.74,2.79-4.096,3.749-7.061
			c0.377-1.337,0.668-2.818,0.872-4.445h-6.364c-1.569,0-2.848,0.086-3.865,0.231l-0.465-1.366
			C140.374,279.07,141.943,279.188,143.396,279.188z"/>
		<path fill="#DCDCDD" d="M171.203,276.688h2.296c0.058-0.026,0.348-0.377,0.872-1.074c0.639-0.783,1.046-1.189,1.162-1.189
			c0.319,0,0.843,0.406,1.598,1.162c0.756,0.812,1.133,1.275,1.133,1.452c0,0.291-0.174,0.438-0.465,0.438h-6.597
			c-1.656,0-2.818,0.059-3.516,0.114l-0.436-1.134C168.152,276.629,169.46,276.688,171.203,276.688z M172.337,280.204h0.93
			c0.058,0,0.349-0.351,0.872-1.019c0.639-0.754,1.046-1.135,1.163-1.135c0.319,0,0.843,0.381,1.54,1.104
			c0.697,0.756,1.075,1.221,1.075,1.396c0,0.29-0.174,0.438-0.465,0.438h-5.114c-1.656,0-2.818,0.058-3.516,0.117l-0.437-1.136
			C169.286,280.146,170.594,280.204,172.337,280.204z M172.453,273.172h1.046c0.058-0.029,0.319-0.349,0.842-0.958
			c0.581-0.728,0.959-1.104,1.075-1.104c0.291,0,0.756,0.377,1.395,1.104c0.639,0.696,0.988,1.134,0.988,1.308
			c0,0.289-0.174,0.438-0.465,0.438h-4.882c-1.656,0-2.818,0.06-3.516,0.116l-0.436-1.137
			C169.402,273.113,170.71,273.172,172.453,273.172z M172.453,284.068h0.93c0.059-0.028,0.319-0.379,0.843-1.02
			c0.581-0.755,0.959-1.134,1.075-1.134c0.291,0,0.785,0.379,1.482,1.104c0.668,0.754,1.017,1.222,1.017,1.396
			c0,0.29-0.174,0.437-0.465,0.437h-4.882c-1.656,0-2.818,0.06-3.516,0.115l-0.436-1.134
			C169.402,284.011,170.71,284.068,172.453,284.068z M172.163,288.137h0.639c0.407-0.465,0.813-0.9,1.162-1.308
			c0.291-0.319,0.523-0.494,0.756-0.494c0.233,0,0.755,0.263,1.627,0.784c0.959,0.669,1.453,1.134,1.453,1.365
			c0,0.263-0.174,0.521-0.523,0.785c-0.261,0.23-0.377,0.521-0.377,0.812v2.612c0,0.9,0.029,2.121,0.117,3.635
			c0,0.352-0.494,0.64-1.454,0.812c-0.436,0.061-0.755,0.088-0.93,0.088c-0.552,0-0.812-0.318-0.812-0.899v-1.134h-2.034v1.337
			c0,0.378-0.465,0.669-1.366,0.843c-0.407,0.061-0.727,0.088-0.9,0.088c-0.611,0-0.901-0.318-0.901-0.931
			c0.059-0.987,0.088-1.946,0.088-2.937v-2.729c0-1.396-0.088-2.763-0.204-4.067C169.692,287.148,170.913,287.585,172.163,288.137z
			 M173.819,294.385v-5.434h-2.034v5.434H173.819z M179.95,275.061v-1.539c0-0.959-0.087-1.801-0.233-2.5
			c0.873,0.117,1.976,0.265,3.255,0.438c1.162,0.116,1.743,0.317,1.743,0.581c0,0.352-0.319,0.607-0.93,0.812
			c-0.436,0.146-0.639,0.405-0.639,0.754v1.482h4.185v-1.568c0-0.959-0.087-1.801-0.232-2.5c0.872,0.117,1.976,0.265,3.254,0.438
			c1.163,0.116,1.744,0.317,1.744,0.581c0,0.352-0.32,0.607-0.959,0.812c-0.436,0.146-0.64,0.405-0.64,0.754v1.482
			c0.058,0,0.262-0.232,0.64-0.697c0.465-0.521,0.755-0.785,0.843-0.785c0.232,0,0.609,0.291,1.133,0.847
			c0.521,0.552,0.812,0.871,0.812,0.985c0,0.318-0.116,0.465-0.349,0.465h-3.08v8.396c0,0.379-0.494,0.641-1.424,0.785
			c-0.465,0.087-0.785,0.116-0.959,0.116c-0.61,0-0.901-0.175-0.901-0.581c0-0.174,0.029-0.32,0.058-0.438h-0.494V287h2.15
			c0.06-0.025,0.378-0.405,0.93-1.104c0.697-0.845,1.104-1.277,1.22-1.277c0.349,0,0.93,0.438,1.686,1.249
			c0.755,0.812,1.162,1.308,1.162,1.481c0,0.317-0.203,0.465-0.581,0.465H187.3c0.93,1.309,1.976,2.295,3.138,2.936
			c1.22,0.695,2.47,1.189,3.69,1.48l-0.087,0.668c-0.843,0.291-1.482,0.871-1.889,1.744c-0.232,0.641-0.436,0.986-0.61,0.986
			c-0.232,0-0.698-0.318-1.395-0.959c-0.755-0.755-1.453-1.688-2.121-2.789c-0.494-0.9-0.901-1.857-1.25-2.877v7.645
			c0,0.349-0.523,0.64-1.54,0.842c-0.465,0.06-0.785,0.088-0.959,0.088c-0.552,0-0.813-0.318-0.813-0.93
			c0.145-1.047,0.232-2.56,0.232-4.533v-0.844c-0.116,0.146-0.232,0.263-0.319,0.379c-0.784,0.871-1.686,1.625-2.673,2.295
			c-1.046,0.697-2.15,1.222-3.371,1.687l-0.204-0.437c1.075-0.812,2.092-1.858,3.051-3.139c0.901-1.25,1.656-2.675,2.295-4.242
			h-1.279c-1.656,0-2.818,0.06-3.517,0.114l-0.465-1.133c0.93,0.146,2.237,0.202,3.98,0.202h2.499v-2.816h-0.552v0.438
			c0,0.378-0.494,0.639-1.453,0.812c-0.464,0.09-0.755,0.115-0.93,0.115c-0.639,0-0.93-0.175-0.93-0.581
			c0.058-0.552,0.116-0.959,0.116-1.25v-7.813c-0.872,0.026-1.511,0.058-1.918,0.086l-0.465-1.133
			C178.178,274.975,178.962,275.032,179.95,275.061z M187.331,279.07v-3.168h-4.185v3.168H187.331z M187.331,283.372v-3.519h-4.185
			v3.519H187.331z"/>
		<path fill="#DCDCDD" d="M200.349,273.84h4.358c0.261-0.261,0.494-0.521,0.727-0.783c0.349-0.379,0.581-0.582,0.755-0.582
			c0.262,0,0.756,0.262,1.454,0.756c0.813,0.643,1.249,1.074,1.249,1.311c0,0.203-0.204,0.438-0.552,0.668
			c-0.319,0.29-0.464,0.553-0.464,0.784v3.081c0.813-1.191,1.482-2.299,1.947-3.344c0.581-1.338,1.046-2.965,1.453-4.822
			c0.93,0.262,1.86,0.521,2.732,0.756c0.813,0.262,1.249,0.521,1.249,0.812s-0.232,0.465-0.697,0.522
			c-0.465,0.06-0.727,0.174-0.785,0.291c-0.174,0.377-0.349,0.728-0.523,1.017h3.603c0.291-0.262,0.582-0.521,0.872-0.756
			c0.465-0.406,0.813-0.609,1.046-0.609c0.291,0,0.959,0.408,2.005,1.223c0.988,0.872,1.511,1.453,1.511,1.742
			c0,0.176-0.349,0.379-1.017,0.553c-0.698,0.116-1.075,0.232-1.133,0.352c-1.046,1.742-2.062,3.166-3.051,4.239
			c0.261,0.146,0.523,0.265,0.813,0.378c1.424,0.641,3.255,1.223,5.521,1.744l-0.116,0.438c-0.61,0.175-1.163,0.695-1.657,1.627
			c-0.348,0.669-0.581,0.986-0.726,0.986c-0.349,0-1.104-0.291-2.208-0.897c-1.453-0.757-2.615-1.569-3.545-2.44
			c-0.959,0.844-1.889,1.54-2.819,2.094c-0.639,0.404-1.278,0.782-1.917,1.104c0.987,0.29,1.917,0.639,2.79,1.045h3.749
			c0.29-0.29,0.552-0.581,0.784-0.871c0.349-0.406,0.61-0.607,0.785-0.607c0.291,0,0.813,0.262,1.598,0.781
			c0.901,0.697,1.366,1.163,1.366,1.396c0,0.261-0.203,0.552-0.581,0.843c-0.291,0.351-0.436,0.668-0.436,0.959v1.019l0.231,5.812
			c0,0.349-0.552,0.64-1.627,0.813c-0.465,0.059-0.785,0.086-0.988,0.086c-0.552,0-0.813-0.318-0.813-0.899v-1.046h-4.301v1.046
			c0,0.349-0.465,0.64-1.396,0.813c-0.407,0.059-0.697,0.086-0.872,0.086c-0.698,0-1.018-0.318-1.018-0.899
			c0.117-2.062,0.204-3.896,0.204-5.463v-0.116c0-1.223-0.058-2.701-0.174-4.417c-0.61,0.319-1.22,0.608-1.859,0.872v0.93
			l0.116,4.883c0,0.351-0.436,0.58-1.308,0.729c-0.406,0.061-0.668,0.088-0.843,0.088c-0.464,0-0.697-0.263-0.697-0.812v-1.568
			h-4.882v1.918c0,0.35-0.436,0.581-1.249,0.695c-0.378,0.061-0.64,0.088-0.785,0.088c-0.61,0-0.901-0.262-0.901-0.783
			c0.145-1.83,0.232-3.457,0.232-4.882V277.24c0-1.192-0.087-2.674-0.232-4.417C198.401,273.113,199.418,273.434,200.349,273.84z
			 M201.394,281.803v-7.146h-1.133v7.146H201.394z M201.394,290.752v-8.165h-1.133v8.165H201.394z M203.893,281.803h1.25v-7.146
			h-1.25V281.803z M203.893,290.752h1.25v-8.165h-1.25V290.752z M212.03,282.732c0.581-0.582,1.075-1.135,1.54-1.688
			c-0.291-0.349-0.523-0.668-0.697-1.017c-0.582-0.932-1.017-2.006-1.366-3.228c-0.117,0.115-0.204,0.203-0.262,0.29
			c-0.872,0.988-2.005,1.947-3.371,2.938v6.16C209.327,285.115,210.722,283.953,212.03,282.732z M214.209,279.1
			c0.174,0.174,0.349,0.32,0.523,0.438c0.116-0.175,0.232-0.378,0.349-0.554c0.697-1.221,1.336-2.5,1.889-3.896h-4.185
			c-0.262,0.406-0.523,0.784-0.784,1.104C212.611,277.355,213.337,278.346,214.209,279.1z M217.289,294.617v-6.684h-4.301v6.684
			H217.289z"/>
		<path fill="#DCDCDD" d="M249.803,282.936h15.896c0.088-0.026,0.466-0.465,1.104-1.275c0.784-0.959,1.249-1.453,1.396-1.453
			c0.404,0,1.017,0.465,1.888,1.363c0.873,0.932,1.312,1.514,1.312,1.688c0,0.319-0.205,0.467-0.582,0.467H249.37
			c-1.569,0-2.848,0.088-3.865,0.231l-0.464-1.366C246.781,282.818,248.351,282.936,249.803,282.936z"/>
		<path fill="#DCDCDD" d="M284.789,285.202c-1.771,1.946-3.545,3.485-5.289,4.647c-1.191,0.729-1.771,1.135-1.771,1.252v0.871
			c-0.059,0.491-0.146,0.726-0.317,0.726c-0.291,0-0.812-0.581-1.513-1.772c-0.405-0.609-0.899-1.423-1.453-2.439
			c2.73-0.668,6.104-1.918,10.111-3.746L284.789,285.202z M278.542,277.152c0.058-0.029,0.377-0.438,0.929-1.191
			c0.697-0.871,1.104-1.307,1.221-1.307c0.352,0,0.933,0.436,1.744,1.277c0.813,0.844,1.224,1.364,1.224,1.541
			c0,0.317-0.203,0.465-0.581,0.465h-4.417c-1.688,0-2.851,0.058-3.519,0.113l-0.466-1.134
			C275.548,277.096,276.855,277.152,278.542,277.152z M290.893,279.594c1.451,0.203,2.181,0.438,2.181,0.727
			c0,0.291-0.265,0.522-0.784,0.729c-0.466,0.204-0.697,0.469-0.697,0.758c-0.146,1.047-0.29,2.006-0.438,2.848
			c0.408,1.104,0.873,2.094,1.367,2.906c0.871,1.512,1.944,2.789,3.254,3.808c1.279,1.018,2.906,1.946,4.883,2.788l-0.088,0.467
			c-0.641,0.174-1.221,0.727-1.742,1.686c-0.352,0.696-0.61,1.047-0.758,1.047c-0.317,0-0.959-0.438-1.889-1.31
			c-1.222-1.104-2.236-2.295-3.021-3.573c-0.812-1.395-1.482-2.789-1.948-4.186c-0.174-0.493-0.348-1.016-0.464-1.568
			c-0.438,1.744-0.932,3.051-1.48,3.952c-0.582,1.104-1.627,2.267-3.108,3.429c-1.511,1.278-3.37,2.44-5.579,3.486l-0.467-0.348
			c2.238-1.773,3.98-3.459,5.229-5.146c0.872-1.189,1.569-2.645,2.095-4.328c0.494-1.803,0.754-3.807,0.754-5.957
			c0-0.695-0.059-1.568-0.113-2.615C289.002,279.332,289.961,279.479,290.893,279.594z M288.77,272.242
			c0.961,0.29,1.455,0.609,1.455,0.93c0,0.291-0.291,0.494-0.812,0.581s-0.844,0.204-0.901,0.32
			c-0.348,1.104-0.694,2.092-1.071,2.963h7.438c0.407-0.318,0.755-0.581,1.075-0.812c0.407-0.353,0.755-0.556,0.987-0.556
			c0.291,0,0.986,0.494,2.092,1.424c1.018,0.813,1.541,1.396,1.541,1.743c0,0.291-0.262,0.494-0.784,0.555
			c-0.61,0-0.959,0.06-1.046,0.146c-1.104,1.396-2.471,2.789-4.098,4.185l-0.555-0.23c0.465-1.803,0.899-3.69,1.249-5.666h-8.252
			c-0.29,0.609-0.553,1.16-0.843,1.628c-0.846,1.423-1.947,2.876-3.283,4.387l-0.465-0.464c0.871-1.979,1.539-3.836,2.004-5.551
			c0.465-1.803,0.843-3.951,1.189-6.479C286.734,271.633,287.782,271.951,288.77,272.242z"/>
		<path fill="#DCDCDD" d="M313.091,272.271c0.697,0.403,1.075,0.694,1.075,0.897c0,0.175-0.204,0.265-0.581,0.291
			c-0.465,0-0.728,0.06-0.785,0.146c-0.493,0.115-1.017,0.203-1.54,0.291c-0.465,0.086-1.133,0.146-1.976,0.203l0.058,2.235h0.407
			c0,0,0.203-0.203,0.581-0.608c0.523-0.58,0.842-0.871,1.018-0.871c0.115,0,0.582,0.35,1.336,1.045
			c0.465,0.408,0.697,0.668,0.697,0.785c0,0.318-0.115,0.465-0.349,0.465h-3.661l0.059,2.937h0.438c0,0,0.202-0.204,0.581-0.608
			c0.521-0.582,0.843-0.873,1.017-0.873c0.116,0,0.581,0.352,1.337,1.02c0.467,0.438,0.698,0.695,0.698,0.812
			c0,0.291-0.117,0.437-0.353,0.437h-3.688l0.061,2.383h13.89l0.146-2.47c-1.25,0-2.267,0.027-3.021,0.087l-0.466-1.133
			c0.986,0.174,2.148,0.231,3.546,0.231l0.146-2.73c-1.336,0-2.41,0.059-3.226,0.115l-0.466-1.133
			c1.047,0.174,2.267,0.229,3.721,0.229l0.146-2.384c-1.278,0-2.386,0.06-3.283,0.115l-0.465-1.134
			c1.362,0.175,2.498,0.233,3.429,0.233c0.319-0.32,0.64-0.643,0.959-0.96c0.405-0.406,0.728-0.64,0.959-0.64
			c0.291,0,0.812,0.317,1.569,0.898c0.842,0.668,1.275,1.075,1.275,1.249c0,0.291-0.29,0.582-0.871,0.813
			c-0.521,0.289-0.812,0.607-0.844,0.898l-0.29,6.742c0.29-0.232,0.494-0.379,0.642-0.379c0.229,0,0.782,0.406,1.715,1.162
			c0.812,0.668,1.221,1.134,1.221,1.425c0,0.261-0.232,0.405-0.669,0.465c-0.522,0-0.843,0.06-0.9,0.116
			c-0.959,0.609-2.149,1.221-3.545,1.802l-0.437-0.203c0.466-0.844,0.898-1.715,1.25-2.614h-19.44
			c-0.058,0.641-0.087,1.133-0.146,1.424c-0.115,0.668-0.318,1.135-0.609,1.396c-0.203,0.175-0.407,0.23-0.581,0.23
			c-0.581,0-1.046-0.146-1.424-0.492c-0.349-0.264-0.494-0.67-0.494-1.192c0-0.229,0.231-0.491,0.728-0.812
			c0.522-0.291,0.932-0.641,1.248-1.049c0.291-0.35,0.523-0.898,0.729-1.654l0.581,0.088v1.249h0.669l-0.233-6.685
			c0-1.336-0.145-2.762-0.436-4.213l2.762,0.986c0.35-0.232,0.668-0.465,0.958-0.697c0.608-0.494,1.046-0.957,1.278-1.424
			C311.93,271.633,312.538,271.98,313.091,272.271z M312.016,286.335h6.916c0.291-0.261,0.522-0.494,0.729-0.668
			c0.521-0.465,0.929-0.696,1.22-0.696c0.319,0,0.934,0.405,1.805,1.161c0.898,0.757,1.362,1.278,1.362,1.568
			c0,0.233-0.377,0.378-1.133,0.407c-0.642,0.059-1.075,0.146-1.25,0.262c-1.046,0.465-1.946,0.872-2.702,1.163
			c0.117,0.114,0.204,0.229,0.204,0.317c0,0.291-0.265,0.521-0.729,0.696c-0.377,0.116-0.608,0.265-0.695,0.438h6.306
			c0.062-0.029,0.378-0.406,0.959-1.162c0.668-0.871,1.075-1.338,1.191-1.338c0.349,0,0.93,0.438,1.741,1.278
			c0.813,0.87,1.224,1.396,1.224,1.567c0,0.291-0.204,0.438-0.581,0.438h-10.896v2.848c0,1.162-0.379,2.006-1.104,2.47
			c-0.842,0.522-1.688,0.813-2.527,0.813c-0.289,0-0.465-0.264-0.521-0.785c-0.178-0.871-1.19-1.742-3.109-2.613l0.116-0.553
			c1.54,0.289,2.674,0.437,3.397,0.437c0.465,0,0.697-0.146,0.697-0.437v-2.18h-7.382c-1.655,0-2.817,0.059-3.517,0.114
			l-0.465-1.134c0.932,0.174,2.235,0.23,3.979,0.23h7.382c-0.026-0.58-0.114-1.396-0.231-2.498c1.513,0.23,2.529,0.438,2.994,0.553
			h0.027c0.521-0.553,1.075-1.19,1.626-1.918h-7.028c-1.25,0-2.412,0.088-3.519,0.231l-0.466-1.366
			C309.197,286.219,310.533,286.335,312.016,286.335z M318.96,277.82c0.669,0.35,1.017,0.611,1.017,0.785
			c0,0.229-0.201,0.35-0.552,0.35c-0.435,0-0.668,0.087-0.696,0.23c-0.174,0.176-0.35,0.318-0.521,0.438
			c0.438,0.29,0.785,0.552,1.019,0.812c0.35,0.35,0.521,0.728,0.521,1.133c0,0.379-0.146,0.699-0.407,0.988
			c-0.229,0.35-0.521,0.492-0.842,0.492c-0.291,0-0.847-0.553-1.688-1.686c-0.117-0.146-0.23-0.29-0.35-0.407
			c-0.872,0.581-2.18,1.162-3.863,1.743l-0.117-0.35c1.047-0.756,1.979-1.567,2.791-2.472l0.027-0.028
			c-0.581-0.436-1.162-0.843-1.801-1.25l0.23-0.436c0.932,0.175,1.741,0.378,2.438,0.609c0.466-0.64,0.844-1.277,1.075-1.859
			C317.885,277.27,318.438,277.589,318.96,277.82z M319.077,272.038c0.639,0.351,0.987,0.61,0.987,0.785
			c0,0.202-0.176,0.319-0.523,0.349c-0.436,0-0.668,0.087-0.727,0.232c-0.088,0.115-0.174,0.203-0.264,0.289
			c0.29,0.231,0.523,0.467,0.697,0.67c0.316,0.378,0.494,0.785,0.494,1.191c0,0.377-0.146,0.694-0.407,0.984
			c-0.229,0.352-0.521,0.494-0.842,0.494c-0.265,0-0.785-0.581-1.541-1.743c-0.757,0.608-1.83,1.224-3.228,1.856l-0.117-0.348
			c0.813-0.785,1.541-1.656,2.183-2.587c0.026-0.058,0.062-0.087,0.087-0.146c-0.581-0.582-1.249-1.104-1.945-1.599l0.231-0.438
			c0.985,0.231,1.83,0.467,2.524,0.697c0.291-0.554,0.494-1.104,0.668-1.627C318.002,271.486,318.555,271.807,319.077,272.038z"/>
		<path fill="#DCDCDD" d="M346.391,271.573c0.988,0.29,1.482,0.552,1.482,0.784c0,0.291-0.291,0.494-0.872,0.553
			c-0.087,0.029-0.174,0.059-0.231,0.059c1.656,0.756,3.369,1.336,5.172,1.743c2.324,0.522,4.621,0.872,6.944,1.075l-0.116,0.668
			c-0.812,0.263-1.362,0.814-1.653,1.656c-0.203,0.64-0.438,0.959-0.729,0.959c-0.436,0-1.453-0.291-3.021-0.93
			c-1.687-0.582-3.257-1.365-4.707-2.324c-1.104-0.729-2.063-1.453-2.818-2.209c-1.567,1.396-3.226,2.5-4.969,3.371
			c-1.249,0.694-2.703,1.396-4.39,2.031c0.785,0.29,1.568,0.61,2.354,0.961h12.466c0.406-0.438,0.784-0.812,1.162-1.136
			c0.263-0.29,0.522-0.464,0.757-0.464c0.23,0,0.756,0.261,1.598,0.784c0.988,0.694,1.481,1.159,1.481,1.395
			c0,0.265-0.175,0.523-0.465,0.784c-0.231,0.23-0.351,0.494-0.351,0.784v0.931c0,0.901,0.029,2.121,0.115,3.635
			c0,0.377-0.494,0.64-1.451,0.812c-0.438,0.06-0.756,0.088-0.932,0.088c-0.466,0-0.727-0.231-0.756-0.696h-14.005
			c0,0.318-0.319,0.553-0.899,0.728c1.16,0.35,2.322,0.784,3.545,1.338h8.717c0.406-0.438,0.783-0.813,1.162-1.163
			c0.291-0.291,0.521-0.438,0.756-0.438c0.232,0,0.757,0.263,1.6,0.785c0.987,0.668,1.48,1.133,1.48,1.364
			c0,0.29-0.203,0.554-0.608,0.843c-0.291,0.264-0.407,0.553-0.407,0.871v1.48c0,0.932,0.028,2.181,0.088,3.75
			c0,0.349-0.494,0.639-1.479,0.812c-0.466,0.06-0.813,0.089-0.988,0.089c-0.552,0-0.813-0.32-0.813-0.9v-0.232H340.41v0.319
			c0,0.378-0.467,0.669-1.396,0.843c-0.406,0.061-0.697,0.088-0.871,0.088c-0.64,0-0.931-0.318-0.931-0.931
			c0.06-0.987,0.116-1.946,0.116-2.937v-2.033c0-1.31-0.087-2.586-0.203-3.836h-0.029c-0.406,0.06-0.726,0.088-0.9,0.088
			c-0.607,0-0.897-0.291-0.897-0.93c0.06-0.961,0.116-1.947,0.116-2.937V282.7c0-1.104-0.061-2.179-0.146-3.226
			c-0.899,0.35-1.83,0.67-2.816,0.959l-0.35-0.467c2.004-0.959,4.186-2.296,6.537-3.979c1.858-1.396,3.545-3.108,5.057-5.201
			C344.706,271.109,345.605,271.37,346.391,271.573z M343.805,286.104v-5.315h-5.346v5.315H343.805z M342.062,282.384
			c0.694,0.466,1.045,0.871,1.045,1.22c0,0.729-0.262,1.311-0.756,1.744c-0.318,0.291-0.697,0.406-1.162,0.406
			c-0.231,0-0.405-0.059-0.553-0.23c-0.146-0.146-0.263-0.494-0.379-1.073c-0.175-0.814-0.521-1.773-1.104-2.88l0.318-0.23
			C340.607,281.688,341.48,282.034,342.062,282.384z M350.604,292.117v-2.383h-10.195v2.383H350.604z M350.604,295.4v-2.498h-10.195
			v2.498H350.604z M344.822,277.355h0.229c0.062,0,0.352-0.351,0.901-0.987c0.639-0.755,1.019-1.162,1.133-1.162
			c0.319,0,0.845,0.378,1.541,1.133c0.696,0.757,1.075,1.191,1.075,1.365c0,0.319-0.178,0.466-0.469,0.466h-4.414
			c-1.656,0-2.818,0.059-3.519,0.117l-0.465-1.135C341.771,277.299,343.078,277.355,344.822,277.355z M352.436,286.104v-5.315
			h-5.578v5.315H352.436z M350.633,282.034c0.959,0.35,1.453,0.668,1.453,1.018c0,0.203-0.23,0.349-0.668,0.407
			c-0.465,0.087-0.756,0.203-0.814,0.377c-0.726,0.698-1.713,1.337-2.935,1.918l-0.465-0.32c0.553-1.274,0.931-2.729,1.134-4.328
			C349.15,281.396,349.936,281.715,350.633,282.034z"/>
		<path fill="#DCDCDD" d="M376.203,271.604c0.697,0.061,1.074,0.231,1.074,0.554c0,0.114-0.231,0.288-0.641,0.491
			c-0.492,0.205-0.727,0.468-0.727,0.759v1.25h6.361c0.06-0.029,0.406-0.438,0.988-1.224c0.695-0.93,1.133-1.396,1.277-1.396
			c0.378,0,0.986,0.466,1.831,1.338c0.813,0.871,1.249,1.423,1.249,1.599c0,0.318-0.203,0.465-0.581,0.465h-8.021
			c0.317,0.115,0.64,0.203,0.93,0.264c0.785,0.23,1.191,0.493,1.191,0.755c0,0.291-0.231,0.465-0.697,0.521
			c-0.465,0.061-0.729,0.146-0.784,0.265c-0.349,0.755-0.757,1.362-1.22,1.889c-0.265,0.291-0.556,0.581-0.873,0.845h4.356
			c0.29-0.264,0.494-0.467,0.668-0.642c0.556-0.464,0.933-0.729,1.163-0.729c0.291,0,0.898,0.353,1.83,0.988
			c0.872,0.697,1.337,1.162,1.337,1.396s-0.229,0.492-0.64,0.783c-0.58,0.377-0.846,0.728-0.846,1.047v11.799
			c0,0.959-0.552,1.714-1.627,2.236c-0.897,0.406-1.627,0.608-2.207,0.608c-0.23,0-0.406-0.35-0.554-1.047
			c-0.229-0.871-1.133-1.567-2.644-2.149l0.029-0.086c-0.38,0.06-0.644,0.086-0.814,0.086c-0.521,0-0.784-0.262-0.784-0.783v-0.465
			h-5.114v1.045c0,0.379-0.436,0.642-1.308,0.812c-0.407,0.059-0.668,0.088-0.843,0.088c-0.642,0-0.931-0.289-0.931-0.9
			c0.058-0.898,0.114-1.801,0.114-2.729v-1.364c0-1.162-0.061-2.269-0.174-3.343c-0.467,0.175-0.932,0.29-1.396,0.377l-0.35-0.317
			c0.555-0.231,1.046-0.58,1.512-1.019c0.493-0.407,0.844-0.813,1.074-1.276c0.232-0.642,0.35-1.426,0.35-2.385v-1.221h-3.283v15.98
			c0,0.35-0.465,0.641-1.396,0.844c-0.405,0.059-0.696,0.087-0.87,0.087c-0.697,0-1.02-0.319-1.02-0.931
			c0.146-2.035,0.232-3.865,0.232-5.436v-7.611c0-1.365-0.089-3.021-0.232-4.998c1.25,0.318,2.412,0.729,3.517,1.25h3.4
			c-0.146-0.351-0.32-0.845-0.522-1.481c-0.35-1.104-0.812-2.062-1.396-2.937l0.06-0.115h-3.021c-1.655,0-2.818,0.059-3.519,0.115
			l-0.465-1.134c0.931,0.175,2.237,0.232,3.979,0.232h7.613v-1.136c0-0.782-0.089-1.599-0.232-2.41
			C373.85,271.227,375.041,271.398,376.203,271.604z M375.797,287.354c0.406-0.408,0.812-0.756,1.162-1.076
			c0.29-0.262,0.552-0.404,0.784-0.404c0.233,0,0.756,0.262,1.599,0.785c0.959,0.668,1.453,1.133,1.453,1.395
			c0,0.264-0.204,0.522-0.581,0.758c-0.291,0.262-0.437,0.521-0.437,0.812v0.465c0,0.812,0.027,1.892,0.115,3.283
			c0,0.2-0.115,0.349-0.318,0.465c0.812,0.088,1.48,0.117,2.033,0.117c0.521,0,0.785-0.292,0.785-0.933v-7.814
			c-0.609,0.29-1.514,0.438-2.731,0.438h-1.425c-0.522,0-0.987-0.027-1.396-0.146c-0.843-0.116-1.25-0.609-1.25-1.426v-3.281h-2.848
			v1.221c0,0.987-0.23,1.83-0.641,2.471c-0.379,0.554-1.019,1.047-1.89,1.451c-0.291,0.178-0.581,0.291-0.872,0.407
			c0.93,0.291,1.83,0.608,2.762,1.019h3.693v-0.004H375.797z M376.465,279.973c0.232-0.757,0.407-1.48,0.553-2.121
			c0.115-0.699,0.231-1.48,0.318-2.412h-7.234c0.262,0.115,0.494,0.264,0.729,0.377c0.581,0.379,0.985,0.758,1.22,1.162
			c0.232,0.352,0.352,0.697,0.352,1.076c0,0.58-0.232,1.104-0.641,1.51c-0.146,0.203-0.291,0.352-0.406,0.408H376.465z
			 M376.843,292.234v-4.101h-5.114v4.101H376.843z M378.092,282.587c0,0.494,0.116,0.756,0.407,0.813
			c0.231,0.059,0.61,0.086,1.162,0.086c0.378,0,0.64-0.114,0.784-0.318c0.059-0.232,0.175-0.871,0.35-1.945h0.465l0.116,1.364
			c0,0.263,0.261,0.494,0.842,0.728c0.06,0.028,0.116,0.061,0.177,0.061v-2.587h-4.303V282.587z"/>
		<path fill="#DCDCDD" d="M394.189,276.455h2.384c0.058,0,0.378-0.348,0.899-1.018c0.641-0.756,1.047-1.136,1.16-1.136
			c0.319,0,0.846,0.38,1.541,1.104c0.697,0.756,1.046,1.22,1.046,1.396c0,0.29-0.146,0.438-0.437,0.438h-6.598
			c-1.656,0-2.816,0.059-3.518,0.115l-0.464-1.133C391.139,276.396,392.447,276.455,394.189,276.455z M395.207,272.939h0.697
			c0.059,0,0.291-0.291,0.727-0.844c0.523-0.642,0.844-0.986,0.959-0.986c0.291,0,0.727,0.348,1.365,0.986
			c0.611,0.641,0.931,1.047,0.931,1.19c0,0.29-0.175,0.437-0.466,0.437h-4.213c-1.656,0-2.818,0.06-3.518,0.114l-0.437-1.133
			C392.156,272.882,393.464,272.939,395.207,272.939z M395.207,280.088h1.047c0.059,0,0.319-0.349,0.842-1.018
			c0.581-0.756,0.959-1.133,1.075-1.133c0.291,0,0.784,0.377,1.481,1.104c0.669,0.755,1.018,1.221,1.018,1.395
			c0,0.291-0.175,0.438-0.465,0.438h-4.998c-1.656,0-2.818,0.06-3.518,0.116l-0.437-1.137
			C392.156,280.029,393.464,280.088,395.207,280.088z M395.323,283.953h1.134c0.059-0.029,0.35-0.35,0.871-0.96
			c0.582-0.696,0.959-1.075,1.076-1.075c0.289,0,0.755,0.379,1.395,1.075c0.639,0.696,0.987,1.134,0.987,1.308
			c0,0.291-0.175,0.438-0.466,0.438h-4.997c-1.656,0-2.818,0.058-3.517,0.114l-0.438-1.133
			C392.271,283.895,393.58,283.953,395.323,283.953z M395.469,288.05h0.785c0.377-0.465,0.755-0.901,1.104-1.249
			c0.231-0.291,0.467-0.466,0.697-0.466c0.202,0,0.729,0.263,1.54,0.728c0.929,0.641,1.423,1.074,1.423,1.31
			c0,0.262-0.203,0.521-0.552,0.782c-0.262,0.232-0.377,0.522-0.377,0.813v2.267c0,0.9,0.027,2.121,0.115,3.635
			c0,0.349-0.494,0.639-1.453,0.812c-0.437,0.059-0.755,0.086-0.931,0.086c-0.522,0-0.783-0.317-0.783-0.898V295.2h-2.268v1.249
			c0,0.349-0.467,0.639-1.396,0.812c-0.406,0.059-0.697,0.088-0.871,0.088c-0.639,0-0.93-0.32-0.93-0.9
			c0.058-0.988,0.113-1.977,0.113-2.965v-2.85c0-1.395-0.086-2.729-0.229-4.066C392.766,286.916,394.104,287.41,395.469,288.05z
			 M397.038,294.385v-5.551h-2.267v5.551H397.038z M410.084,290.084c0.407,0.697,1.018,1.336,1.832,1.946
			c1.075,0.812,2.702,1.452,4.882,1.919v0.668c-0.931,0.552-1.512,1.22-1.743,2.033c-0.23,0.521-0.437,0.812-0.641,0.812
			c-0.29,0-0.93-0.379-1.889-1.073c-0.9-0.729-1.627-1.514-2.15-2.354c-0.668-0.933-1.189-2.035-1.568-3.312
			c-0.059-0.203-0.115-0.381-0.146-0.555c-0.233,0.755-0.465,1.365-0.755,1.857c-0.698,1.339-1.832,2.5-3.342,3.486
			c-1.25,0.813-3.055,1.568-5.377,2.27l-0.232-0.438c1.568-0.812,2.965-1.744,4.127-2.818c1.046-0.899,1.917-2.12,2.557-3.633
			c0.494-1.338,0.756-2.936,0.814-4.795c0-1.453-0.059-2.645-0.116-3.633c0.899,0.116,1.802,0.291,2.673,0.465
			c1.221,0.232,1.859,0.438,1.859,0.668c0,0.232-0.203,0.465-0.581,0.668c-0.465,0.178-0.668,0.379-0.668,0.582
			c-0.116,1.223-0.263,2.269-0.437,3.139c0.113,0.523,0.291,0.988,0.521,1.396c0.317-0.465,0.641-1.018,0.959-1.599
			c0.582-0.987,1.076-2.093,1.453-3.283c0.959,0.64,1.856,1.19,2.7,1.714c0.757,0.582,1.162,0.988,1.162,1.25
			c0,0.319-0.146,0.467-0.437,0.467l-1.715-0.232C412.934,288.484,411.684,289.27,410.084,290.084z M404.854,285.202
			c0,1.976-0.086,3.342-0.203,4.067c-0.201,0.812-0.521,1.363-0.931,1.686c-0.229,0.175-0.493,0.262-0.784,0.262
			c-0.607,0-1.104-0.175-1.511-0.521c-0.349-0.291-0.522-0.728-0.522-1.309c0-0.262,0.291-0.582,0.9-0.959
			c0.668-0.378,1.191-0.814,1.568-1.309c0.349-0.436,0.669-1.104,0.931-2.033L404.854,285.202z M409.01,271.573
			c1.221,0.233,1.859,0.465,1.859,0.698c0,0.229-0.203,0.465-0.581,0.639c-0.465,0.203-0.668,0.406-0.668,0.609
			c-0.175,1.857-0.407,3.312-0.728,4.418c1.396,0.35,2.559,0.694,3.459,1.045c1.104,0.494,1.889,1.019,2.412,1.6
			c0.436,0.464,0.668,0.93,0.668,1.424c0,0.521-0.203,0.93-0.556,1.277c-0.315,0.466-0.694,0.67-1.162,0.67
			c-0.349,0-1.046-0.698-2.062-2.15c-0.844-1.047-1.859-2.006-3.079-2.877c-0.116,0.262-0.233,0.494-0.32,0.668
			c-0.581,1.135-1.481,2.121-2.702,2.993c-1.017,0.728-2.47,1.366-4.328,1.918l-0.203-0.437c1.135-0.641,2.121-1.424,2.991-2.324
			c0.757-0.756,1.366-1.743,1.86-3.021c0.349-1.104,0.552-2.438,0.581-3.979c0-1.426-0.06-2.646-0.116-3.635
			C407.236,271.227,408.139,271.398,409.01,271.573z M404.738,273.172c0,2.034-0.059,3.398-0.174,4.155
			c-0.146,0.813-0.379,1.364-0.67,1.687c-0.203,0.202-0.405,0.289-0.609,0.289c-0.61,0-1.104-0.174-1.512-0.521
			c-0.377-0.29-0.551-0.728-0.551-1.31c0-0.262,0.26-0.58,0.812-0.988c0.581-0.403,1.017-0.842,1.336-1.336
			c0.319-0.465,0.581-1.162,0.813-2.092L404.738,273.172z M410.55,277.589l-0.231-0.349c0.38-0.465,0.757-1.047,1.136-1.803
			c0.465-0.812,0.842-1.688,1.133-2.615c0.899,0.582,1.743,1.104,2.527,1.57c0.728,0.521,1.104,0.93,1.104,1.159
			c0,0.232-0.175,0.351-0.465,0.351l-1.567-0.115C413.339,276.368,412.119,276.979,410.55,277.589z"/>
		<path fill="#DCDCDD" d="M431.354,293.57c-1.337,0.871-2.935,1.308-4.766,1.308c-1.771,0-3.284-0.377-4.533-1.19
			c-1.479-0.93-2.207-2.235-2.207-3.924c0-1.017,0.465-1.976,1.452-2.848c0.784-0.697,1.743-1.221,2.876-1.627
			c-0.988-0.407-1.83-0.959-2.499-1.715c-0.784-0.842-1.161-1.743-1.161-2.702c0-1.511,0.696-2.731,2.094-3.603
			c1.16-0.756,2.558-1.137,4.186-1.137c1.627,0,3.021,0.352,4.186,1.049c1.396,0.869,2.094,2.062,2.094,3.604
			c0,0.812-0.379,1.568-1.135,2.268c-0.641,0.609-1.396,1.104-2.236,1.452c1.075,0.377,2.004,0.987,2.761,1.83
			c0.812,0.959,1.22,1.978,1.22,3.052C433.679,291.188,432.895,292.582,431.354,293.57z M425.775,285.986
			c-1.918,0.756-2.851,2.033-2.851,3.836c0,1.104,0.377,2.062,1.162,2.848c0.756,0.812,1.656,1.221,2.731,1.221
			c1.104,0,2.031-0.406,2.79-1.221c0.726-0.784,1.104-1.744,1.104-2.848C430.716,287.963,429.059,286.686,425.775,285.986z
			 M426.821,277.123c-1.075,0-1.918,0.32-2.499,0.9c-0.581,0.641-0.871,1.48-0.871,2.559c0,1.511,1.51,2.613,4.591,3.312
			c1.423-0.988,2.15-2.095,2.15-3.312C430.192,278.287,429.059,277.123,426.821,277.123z"/>
		<path fill="#DCDCDD" d="M441.697,279.188h6.016c0.117-1.25,0.204-2.586,0.233-3.979c0-1.566-0.062-2.904-0.116-3.979
			c0.987,0.146,1.976,0.316,2.935,0.494c1.365,0.262,2.063,0.521,2.063,0.756c0,0.291-0.233,0.521-0.641,0.726
			c-0.494,0.233-0.729,0.437-0.729,0.64c-0.175,1.978-0.35,3.777-0.553,5.348h6.361c0.062-0.026,0.438-0.465,1.136-1.336
			c0.812-0.986,1.308-1.512,1.45-1.512c0.407,0,1.075,0.493,1.947,1.424c0.9,0.987,1.365,1.568,1.365,1.772
			c0,0.29-0.203,0.437-0.581,0.437h-10.664c0.465,1.891,1.075,3.66,1.89,5.287c0.871,1.859,2.033,3.43,3.486,4.77
			c1.803,1.598,3.776,2.876,5.985,3.806l-0.116,0.669c-1.046,0.406-1.743,0.9-2.033,1.539c-0.35,0.785-0.669,1.19-0.931,1.19
			c-0.319,0-0.931-0.438-1.802-1.25c-1.02-0.843-2.094-2.031-3.196-3.603c-0.872-1.164-1.656-2.703-2.354-4.621
			c-0.726-1.803-1.307-4.416-1.771-7.787h-0.29c-0.466,3.021-1.047,5.287-1.802,6.799c-1.162,2.498-2.731,4.621-4.737,6.335
			c-1.743,1.569-4.097,2.993-7.09,4.358l-0.232-0.58c2.324-1.541,4.33-3.312,6.073-5.406c1.539-1.74,2.79-4.096,3.748-7.061
			c0.378-1.337,0.669-2.818,0.872-4.445h-6.363c-1.566,0-2.849,0.086-3.865,0.231l-0.465-1.366
			C438.676,279.07,440.245,279.188,441.697,279.188z"/>
		<path fill="#DCDCDD" d="M469.273,272.707h0.582c0.349-0.436,0.668-0.812,0.959-1.134c0.229-0.29,0.436-0.464,0.639-0.464
			c0.175,0,0.609,0.203,1.308,0.607c0.785,0.555,1.192,0.932,1.192,1.104c0,0.201-0.146,0.404-0.407,0.609
			c-0.204,0.202-0.291,0.405-0.291,0.641v1.134c0,0.729,0.029,1.714,0.116,2.964c0,0.291-0.406,0.494-1.162,0.607
			c-0.349,0.061-0.61,0.061-0.756,0.061c-0.465,0-0.697-0.203-0.697-0.668v-0.466h-1.566v0.67c0,0.315-0.352,0.552-1.049,0.694
			c0.847,0.291,1.717,0.609,2.59,1.02h5.84c0.35-0.35,0.668-0.695,1.018-0.986c0.231-0.23,0.438-0.377,0.668-0.377
			c0.175,0,0.669,0.23,1.424,0.695c0.871,0.607,1.311,1.02,1.311,1.249s-0.174,0.465-0.465,0.697
			c-0.232,0.229-0.319,0.491-0.319,0.755v3.195c0,0.812,0.029,1.891,0.087,3.283c0,0.352-0.465,0.58-1.365,0.696
			c-0.404,0.058-0.728,0.088-0.898,0.088c-0.465,0-0.668-0.262-0.668-0.784h-2.15v2.73h3.051c0.061-0.028,0.352-0.35,0.846-0.959
			c0.607-0.727,0.985-1.104,1.104-1.104c0.29,0,0.755,0.377,1.396,1.104c0.641,0.697,0.987,1.133,0.987,1.309
			c0,0.291-0.175,0.438-0.466,0.438h-6.915v0.783c0,1.717,0.029,3.053,0.116,4.099c0,0.317-0.465,0.553-1.396,0.728
			c-0.405,0.029-0.728,0.061-0.899,0.061c-0.465,0-0.668-0.262-0.668-0.785c0.059-0.959,0.115-2.295,0.115-4.098v-0.784h-2.85
			c-1.655,0-2.816,0.06-3.517,0.116l-0.438-1.133c0.9,0.174,2.209,0.229,3.952,0.229h2.848v-2.729h-2.032v0.58
			c0,0.319-0.438,0.555-1.31,0.696c-0.406,0.06-0.695,0.088-0.872,0.088c-0.521,0-0.782-0.262-0.782-0.784
			c0.059-0.9,0.114-1.802,0.114-2.729v-3.864c0-1.163-0.087-2.296-0.202-3.4h-0.146c-0.521,0-0.784-0.26-0.784-0.812
			c0.06-0.813,0.116-1.628,0.116-2.472v-0.812c0-1.162-0.087-2.295-0.231-3.398C467.299,271.98,468.286,272.301,469.273,272.707z
			 M470.756,276.92v-3.398h-1.568v3.398H470.756z M472.471,283.836v-2.964h-2.033v2.964H472.471z M472.471,287.816v-3.195h-2.033
			v3.195H472.471z M477.439,272.707h0.465c0.349-0.406,0.669-0.756,0.984-1.074c0.204-0.263,0.407-0.406,0.61-0.406
			c0.175,0,0.641,0.23,1.366,0.668c0.812,0.58,1.249,0.959,1.249,1.162c0,0.202-0.177,0.406-0.466,0.609
			c-0.23,0.204-0.318,0.407-0.318,0.639v0.785c0,0.727,0.029,1.715,0.116,2.965c0,0.291-0.407,0.493-1.191,0.609
			c-0.349,0.059-0.606,0.059-0.756,0.059c-0.464,0-0.668-0.203-0.668-0.668v-0.351h-1.481v0.466c0,0.318-0.404,0.553-1.16,0.698
			c-0.351,0.058-0.609,0.087-0.758,0.087c-0.553,0-0.812-0.264-0.812-0.785c0.058-0.812,0.116-1.656,0.116-2.499v-0.581
			c0-1.162-0.088-2.295-0.233-3.398C475.463,271.98,476.451,272.301,477.439,272.707z M475.202,283.836h2.147v-2.964h-2.147V283.836
			z M475.202,287.816h2.147v-3.195h-2.147V287.816z M490.895,278.287c0.812,0.695,1.222,1.133,1.222,1.336
			c0,0.318-0.203,0.465-0.581,0.465l-5.782,0.697c0.062,2.498,0.232,4.301,0.466,5.434c0.061,0.35,0.115,0.641,0.202,0.9
			c0.64-1.452,1.134-3.166,1.482-5.201c0.984,0.32,1.802,0.581,2.438,0.784c0.931,0.35,1.425,0.641,1.425,0.901
			c0,0.263-0.203,0.437-0.608,0.521c-0.406,0.087-0.642,0.203-0.642,0.378c-1.047,2.498-2.031,4.445-3.021,5.812
			c0.116,0.317,0.262,0.607,0.437,0.871c0.958,1.541,1.627,2.295,2.033,2.295c0.175,0,0.438-0.551,0.814-1.654
			c0.114-0.521,0.348-1.221,0.639-2.094l0.466,0.115c-0.319,2.44-0.466,3.864-0.466,4.301c0,0.379,0.088,0.813,0.262,1.338
			c0.117,0.35,0.204,0.67,0.204,0.959c-0.059,0.58-0.319,0.931-0.785,1.019c-0.727,0-1.565-0.379-2.499-1.134
			c-1.073-0.755-1.977-1.83-2.729-3.227c-0.116-0.203-0.233-0.406-0.32-0.641c-0.842,0.755-1.656,1.365-2.469,1.859
			c-1.454,0.871-3.429,1.714-5.958,2.558l-0.231-0.438c2.702-1.512,4.648-2.816,5.843-3.979c0.669-0.64,1.276-1.363,1.857-2.18
			c-0.291-0.844-0.552-1.743-0.727-2.676c-0.406-1.479-0.697-3.658-0.845-6.508c-0.466,0.06-0.899,0.146-1.364,0.23l-0.668-1.249
			c0.694,0.06,1.364,0.116,2.005,0.116c-0.061-1.514-0.087-3.168-0.087-4.998c0-1.48-0.116-2.73-0.319-3.749
			c1.366,0.176,2.382,0.291,3.05,0.405c1.047,0.117,1.602,0.32,1.602,0.611c0,0.29-0.29,0.551-0.843,0.727
			c-0.522,0.176-0.759,0.466-0.759,0.871c0,2.238,0.03,4.186,0.089,5.869l2.093-0.263c0.291-0.493,0.582-0.93,0.845-1.336
			c0.349-0.641,0.607-0.987,0.842-0.987C489.702,277.355,490.167,277.676,490.895,278.287z M478.834,276.92v-3.398h-1.48v3.398
			H478.834z M490.428,273.811c0.494,0.291,0.756,0.644,0.756,1.047c0,0.555-0.229,1.076-0.668,1.541
			c-0.349,0.351-0.756,0.521-1.25,0.521c-0.289,0-0.552-0.318-0.726-0.959c-0.291-0.871-0.756-1.714-1.425-2.557l0.23-0.465
			C488.801,273.229,489.847,273.521,490.428,273.811z"/>
		<path fill="#DCDCDD" d="M500.977,271.895c0.813,0.263,1.223,0.521,1.223,0.812s-0.232,0.465-0.697,0.521
			c-0.465,0.061-0.697,0.176-0.755,0.291c-0.697,1.424-1.482,2.613-2.383,3.604c-0.872,0.988-2.034,1.977-3.433,2.965l-0.315-0.35
			c1.016-1.424,1.801-2.76,2.354-3.98c0.522-1.277,0.987-2.848,1.396-4.648C499.232,271.398,500.105,271.661,500.977,271.895z
			 M502.574,277.123c0.812,0.263,1.221,0.523,1.221,0.814c0,0.058-0.029,0.113-0.029,0.113c0.758,0.061,1.627,0.116,2.646,0.116
			v-2.181c0-1.858-0.087-3.485-0.232-4.883c0.872,0.088,1.947,0.231,3.283,0.465c0.901,0.117,1.366,0.32,1.366,0.58
			c0,0.178-0.06,0.265-0.146,0.32c0.784,0.291,1.396,0.553,1.831,0.784c0.609,0.378,0.933,0.728,0.933,1.046
			c0,0.698-0.265,1.223-0.729,1.628c-0.087,0.087-0.175,0.146-0.262,0.203c0.29,0.203,0.668,0.522,1.104,0.987
			c0.67,0.757,1.021,1.222,1.021,1.365c0,0.317-0.146,0.467-0.438,0.467h-4.795v17.812c0,0.349-0.435,0.64-1.308,0.842
			c-0.406,0.06-0.668,0.088-0.843,0.088c-0.697,0-1.02-0.319-1.02-0.929c0.146-1.744,0.232-3.312,0.232-4.77v-13.047
			c-1.365,0.027-2.354,0.059-2.964,0.115l-0.265-0.67c-0.026,0.029-0.058,0.029-0.087,0.029c-0.465,0.088-0.727,0.174-0.784,0.29
			c-0.521,1.19-1.072,2.267-1.653,3.196c0.058,0.029,0.145,0.059,0.202,0.059c0.582,0.203,0.899,0.379,0.899,0.494
			c0,0.291-0.204,0.553-0.553,0.727c-0.232,0.117-0.351,0.352-0.351,0.642v13.048c0,0.318-0.438,0.554-1.309,0.728
			c-0.407,0.06-0.698,0.088-0.872,0.088c-0.696,0-1.018-0.29-1.018-0.812c0.146-2.034,0.23-4.067,0.23-6.132v-5.376
			c-0.843,0.872-1.803,1.715-2.848,2.558l-0.32-0.349c1.426-1.858,2.499-3.604,3.255-5.201c0.758-1.687,1.427-3.69,1.946-6.045
			C500.831,276.602,501.703,276.861,502.574,277.123z M504.492,281.657c1.104,0.231,1.686,0.436,1.686,0.581
			c0,0.261-0.115,0.436-0.291,0.553c-0.404,0.202-0.606,0.348-0.606,0.464c-0.146,2.646-0.353,4.417-0.61,5.289
			c-0.291,1.22-0.697,2.208-1.189,2.963c-0.58,0.873-1.311,1.454-2.182,1.744l-0.116-0.349c0.468-0.814,0.784-1.627,0.987-2.471
			c0.233-0.812,0.379-1.804,0.494-2.966c0.059-1.221,0.116-3.282,0.116-6.132C503.505,281.453,504.086,281.568,504.492,281.657z
			 M511.641,276.339c-0.203,0-0.349-0.058-0.465-0.231c-0.115-0.114-0.229-0.404-0.316-0.931c-0.146-0.668-0.407-1.452-0.813-2.354
			c-0.059,0.028-0.088,0.028-0.088,0.028c-0.406,0.114-0.61,0.349-0.61,0.668v4.647h0.814c0.058-0.026,0.316-0.377,0.842-1.021
			c0.291-0.377,0.523-0.639,0.669-0.812L511.641,276.339L511.641,276.339z M512.688,282.121c0.729,0.117,1.104,0.291,1.104,0.466
			c0,0.263-0.232,0.465-0.669,0.608c-0.319,0.088-0.465,0.264-0.465,0.521v4.998c0,0.378,0.026,0.581,0.087,0.61
			c0.088,0.114,0.23,0.175,0.466,0.175c0.115,0,0.231-0.027,0.291-0.146c0.058-0.086,0.087-0.316,0.146-0.694
			c0.026-0.407,0.113-1.019,0.261-1.771h0.437c0.061,0.842,0.087,1.424,0.146,1.771c0.027,0.405,0.146,0.694,0.378,0.872
			c0.407,0.261,0.606,0.492,0.606,0.668c0,0.349-0.087,0.609-0.261,0.812c-0.174,0.204-0.407,0.351-0.756,0.468
			c-0.377,0.146-0.784,0.203-1.249,0.203c-0.756,0-1.308-0.029-1.715-0.146c-0.407-0.087-0.668-0.23-0.784-0.406
			c-0.291-0.262-0.436-0.843-0.436-1.743v-4.415c0-1.396-0.091-2.473-0.232-3.169C510.74,281.859,511.641,281.977,512.688,282.121z
			 M520.445,278.838c0.639,0.814,0.959,1.337,0.959,1.6c0,0.291-0.174,0.438-0.465,0.438h-1.718v13.077
			c0,1.45-0.491,2.382-1.479,2.815c-0.932,0.465-1.656,0.697-2.15,0.697c-0.261,0-0.464-0.32-0.639-0.96
			c-0.262-0.929-1.311-1.714-3.108-2.354l0.115-0.436c1.278,0.176,2.383,0.233,3.313,0.233c0.578,0,0.897-0.263,0.897-0.814v-12.263
			h-0.582c-0.58,0-1.336,0.059-2.267,0.115l-0.438-1.133c1.162,0.176,2.062,0.23,2.701,0.23h2.063
			c0.175-0.318,0.437-0.785,0.728-1.424c0.348-0.784,0.61-1.191,0.727-1.191C519.341,277.473,519.806,277.938,520.445,278.838z
			 M520.445,272.416c0.639,0.784,0.959,1.309,0.959,1.541c0,0.318-0.174,0.465-0.465,0.465h-4.769c-0.582,0-1.337,0.059-2.268,0.116
			l-0.466-1.134c1.162,0.146,2.094,0.203,2.73,0.203h1.48c0.176-0.291,0.438-0.756,0.729-1.336c0.348-0.756,0.61-1.162,0.727-1.162
			C519.341,271.109,519.806,271.544,520.445,272.416z"/>
	</g>
</g>
<g>
	<g>
		<path fill="#FFFFFF" d="M75.179,163.185c0,0,7.308,5.127,11.711,8.662c-0.281,0.973-1.219,1.414-2.529,1.414H2.853l-0.749-2.475
			h40.285c-0.375-0.178-0.843-0.441-1.312-0.795c-0.469-3.624-2.811-7.689-4.872-10.077l0.749-0.53
			c16.208,0.973,16.114,8.928,11.431,11.402h20.329L75.179,163.185z M71.713,181.66l10.68,7.688
			c-0.562,0.707-1.968,1.59-3.842,1.944v39.86c0,6.72-1.592,10.605-13.771,11.666c-0.188-3.18-0.562-5.479-1.874-6.979
			c-1.404-1.414-3.278-2.651-7.682-3.271v-0.705c-1.031,0.264-2.062,0.353-2.904,0.353l-1.593,0.089v-4.24H37.798v3.093
			c0,0.883-4.31,2.827-8.244,2.827h-1.406v-28.019c-2.342,1.062-5.059,1.944-8.15,2.827V239.2c0,1.148-4.402,3.533-8.993,3.533
			H9.317v-60.103l11.523,4.418h8.432c-0.75-0.266-1.405-0.706-2.155-1.237c-0.468-4.15-2.717-8.66-4.966-11.49l0.844-0.529
			c16.677,2.298,15.739,11.229,10.586,13.259h16.584c1.311-4.063,2.717-9.632,3.466-13.61l14.615,3.183
			c-0.375,1.062-1.406,1.771-3.561,1.771c-2.717,2.649-6.558,5.92-10.586,8.66h12.647L71.713,181.66z M19.997,206.496
			c9.557-5.039,10.681-10.783,10.962-16.972H19.997V206.496z M38.173,209.588h11.711l4.216-4.241
			c-4.497-0.265-5.06-2.031-5.06-6.013v-9.812h-7.963c-0.749,6.365-3.186,11.935-12.648,16.265L38.173,209.588z M50.727,225.588
			v-13.524H37.798v13.523L50.727,225.588L50.727,225.588z M60.563,230.095c-0.094,0.354-1.593,0.973-3.373,1.502
			c2.624,0.178,7.027,0.44,8.525,0.44c1.5,0,1.968-0.617,1.968-1.767V204.46c-1.593,0.619-4.216,0.885-8.244,0.885H55.41h-0.936
			l9.087,6.363c-0.468,0.529-1.593,1.236-2.998,1.414V230.095L60.563,230.095z M56.722,189.524v1.062v7.246
			c0,0.885,0.188,1.149,1.219,1.149h2.529h2.343c0.374,0,1.03,0,1.405-0.09c0.468,0,1.312-0.177,1.779-0.266h0.843l0.376,0.089
			l0.468,0.177v-9.367H56.722z"/>
		<path fill="#FFFFFF" d="M86.895,238.757c8.524-4.242,18.83-12.107,26.044-21.035l11.805,7.688c-0.75,0.885-1.78,1.147-4.029,0.707
			c-9.086,7.602-23.047,12.106-33.445,13.698L86.895,238.757z M164.091,171.14c0,0,6.371,4.153,10.213,7.338
			c-0.281,0.973-1.219,1.414-2.624,1.414h-28.762l12.273,3.271c-0.281,1.061-1.406,1.679-3.467,1.59
			c-2.529,2.298-6.276,5.127-10.212,7.604h12.086l5.715-6.364c0,0,6.371,4.241,10.398,7.424c-0.28,0.974-1.311,1.414-2.528,1.414
			h-30.917v7.957h11.991l5.341-6.101c0,0,6.183,4.066,10.024,7.16c-0.281,0.973-1.218,1.414-2.623,1.414h-24.733v8.572h20.61
			l5.902-6.629c0,0,6.558,4.42,10.493,7.777c-0.188,0.973-1.219,1.414-2.436,1.414h-34.57v23.953
			c-0.094,0.528-3.467,2.475-9.087,2.475h-1.968v-26.428H89.799l-0.75-2.562h36.163v-8.572H98.886l-0.749-2.477h27.075v-7.955
			H94.201l-0.749-2.475h24.077c-0.938-0.178-1.968-0.707-2.904-1.416c-0.094-3.713-2.154-7.775-4.31-10.25l0.844-0.531
			c16.395,2.033,14.428,10.961,8.993,12.197h17.146c1.779-3.892,3.466-8.662,4.496-12.463H89.049l-0.75-2.562h19.112
			c-0.937-0.178-1.968-0.621-2.998-1.416c-0.187-4.684-3.091-9.896-6.276-13.08l0.843-0.53
			c18.362,2.917,16.489,13.875,10.586,15.026h8.62v-17.502l12.554,1.062c-0.094,1.061-0.843,1.854-2.904,2.209v14.23h6.464v-17.502
			l12.741,1.062c-0.187,1.061-0.843,1.854-2.998,2.209v14.23h2.718c2.342-4.598,4.777-10.961,6.183-15.645l13.21,3.889
			c-0.468,1.062-1.593,1.767-3.654,1.502c-3.278,3.184-8.432,7.158-13.49,10.254h9.463L164.091,171.14z M139.077,221.166
			c50.122,6.103,31.198,24.75,22.11,16.884c-3.936-4.597-11.524-10.871-22.672-15.732L139.077,221.166z"/>
		<path fill="#FFFFFF" d="M204.569,170.786c0,0,5.715,4.242,9.181,7.337c-0.281,0.974-1.312,1.414-2.623,1.414h-36.632l-0.749-2.562
			h25.764L204.569,170.786z M208.972,201.19c-0.374,0.709-1.218,1.062-2.342,1.062h-28.294l-0.654-2.564h18.643l4.591-5.391
			c0,0,4.966,3.621,8.057,6.453c20.425-9.547,19.675-22.541,19.768-40.482l13.772,1.148c-0.281,1.148-1.03,2.033-3.091,2.21
			c-0.281,6.808-0.562,12.815-2.437,18.208c1.593,0.268,3.092,0.619,4.497,0.973c3.092-5.213,6.464-12.021,7.87-15.646l12.271,6.452
			c-0.468,0.796-1.779,1.503-3.653,1.062c-2.997,2.3-8.244,5.925-13.678,8.929c21.267,6.451,16.676,20.858,7.401,16.617
			c-2.998-5.306-9.743-11.933-15.459-16.439c-3.278,7.689-10.492,13.699-26.606,18.297L208.972,201.19z M197.262,188.289l4.59-5.569
			c0,0,5.06,3.889,8.151,6.719c-0.188,0.973-1.125,1.414-2.436,1.414h-29.231l-0.654-2.562L197.262,188.289L197.262,188.289z
			 M207.192,235.664c-0.094,0.707-4.778,2.649-8.058,2.649h-1.592v-4.772h-9.182v5.306c0,0.885-4.122,2.916-8.151,2.916h-1.404
			v-34.295l9.931,3.803h7.869l4.591-4.598l9.556,6.805c-0.562,0.621-1.78,1.328-3.56,1.682V235.664z M183.771,161.063
			c24.64,1.147,15.834,18.828,5.902,12.639c-0.655-4.418-3.748-9.189-6.558-12.107L183.771,161.063z M197.543,231.065v-17.321
			h-9.182v17.321H197.543z M261.53,210.914c-0.469,0.797-1.78,1.502-3.654,0.883c-3.091,2.123-8.806,5.479-14.334,7.955
			c3.936,5.481,9.931,9.812,19.112,12.729l-0.093,1.061c-4.686,0.975-7.309,3.449-7.965,8.84
			c-10.68-5.566-15.363-16.174-17.519-28.637c-2.342,12.285-9.274,22.359-33.165,29.254l-0.937-1.236
			c25.295-11.488,24.546-26.516,24.733-46.58l13.865,1.062c-0.187,1.237-1.125,2.121-3.186,2.387
			c-0.095,2.652-0.188,5.306-0.375,7.779c0.844,4.063,2.154,7.866,4.122,11.137c2.811-4.596,5.809-10.342,7.12-13.435
			L261.53,210.914z M211.314,204.551c20.985,10.431,6.933,23.688,1.968,15.468c0-3.801-0.562-10.254-3.092-14.849L211.314,204.551z
			 M211.596,167.162c22.953,9.457,8.525,24.043,2.904,15.558c-0.188-3.89-1.031-10.431-3.935-14.938L211.596,167.162z"/>
		<path fill="#FFFFFF" d="M327.114,220.019c0,0.883-4.401,2.74-8.431,2.74h-1.875v-12.816c-0.468,0.617-1.219,0.885-2.248,0.885
			H293.67c-2.344,14.674-10.682,25.633-30.074,32.084l-0.75-0.973c12.929-7.865,18.645-18.029,20.331-31.111h-19.3l-0.749-2.562
			h20.328c0.188-2.209,0.282-4.507,0.282-6.895v-7.955h-17.051l-0.75-2.562h17.801v-30.848l14.054,1.325
			c-0.187,1.237-0.937,2.121-3.372,2.476v27.047h5.339l5.341-6.807c0,0,5.902,4.684,9.463,7.955
			c-0.188,0.973-1.125,1.412-2.528,1.412H294.42v7.957c0,2.387-0.189,4.686-0.377,6.895h7.964l5.341-6.981
			c0,0,5.902,4.508,9.463,7.864v-40.568l13.771,1.236c-0.188,1.238-0.938,2.209-3.468,2.476V220.019z M266.688,166.103
			c23.703,10.692,13.211,28.194,4.404,20.063c0.094-6.541-2.625-14.144-5.435-19.623L266.688,166.103z M296.293,187.935
			c1.686-5.479,4.027-14.408,5.9-22.099l12.93,4.687c-0.471,1.061-1.686,1.854-3.842,1.679c-4.121,5.747-8.992,11.845-13.676,16.353
			L296.293,187.935z M349.88,161.417c-0.093,1.326-1.028,2.21-3.372,2.477v66.819c0,7.16-1.688,11.226-14.428,12.373
			c-0.281-3.356-0.749-5.743-2.248-7.336c-1.686-1.678-3.747-2.828-8.619-3.623v-1.237c0,0,10.212,0.707,12.18,0.707
			c1.592,0,2.154-0.529,2.154-1.679v-69.826L349.88,161.417z"/>
		<path fill="#FFFFFF" d="M385.018,247.362c-6.184,4.599-15.738,11.229-30.072,19.447c-0.188,1.148-1.028,2.121-2.154,2.476
			l-7.023-11.845c2.81-0.618,7.398-1.856,13.021-3.446v-38.097H347.45l-0.749-2.562h21.922l5.716-6.982c0,0,6.37,4.771,10.397,8.131
			c-0.279,0.974-1.312,1.414-2.715,1.414H369.84v35.002c4.777-1.414,9.838-2.918,14.896-4.42L385.018,247.362z M424.46,222.793
			c-2.53,13.435-7.215,25.188-15.459,34.912c6.745,6.451,15.459,11.312,26.42,14.762l-0.281,0.972
			c-5.434,1.149-8.618,4.244-10.022,9.28c-9.744-4.596-16.862-10.96-22.204-18.737c-9.088,8.131-21.454,14.496-38.036,18.737
			l-0.654-1.061c15.738-6.363,26.979-14.763,34.662-24.748c-3.935-7.957-6.559-17.146-8.338-27.488
			c-3.936,5.125-8.338,9.455-13.304,12.992l-1.22-0.797c6.746-10.162,12.931-25.986,15.459-41.896l15.365,3.978
			c-0.375,1.147-1.498,1.946-3.654,1.946c-1.875,5.301-4.123,10.25-6.65,14.67h21.173l5.996-7.424c0,0,6.651,5.039,10.774,8.484
			c-0.281,0.973-1.406,1.414-2.719,1.414h-7.308V222.793z M395.136,222.793c-1.03,1.589-2.061,3.181-3.092,4.685
			c2.342,9.016,5.81,16.883,10.867,23.512c5.06-8.484,8.059-17.941,9.463-28.195L395.136,222.793L395.136,222.793z"/>
		<path fill="#FFFFFF" d="M518.15,213.776c-0.656,0.974-1.595,1.148-3.844,1.326c-2.902,6.01-6.838,11.754-11.711,16.883
			c6.089,3.445,13.491,6.099,22.301,7.865l-0.188,0.974c-4.403,1.323-6.652,4.241-7.402,9.103c-2.151-0.795-4.12-1.591-5.993-2.474
			l6.649,4.772c-0.656,0.707-1.593,1.325-3.653,1.681v25.809c0,0.531-3.093,2.121-8.149,2.121h-1.78v-6.274h-17.237v4.772
			c0,0.617-2.903,2.297-7.868,2.297h-1.688v-33.676c-2.062,0.883-4.216,1.769-6.466,2.478v16.791
			c-0.092,0.709-4.027,2.651-7.026,2.651h-1.402v-5.567H446.67v4.686c0,0.973-2.998,3.006-6.839,3.006h-1.404v-69.031l8.711,3.713
			h14.708l4.22-4.42l8.616,6.543c-0.562,0.617-1.873,1.324-3.561,1.59v18.562c6.184-7.426,12.087-18.475,15.178-30.316l13.116,4.418
			c-0.469,1.062-1.687,1.855-3.747,1.683c-0.937,1.942-1.968,3.711-2.998,5.479h10.774l5.621-5.039L518.15,213.776z
			 M446.668,210.242v24.481h4.309v-24.481H446.668z M446.668,262.832h4.309v-25.545h-4.309V262.832z M458.191,210.242v24.481h4.496
			v-24.481H458.191z M462.688,262.832v-25.545h-4.495v25.545H462.688L462.688,262.832z M471.119,249.572
			c8.433-4.685,15.646-10.693,21.361-17.41c-2.623-3.623-4.778-7.603-6.652-11.845c-4.403,4.859-9.367,8.75-14.709,11.757V249.572
			L471.119,249.572z M508.407,245.951c-4.497-2.478-8.244-5.394-11.523-8.664c-4.776,3.979-10.306,7.515-16.677,10.519l8.057,2.918
			h15.835L508.407,245.951z M504.378,273.084v-19.887h-17.237v19.887H504.378z M491.075,213.687
			c-1.125,1.681-2.342,3.183-3.562,4.687c2.249,3.446,5.153,6.541,8.525,9.19c3.186-4.418,5.715-9.104,7.59-13.877H491.075z"/>
	</g>
	<rect x="357.203" y="11.736" fill="#FFFFFF" width="8.222" height="130.824"/>
	<rect x="2.104" y="106.268" fill="#231815" width="171.642" height="36.292"/>
	<g>
		<path fill="#FFFFFF" d="M40.956,114.325c0,0-0.026,0.598-0.05,0.885c-0.145,4.237-0.29,6.057-0.779,6.632
			c-0.34,0.455-0.656,0.646-1.167,0.742c-0.415,0.071-1.023,0.096-1.728,0.096c-0.049-0.695-0.218-1.605-0.512-2.203
			c0.438,0.073,0.754,0.073,0.974,0.073c0.218,0,0.389-0.049,0.512-0.264c0.194-0.286,0.316-1.244,0.413-3.759h-1.509
			c0,1.677-0.193,3.832-1.995,5.363l0.511,0.239c-0.121,0.143-0.242,0.288-0.365,0.408c1.971,0.814,4.38,1.962,5.671,2.897
			l-1.557,1.771c-0.463-0.358-1.048-0.741-1.753-1.147v1.243h-2.338v0.958h4.577v1.916h-2.506l1.874,0.454
			c-0.243,0.671-0.487,1.316-0.682,1.915l2.044-0.12l-0.024,2.107c-4.65,0.334-9.592,0.622-12.998,0.791l-0.389-2.204l2.434-0.12
			c-0.122-0.646-0.438-1.58-0.779-2.25l2.069-0.55c0.415,0.694,0.754,1.652,0.901,2.249l-1.728,0.528l2.653-0.12v-2.68h-4.65v-1.916
			h4.65V127.3h-2.24v-1.076c-0.78,0.432-1.582,0.812-2.336,1.147c-0.318-0.597-0.902-1.363-1.461-1.889
			c2.581-0.863,5.55-2.369,7.132-4.19l1.07,0.502c-0.268-0.287-0.632-0.596-0.998-0.838l-0.998,0.504
			c-0.074-0.264-0.169-0.55-0.315-0.862c-3.261,1.317-4.235,1.795-4.748,2.13l-0.218,0.167c-0.171-0.525-0.633-1.626-1.048-2.129
			c0.438-0.215,0.875-0.598,0.875-1.437v-3.876c1.704-0.503,3.604-1.341,4.723-2.107l1.826,1.604v-0.623h6.96V114.325z
			 M32.704,116.599c0.633,0.885,1.218,1.938,1.631,2.896c0.658-1.006,0.779-2.084,0.779-2.969h-1.119v-1.507
			c-1.193,0.671-2.703,1.196-4.114,1.676v2.8l1.849-0.719c-0.243-0.43-0.512-0.909-0.78-1.316L32.704,116.599z M36.574,125.48
			c-0.949-0.504-1.995-1.006-2.92-1.415c-0.608,0.503-1.266,0.982-1.946,1.415H36.574z M35.285,130.171v2.561l0.974-0.049
			c0.267-0.813,0.511-1.771,0.657-2.513h-1.631V130.171z M44.291,129.142h-2.629v-13.164h2.629V129.142z M48.551,113.823v18.575
			c0,1.507-0.292,2.25-1.169,2.705c-0.853,0.455-2.215,0.551-4.162,0.551c-0.097-0.766-0.462-2.012-0.827-2.8
			c1.241,0.047,2.483,0.047,2.872,0.047c0.416-0.023,0.561-0.144,0.561-0.526v-18.549h2.726V113.823z"/>
		<path fill="#FFFFFF" d="M56.095,120.524c-0.51,2.825-1.289,6.176-2.505,8.234l-2.799-1.029c1.192-2.059,2.117-5.098,2.555-7.898
			L56.095,120.524z M65.44,132.612c1.241,0,1.461-0.693,1.632-4.068c0.705,0.503,1.995,1.005,2.848,1.197
			c-0.39,4.308-1.241,5.721-4.235,5.721h-4.26c-2.994,0-4.015-0.813-4.186-3.447c-1.412,0.958-2.945,1.819-4.502,2.562
			c-0.438-0.647-1.315-1.7-1.898-2.252c2.263-1.004,4.404-2.296,6.376-3.781v-9.791h3.091v7.229
			c3.675-3.399,6.597-7.373,8.446-11.203l2.92,1.125c-2.653,5.004-6.475,9.935-11.366,13.86v1.46c0,1.219,0.196,1.387,1.436,1.387
			H65.44L65.44,132.612z M63.299,119.735c-1.411-1.15-3.895-3.014-5.792-4.308l1.874-2.083c1.972,1.244,4.431,3.015,5.818,4.068
			L63.299,119.735z M70.211,121.434c1.535,2.25,3.068,5.17,3.675,7.133l-2.774,1.388c-0.56-1.986-2.069-5.05-3.505-7.3
			L70.211,121.434z"/>
		<path fill="#FFFFFF" d="M84.498,130.481c-1.704,2.058-4.574,3.807-7.497,4.597c-0.413-0.695-1.29-1.796-1.899-2.346
			c2.726-0.527,5.575-1.723,7.034-3.111L84.498,130.481z M76.685,121.721c-0.292-0.549-0.78-1.197-1.167-1.531
			c4.282-1.077,4.72-2.896,4.868-6.821h2.531c-0.049,1.65-0.194,3.063-0.536,4.259c1.119,0.623,2.556,1.533,3.359,2.107l-1.85,1.748
			c-0.561-0.479-1.606-1.171-2.532-1.795c-0.68,0.838-1.631,1.508-2.994,2.035h9.006c-0.293-0.622-0.828-1.34-1.291-1.747
			c4.016-1.102,4.454-2.969,4.624-6.607h2.606c-0.074,1.58-0.22,2.92-0.585,4.093c1.534,0.886,3.579,2.106,4.699,2.896l-1.388,1.363
			h1.096v4.214h-2.897v-1.772H79.12v1.772h-2.776v-4.214H76.685L76.685,121.721z M77.805,118.059
			c-0.414-0.672-1.339-1.748-1.995-2.512l1.703-1.246c0.657,0.718,1.607,1.725,2.069,2.345L77.805,118.059z M88.125,128.949v6.702
			h-2.872v-6.702h-8.081v-2.489h8.081v-1.843h2.872v1.843h8.3v2.489H88.125z M82.868,117.342c0.512-0.768,1.143-1.914,1.436-2.729
			l2.361,0.767l1.414-1.03c0.608,0.647,1.435,1.556,1.849,2.108l-1.753,1.387c-0.364-0.548-1.095-1.459-1.678-2.129
			c-0.73,0.86-1.389,1.697-1.924,2.322L82.868,117.342z M94.941,121.721c-0.902-0.647-2.167-1.436-3.287-2.178
			c-0.729,0.91-1.728,1.604-3.212,2.178H94.941z M91.192,129.478c2.191,1.028,5.259,2.728,6.816,3.901l-2.215,1.795
			c-1.387-1.147-4.381-2.944-6.645-4.117L91.192,129.478z M97.618,115.331c-0.852,0.981-1.703,1.986-2.336,2.682l-1.775-0.743
			c0.559-0.788,1.264-1.938,1.605-2.75L97.618,115.331z"/>
		<path fill="#FFFFFF" d="M107.985,119.567h-8.301v-2.25h4.089c-0.438-0.886-1.216-2.06-1.874-2.968l2.166-1.172
			c0.803,0.957,1.704,2.273,2.166,3.134l-1.631,1.006h3.384L107.985,119.567L107.985,119.567z M107.354,134.408h-4.65v1.005h-2.143
			v-8.259h6.791v7.254H107.354z M107.182,122.799h-6.571v-2.156h6.571V122.799z M100.611,123.853h6.571v2.153h-6.571V123.853z
			 M102.705,129.429v2.681h2.457v-2.681H102.705z M116.456,122.965v0.888h4.723v6.03h1.168v1.986h-1.168v1.27
			c0,1.195-0.244,1.795-1.095,2.179c-0.852,0.382-2.044,0.405-3.676,0.405c-0.122-0.669-0.463-1.652-0.803-2.274
			c0.974,0.023,2.068,0.023,2.361,0.023c0.317,0,0.439-0.096,0.439-0.358v-1.246h-6.451v3.878h-2.676v-3.878h-1.291v-1.986h1.291
			v-6.03h4.528v-0.888h-5.769v-2.011h3.165v-1.053h-2.167v-1.889h2.167v-0.934h-2.751v-2.011h2.751v-1.675h2.629v1.675h2.579v-1.675
			h2.703v1.675h2.726v2.011h-2.726v0.934h2.336v1.889h-2.336v1.053h3.236v2.011H116.456z M111.954,125.837v1.102h1.852v-1.102
			H111.954z M111.954,129.883h1.852v-1.196h-1.852V129.883z M113.828,118.011h2.58v-0.934h-2.58V118.011z M113.828,120.955h2.58
			v-1.053h-2.58V120.955z M116.456,125.837v1.102h1.949v-1.102H116.456z M118.404,129.883v-1.196h-1.949v1.196H118.404z"/>
		<path fill="#FFFFFF" d="M138.873,132.732h7.74v2.441h-18.255v-2.441h7.716v-2.37h-6.184v-2.466h6.184v-2.896l-1.437,1.723
			c-0.438-0.598-1.216-1.436-2.02-2.226c-0.585,1.053-1.29,1.938-2.141,2.633c-0.415-0.408-1.387-1.102-2.021-1.508
			c-0.218,3.399-0.827,7.229-2.312,9.933c-0.512-0.478-1.776-1.316-2.458-1.604c1.897-3.398,2.045-8.4,2.045-11.92v-6.485h9.565
			c-0.268-0.574-0.559-1.125-0.875-1.604l2.774-0.862c0.536,0.766,1.047,1.652,1.436,2.468h7.814v2.632h-17.867v3.879
			c0,1.028-0.024,2.177-0.097,3.398c1.801-1.365,2.726-3.591,3.091-6.175l2.604,0.263c-0.146,0.957-0.341,1.843-0.608,2.658
			c0.925,0.79,1.899,1.722,2.507,2.393v-5.625h2.799v5.864c1.437-1.341,2.288-3.281,2.653-5.552l2.58,0.311
			c-0.17,1.028-0.439,2.011-0.78,2.873c1.242,0.98,2.581,2.059,3.336,2.825l-1.631,1.843c-0.583-0.646-1.655-1.628-2.702-2.537
			c-0.585,0.933-1.289,1.748-2.094,2.394c-0.267-0.287-0.828-0.765-1.362-1.148v2.058h6.402v2.467h-6.402V132.732z"/>
	</g>
</g>
</svg>
