<?xml version="1.0" encoding="utf-8"?>
<!-- Generator: Adobe Illustrator 16.0.4, SVG Export Plug-In . SVG Version: 6.00 Build 0)  -->
<!DOCTYPE svg PUBLIC "-//W3C//DTD SVG 1.1//EN" "http://www.w3.org/Graphics/SVG/1.1/DTD/svg11.dtd">
<svg version="1.1" id="圖層_1" xmlns="http://www.w3.org/2000/svg" xmlns:xlink="http://www.w3.org/1999/xlink" x="0px" y="0px"
	 width="400px" height="150px" viewBox="63.5 107.854 400 150" enable-background="new 63.5 107.854 400 150" xml:space="preserve">
<g id="圖層_1_拷貝" display="none">
	<g display="inline">
		<path fill="#D8AC66" d="M81.758,41.891l12.026,8.28c-0.525,0.662-1.668,1.49-3.512,1.821v42.564
			c0,7.121-1.579,12.008-15.889,13.497c0-8.611-4.303-10.6-11.414-11.592v-0.91h13.432c0.967,0,1.406-0.332,1.406-1.242V49.095
			H31.806v54.324c0,0.414-1.669,4.802-12.466,4.802V42.717l13.433,5.051h12.026c0.967-5.549,1.843-13.166,2.282-18.383l18.875,4.056
			c-0.264,1.076-1.051,1.575-3.511,1.575c-3.776,3.56-9.747,8.694-15.452,12.752h29.936L81.758,41.891z M74.997,64.828
			c-0.612,0.662-1.755,1.407-3.511,1.822v22.854c0,0.083-2.984,2.981-11.677,2.981v-7.37H49.451v5.715
			c0,0.247-1.843,3.975-11.414,3.975V58.12l11.765,4.388h9.13l4.301-5.381L74.997,64.828z M49.452,83.792h10.359V63.834H49.452
			V83.792z"/>
		<path fill="#D8AC66" d="M120.113,64.662c4.565-0.579,9.394-1.325,14.225-1.988l0.088,0.745c-3.514,2.154-8.166,4.804-14.312,7.868
			v23.02c0,7.454-1.756,12.755-14.571,13.913c-0.175-7.785-1.404-10.434-8.778-11.511v-1.077h9.92c0.877,0,1.142-0.33,1.142-1.16
			V77.166l-4.479,2.071c-0.525,1.076-1.579,1.905-2.719,2.153l-5.006-13.829c2.636-0.249,6.937-0.745,12.205-1.325V51.829
			l6.144,0.413c1.931-4.473,3.951-10.848,5.18-14.906H97.028L96.59,36.01h21.859l6.146-5.712l10.009,8.943
			c11.325-2.815,24.143-6.957,31.166-10.103l11.326,10.849c-0.616,0.413-1.406,0.663-2.372,0.663c-1.141,0-2.457-0.332-3.951-0.913
			c-5.266,0.663-12.027,1.16-19.225,1.491l7.725,2.649c-0.437,1.16-1.667,1.657-3.687,1.575c-3.424,3.312-7.287,6.541-11.062,9.109
			c2.811,1.655,3.951,3.726,3.951,5.631c0,3.147-2.984,5.962-6.321,5.962c-1.494,0-3.073-0.578-4.479-1.821
			c-0.704-4.389-3.423-9.523-6.848-12.422l0.525-0.497c4.039,0.249,7.286,0.828,9.747,1.656c0.966-3.312,2.02-7.453,2.897-11.509
			c-4.565,0.082-9.217,0.166-13.607,0.082c-3.776,3.395-8.868,7.619-13.521,10.849l6.585,0.415
			c-0.088,0.993-0.525,1.656-3.337,1.987v9.768H120.113z M174.28,53.979c-0.351,0.579-0.876,0.91-1.843,0.91
			c-0.526,0-1.14-0.166-1.843-0.332c-5.443,5.217-13.605,11.509-22.122,16.81c5.178,0,10.885,0,16.679-0.082
			c-1.229-2.153-2.807-4.141-4.564-5.631l0.525-0.498c14.046,1.574,18.612,6.791,18.612,11.097c0,3.478-2.983,6.376-6.497,6.376
			c-1.578,0-3.247-0.579-4.739-1.987c-0.264-2.236-0.967-4.638-2.021-6.957c-2.194,0.663-4.566,1.325-7.287,2.07v29.232
			c0,0.579-3.862,3.063-10.271,3.063h-2.372V89.501h-0.526c-5.529,7.784-12.818,12.917-20.719,16.064l-0.877-0.746
			c4.214-4.801,8.34-13.333,10.708-22.275l11.414,4.306v-7.866c-3.423,0.828-7.199,1.738-11.237,2.649
			c-0.614,1.076-1.667,1.657-2.72,1.822l-5.004-12.256c3.513,0.083,9.132,0.166,15.98,0.166
			c6.583-7.619,13.255-17.224,17.293-24.345L174.28,53.979z M160.848,83.625c13.959,3.147,18.611,9.026,18.611,13.747
			c0,3.892-3.162,6.956-6.759,6.956c-1.757,0-3.6-0.746-5.18-2.402c-0.264-6.046-3.074-13.416-7.286-17.804L160.848,83.625z"/>
		<path fill="#D8AC66" d="M250.475,59.61l12.992,8.778c-0.702,0.91-1.842,1.159-4.39,1.159h-30.549v23.934
			c0,7.701-2.107,13.414-17.47,14.739c-0.176-8.778-3.688-11.015-13.258-12.254V94.97h15.716c1.141,0,1.58-0.498,1.58-1.489V69.547
			h-34.68l-0.437-1.325h35.117v-14.74l11.674,0.744c4.126-4.388,8.781-10.848,11.414-15.072h-50.042l-0.437-1.325h50.218
			l7.199-6.542l11.761,10.435c-0.788,0.828-1.668,1.076-3.688,1.241c-6.406,3.892-15.012,8.198-23.174,11.51l1.756,0.083
			c-0.175,1.076-0.528,1.656-3.248,2.071v11.594h14.837L250.475,59.61z"/>
		<path fill="#D8AC66" d="M334.568,73.025l12.113,8.198c-0.701,0.91-1.846,1.16-4.303,1.16h-78.57l-0.44-1.326h16.242V36.919
			l13.695,3.891c11.5-3.312,23.701-7.865,30.555-11.426l11.76,10.434c-0.521,0.413-1.312,0.663-2.367,0.663
			c-1.057,0-2.285-0.25-3.861-0.747c-9.48,1.906-23.885,3.479-37.312,4.059v11.262h33.096l6.496-7.867l11.939,8.033
			c-0.615,0.91-1.932,1.159-4.305,1.159h-13.518v24.677h2.193L334.568,73.025z M301.82,90.996c-0.348,0.582-0.965,0.994-2.191,0.994
			c-0.354,0-0.791,0-1.23-0.082c-7.465,6.625-19.752,13.084-33.449,16.231l-0.438-0.995c10.099-6.208,19.229-16.396,23.441-24.096
			L301.82,90.996z M292.078,56.381v24.676h20.98V56.381H292.078z M311.303,86.11c24.229,0.745,32.043,9.193,32.043,15.319
			c0,3.726-2.717,6.542-6.494,6.542c-1.229,0-2.547-0.248-3.951-0.993c-4.652-7.618-13.164-15.735-21.943-20.123L311.303,86.11z"/>
		<path fill="#D8AC66" d="M346.848,52.572c13.344,0.331,17.824,4.637,17.824,8.446c0,3.229-3.16,6.21-6.674,6.21
			c-1.58,0-3.16-0.579-4.652-1.905c-0.879-4.472-3.422-9.357-6.934-12.257L346.848,52.572z M353.17,83.129
			c1.492,0,1.844,0,2.896-1.74c2.283-3.395,2.283-3.395,20.631-40.079l1.229,0.331c-4.389,13.084-12.814,38.258-12.814,44.22v0.332
			c0.176,4.638,4.123,6.956,4.123,13.912c0,6.461-5.355,8.116-8.779,8.116c-2.371,0-5.002-0.994-5.969-4.306
			c0.791-3.726,1.229-7.372,1.229-10.353c0-6.375-1.143-8.694-6.674-8.943v-1.49c3.162,0,4.127-0.083,4.127-0.083L353.17,83.129
			L353.17,83.129z M351.592,31.291c14.307,0.166,18.963,4.719,18.963,8.776c0,3.312-3.076,6.21-6.674,6.21
			c-1.494,0-3.16-0.497-4.652-1.738c-1.312-4.556-4.389-9.689-8.074-12.754L351.592,31.291z M419.189,59.61l11.414,8.447
			c-0.705,0.91-1.934,1.159-4.307,1.159h-31.689l12.902,4.141c-0.438,1.075-1.4,1.821-3.861,1.738
			c-4.738,6.459-10.271,12.422-15.977,17.143c7.109-0.084,15.711-0.25,24.578-0.497c-1.404-4.057-3.424-7.95-5.793-10.931
			l0.701-0.415c16.154,5.134,21.512,12.834,21.512,18.632c0,4.803-3.6,8.364-7.729,8.364c-2.02,0-4.127-0.911-6.061-2.815
			c-0.174-3.229-0.705-6.708-1.754-10.103c-7.023,2.899-16.945,6.294-31.342,10.684c-0.705,1.076-1.842,1.738-2.898,1.905
			l-6.758-14.74h11.852c2.021-6.128,4.391-15.154,6.23-23.104h-18.174l-0.352-1.325h21.512V48.93h-15.805l-0.354-1.326h16.156
			V29.386l16.592,1.49c-0.176,1.076-0.879,1.74-3.336,2.071v14.656h3.6l6.057-7.95l11.062,8.115
			c-0.703,0.911-1.93,1.161-4.303,1.161h-16.416v18.963h6.494L419.189,59.61z"/>
		<path fill="#D8AC66" d="M497.838,71.537c0.264-2.32,0.705-6.045,0.969-8.777h-55.924c0.354,1.242,0.439,2.484,0.439,3.561
			c0,7.122-6.322,7.95-7.641,7.95c-3.247,0-5.439-2.402-5.439-5.053c0-1.987,1.312-4.14,4.301-5.547
			c2.457-0.911,4.654-3.479,4.564-7.288l1.055-0.083c0.789,1.324,1.404,2.568,1.844,3.809l-0.615-26.581l10.357,1.655
			c2.721-2.07,5.445-4.471,6.85-5.962l7.727,5.382c1.93,0,3.598,0.084,5.002,0.331c1.143-1.656,2.193-3.394,2.898-4.968l8.16,3.892
			c-0.262,0.497-0.785,0.744-1.578,0.744c-0.352,0-0.787-0.082-1.314-0.166c-0.615,0.829-1.402,1.657-2.371,2.568
			c1.844,1.241,2.637,2.816,2.637,4.141c0,1.822-1.316,3.312-3.25,3.312c-0.613,0-1.312-0.166-2.016-0.497
			c-0.705-0.91-1.584-1.905-2.637-2.815c-2.725,1.822-5.797,3.312-8.693,4.389l-0.174-0.248c-0.701,0.248-1.668,0.332-2.896,0.332
			h-7.461l0.176,7.452h1.402l3.336-4.387l6.498,4.637c-0.615,0.91-1.844,1.076-3.863,1.076h-7.287l0.178,7.038h36.08l0.354-7.038
			h-6.852l-0.438-1.326h7.289l0.351-7.452h-6.761l-0.438-1.326h7.284l0.263-7.536h-8.076l-0.437-1.325h7.728l4.562-5.135
			l11.15,7.701c-0.701,0.747-1.402,1.077-3.248,1.325l-0.703,19.129l2.986-2.816l10.443,9.522c-0.701,0.663-1.492,0.91-3.332,0.994
			c-3.336,1.74-9.043,4.389-12.73,5.878L497.838,71.537z M494.943,86.192l6.055-7.95l11.062,8.115
			c-0.701,0.91-1.846,1.16-4.303,1.16h-29.496v6.874c0,7.535-1.846,12.751-15.449,13.909c0-8.692-3.604-10.682-10.537-11.51v-1.077
			h12.293c0.965,0,1.312-0.33,1.312-1.158v-7.039H431.91l-0.354-1.325h34.326v-6.044l7.199,0.413
			c2.457-2.484,5.354-5.714,7.285-8.032h-32.043l-0.439-1.325h32.66l6.586-5.879l10.797,9.688c-0.703,0.744-1.578,0.91-3.512,1.076
			c-4.654,1.407-11.412,3.228-17.471,4.637l4.479,0.249c-0.088,0.993-0.438,1.491-3.16,1.822v3.394h16.682L494.943,86.192
			L494.943,86.192z M457.455,40.15l5.445,3.725c2.018-1.49,3.949-3.394,5.707-5.383c-1.318-0.993-2.637-1.904-3.949-2.65
			c-2.721,0.746-7.551,1.657-12.205,2.153l0.176,6.294h1.492L457.455,40.15z M464.828,48.93c2.984,0,5.445,0.249,7.465,0.746
			c1.227-1.656,2.279-3.313,3.07-4.969l8.256,3.727c-0.354,0.497-0.881,0.829-1.756,0.829c-0.354,0-0.705-0.083-1.146-0.166
			c-0.787,0.994-1.668,1.987-2.719,2.981c1.842,1.325,2.543,2.981,2.543,4.388c0,1.987-1.492,3.643-3.512,3.643
			c-0.787,0-1.58-0.165-2.373-0.662c-0.611-0.994-1.49-2.071-2.455-3.146c-3.164,1.905-6.846,3.478-10.445,4.389l-0.789-1.16
			c2.984-1.49,5.795-3.726,8.25-6.209c-1.578-1.408-3.25-2.65-4.824-3.561L464.828,48.93z"/>
		<path fill="#D8AC66" d="M114.049,135.899l19.497,12.736c-1.091,1.416-2.863,1.803-6.818,1.803H85.143l23.588,5.658
			c-0.545,1.545-1.773,2.314-5.319,2.187c-5.317,5.021-13.769,11.709-21.814,16.854h21.134l7.365-9.009l18.816,12.738
			c-0.821,1.029-2.591,2.314-5.457,2.83v49.656c0,10.034-2.043,17.366-22.633,19.555c0-11.578-4.09-14.408-8.862-15.824
			c-6,2.572-12.135,2.572-15.544,2.572v-7.33H60.463v4.115c0,0.258-2.59,5.791-17.044,5.791v-37.693
			c-3,1.416-6.407,2.701-10.089,3.859v37.438c0,0.641-2.862,6.943-19.088,6.943v-83.23l20.588,7.592h43.632
			c1.773-7.203,3.544-17.496,4.499-24.7H5.106l-0.681-2.055h53.719v-19.943l25.225,2.317c-0.271,1.671-1.5,2.573-5.18,3.087v14.54
			h25.359L114.049,135.899z M33.328,177.195v26.5c8.454-6.047,10.909-15.051,11.591-26.5H33.328z M35.238,150.825
			c17.589,3.086,23.453,9.262,23.453,14.534c0,5.019-5.181,9.136-10.771,9.136c-3.138,0-6.271-1.287-8.59-4.375
			c0.271-6.304-1.637-14.022-5.046-18.651L35.238,150.825z M72.051,177.195h-9.135c-2.181,10.55-7.499,18.138-16.5,23.671
			l14.726,5.401h14.044l4.363-5.401c-6.137-1.287-7.5-5.275-7.5-15.054v-8.617H72.051z M60.462,228.27h15.954V208.33H60.462V228.27z
			 M93.732,232.514h8.863c1.09,0,1.5-0.388,1.5-1.673v-33.705c-1.773,2.574-5.182,4.246-10.771,4.246h-8.181l12.953,8.231
			c-0.682,0.771-2.181,1.804-4.362,2.188v20.711h-0.002V232.514z M104.094,177.195H88.415v9.005c0,2.446,0,2.446,1.227,2.446h4.499
			c2.182,0,3.546-3.475,5.045-7.85h1.227v6.562c1.775,0.771,2.864,1.412,3.683,1.929v-12.093H104.094L104.094,177.195z"/>
		<path fill="#D8AC66" d="M262.404,211.675c-0.953,1.541-2.729,1.8-6.542,1.8h-44.315c11.728,8.745,33.135,14.536,51.54,16.338
			l-0.138,1.414c-6.543,1.674-11.453,7.203-13.225,15.438c-19.223-6.432-32.588-17.367-41.314-33.188H208v33.316
			c-0.135,0.902-5.996,4.117-16.088,4.117h-3.683v-26.5c-13.36,10.164-32.313,17.496-53.719,22.387l-0.817-1.932
			c17.589-7.717,32.315-19.555,40.769-31.387h-38.859l-0.683-2.062h53.31v-14.793h-37.767l-0.682-2.06h38.448v-14.021h-44.584
			l-0.682-2.061h33.268c-2.317-0.385-4.636-1.672-6.408-3.984c0.137-1.031,0.271-2.061,0.271-3.088c0-4.893-1.637-10.162-4.5-13.378
			l0.955-0.646c16.499,2.313,22.087,7.719,22.087,12.606c0,4.116-3.954,7.719-8.589,8.489h29.314
			c2.046-6.305,3.546-15.18,4.228-21.481l23.998,5.529c-0.409,1.545-1.772,2.315-5.183,2.188
			c-4.771,4.503-12.137,9.776-19.633,13.767h16.499l9.271-10.551l17.179,10.81c-1.089,1.543-2.862,1.801-6.543,1.801h-41.176v14.021
			H226l8.725-10.029l16.5,10.289c-0.954,1.543-2.861,1.801-6.407,1.801h-36.816v14.793h27.271l9.545-11.064L262.404,211.675z
			 M136.693,156.741l-0.682-2.058h24.951c-1.636-0.516-3.272-1.547-4.772-3.217c0.409-6.435-2.043-14.023-6.68-18.269l0.817-0.771
			c17.861,1.929,23.724,8.104,23.724,13.508c0,3.986-3.134,7.588-7.226,8.749h9.681v-26.246l22.359,2.059
			c-0.271,1.414-1.229,2.315-4.636,2.702v21.484H202v-26.246l22.635,2.059c-0.272,1.414-1.364,2.315-4.636,2.702v21.484h2.86
			c2.316-6.435,4.5-15.698,5.592-22.128l23.454,6.175c-0.411,1.544-1.776,2.188-5.185,2.059c-4.908,4.5-12.955,9.902-20.59,13.896
			h10.225l9.002-10.037l16.906,10.294c-0.954,1.541-2.724,1.8-6.405,1.8H136.693V156.741z"/>
		<path fill="#D8AC66" d="M320.637,154.812c1.229-1.676,2.998-2.962,5.045-3.858c3.818-1.676,8.043-6.435,7.498-11.063h1.773
			c2.592,5.272,3.547,9.903,3.547,13.763c0,5.791-2.729,12.479-10.635,12.479c-5.047,0-8.729-2.832-8.729-7.075
			c0-1.027,0.273-1.929,0.548-2.83c-1.095,0.514-2.591,0.643-4.91,0.643H263.37l-0.546-2.057H299.5l7.502-9.648L320.637,154.812z
			 M317.771,209.1c-0.818,0.899-2.316,1.93-4.908,2.313v29.2c0,0.259-4.229,4.505-17.182,4.505v-9.648H286v8.619
			c0,0.386-2.453,5.92-17.043,5.92v-51.073l17.59,6.69h7.906l6.137-7.72L317.771,209.1z M300.592,162.146l13.773,9.774
			c-0.955,1.414-3.004,1.802-6.271,1.802h-38.043l-0.682-2.058h23.859L300.592,162.146z M293.229,188.518l7.363-9.521l13.773,9.777
			c-0.955,1.416-3.004,1.803-6.271,1.803h-38.043l-0.682-2.059H293.229z M315.045,138.73c-0.953,1.417-2.998,1.802-6.271,1.802
			h-38.041l-0.682-2.059h23.316l7.5-9.777L315.045,138.73z M286.002,233.413h9.682v-25.729h-9.682V233.413z M366.721,184.271
			c-0.137,1.67-1.092,2.574-5.182,3.088c0.818,9.904,2.727,18.009,6.547,24.695c1.635-7.459,3.133-15.82,3.68-20.322l23.727,9.646
			c-0.82,1.285-2.318,2.059-5.043,1.672c-3.957,3.475-11.596,9.52-18.82,14.281c5.047,6.303,12.408,10.936,22.359,14.021v1.545
			c-8.861,2.187-13.635,7.72-14.723,18.396c-12-7.976-16.5-26.115-18.545-47.599h-0.137c-2.043,21.74-9.951,37.177-49.223,47.211
			l-1.09-1.674c33.949-15.692,32.312-36.276,32.453-66.638L366.721,184.271z M333.18,193.02c3.135,6.174,4.496,11.578,4.496,16.08
			c0,7.848-4.361,13.766-11.859,13.766c-5.18,0-9.135-2.959-9.135-7.334c0-3.855,3.271-6.818,6.953-8.359
			c4.361-2.059,8.59-7.721,7.771-14.021L333.18,193.02z M392.49,147.864c-0.545,0.902-1.5,1.543-3.137,1.543
			c-0.545,0-1.092,0-1.639-0.129c-4.225,3.217-12.543,8.621-19.904,12.611c16.635,3.471,22.496,10.933,22.496,17.107
			c0,5.4-4.361,9.773-9.682,9.773c-2.045,0-4.363-0.771-6.545-2.312c-2.998-7.72-8.998-16.338-15.814-22.515
			c-5.047,11.578-15.816,20.711-40.223,27.272l-1.096-1.675c28.771-14.535,27.406-33.575,27.543-60.718l23.449,1.673
			c-0.271,1.673-1.09,2.574-5.043,3.087c-0.408,10.035-0.816,19.039-3.406,27.017c1.771,0.129,3.543,0.387,5.18,0.646
			c2.455-7.336,5.32-17.756,6.271-23.03L392.49,147.864z"/>
		<path fill="#D8AC66" d="M440.631,202.28l8.59-11.576l15.682,11.834c-0.953,1.416-2.996,1.803-6.543,1.803h-21.404v40.007
			c0,1.803-8.318,6.305-15.678,6.305h-3.686v-46.312h-24.543l-0.547-2.062h25.09v-25.342h-22.633l-0.547-2.059h23.18v-46.312
			l24.678,2.187c-0.27,1.801-1.361,2.959-5.314,3.345v40.778h1.771l8.592-11.576l15.68,11.834c-0.955,1.414-3,1.801-6.547,1.801
			h-19.496v25.342h3.678L440.631,202.28L440.631,202.28z M397.41,135.642c12.814,6.562,17.178,13.895,17.178,19.684
			c0,6.178-4.908,10.549-10.086,10.549c-2.727,0-5.592-1.285-7.637-4.5c1.094-3.475,1.502-7.336,1.502-11.192
			c0-5.146-0.818-10.162-2.453-14.024L397.41,135.642z M467.355,141.303c-0.549,1.675-1.908,2.702-5.59,2.96
			c-6.002,7.205-12.953,15.18-19.09,20.713l-1.91-0.771c0.818-6.944,2.047-18.91,3-28.815L467.355,141.303z M490.26,147.093
			c-0.135,1.801-1.225,2.83-5.043,3.346v64.834c0,0.129-3.408,4.631-19.09,4.631v-74.74L490.26,147.093z M497.76,129.728
			l24.814,1.928c-0.135,1.674-0.816,2.832-5.318,3.475v94.039c0,11.576-2.859,20.326-23.996,22.127
			c0-12.865-3.814-16.467-15.814-18.267v-1.675h18.271c1.498,0,2.043-0.644,2.043-2.06L497.76,129.728L497.76,129.728z"/>
	</g>
	<g display="inline">
		<path fill="#DCDCDD" d="M16.124,273.521c0.959,0.35,1.453,0.668,1.453,1.018c0,0.116-0.058,0.174-0.174,0.23
			c0.755,0.06,1.627,0.088,2.673,0.088h1.25v-1.336c0-0.785-0.087-1.599-0.232-2.412c1.22,0.117,2.412,0.291,3.574,0.494
			c0.697,0.059,1.075,0.231,1.075,0.552c0,0.116-0.232,0.29-0.64,0.493c-0.494,0.205-0.726,0.466-0.726,0.757v1.452h1.714
			c0.058,0,0.349-0.349,0.9-0.986c0.639-0.757,1.017-1.163,1.133-1.163c0.32,0,0.843,0.378,1.541,1.133
			c0.697,0.757,1.075,1.192,1.075,1.366c0,0.32-0.175,0.465-0.465,0.465h-5.898v2.15h1.366c0.058-0.028,0.291-0.319,0.755-0.901
			c0.523-0.668,0.843-1.017,0.959-1.017c0.291,0,0.755,0.349,1.395,1.017c0.639,0.697,0.988,1.104,0.988,1.25
			c0,0.291-0.174,0.437-0.464,0.437h-4.998v2.5h2.063c0,0,0.261-0.291,0.785-0.901c0.697-0.813,1.133-1.249,1.366-1.249
			c0.203,0,0.813,0.465,1.801,1.395c0.61,0.58,0.93,0.959,0.93,1.104c0,0.32-0.204,0.465-0.581,0.465H16.095
			c-0.058,0.232-0.175,0.32-0.349,0.32h-3.749v2.119c1.453,0.554,2.499,1.048,3.109,1.482c0.64,0.494,0.988,0.932,0.988,1.278
			c0,0.757-0.204,1.366-0.61,1.86c-0.378,0.522-0.813,0.756-1.308,0.756c-0.262,0-0.465-0.06-0.639-0.203
			c-0.174-0.146-0.349-0.641-0.523-1.512c-0.175-0.64-0.523-1.396-1.017-2.209v10.955c0,0.349-0.436,0.64-1.308,0.843
			c-0.407,0.059-0.668,0.087-0.843,0.087c-0.697,0-1.017-0.319-1.017-0.93c0.145-1.742,0.233-3.312,0.233-4.767v-4.067
			c-0.698,1.365-1.308,2.383-1.86,3.08c-0.582,0.844-1.25,1.599-2.005,2.237l-0.465-0.231c1.743-3.721,2.964-7.322,3.661-10.78
			c-1.511,0-2.557,0.059-3.196,0.116l-0.465-1.133c0.93,0.174,2.237,0.23,3.981,0.23h0.349v-5.463c0-1.859-0.088-3.486-0.233-4.881
			c0.872,0.087,1.947,0.23,3.284,0.464c0.901,0.116,1.365,0.319,1.365,0.581c0,0.291-0.29,0.522-0.872,0.697
			c-0.407,0.116-0.61,0.349-0.61,0.668v7.934h0.465c0.058-0.029,0.291-0.29,0.697-0.755c0.494-0.552,0.785-0.845,0.901-0.845
			c0.232,0,0.639,0.293,1.191,0.873c0.116,0.174,0.232,0.291,0.349,0.379h5.725v-2.5h-0.581c-1.656,0-2.819,0.059-3.516,0.115
			l-0.436-1.133c0.901,0.176,2.208,0.232,3.952,0.232h0.581v-2.15h-1.25c-1.686,0-2.848,0.059-3.516,0.116l-0.261-0.64
			c-0.117,0.059-0.175,0.115-0.204,0.175c-0.843,1.569-1.976,2.993-3.4,4.301l-0.465-0.32c0.813-2.004,1.337-4.241,1.598-6.712
			C14.643,272.882,15.427,273.2,16.124,273.521z M7.9,275.787c0.523,0.812,0.814,1.568,0.814,2.267c0,0.581-0.116,0.988-0.349,1.191
			c-0.32,0.349-0.668,0.494-1.017,0.494c-0.465,0-0.843-0.146-1.133-0.438c-0.262-0.202-0.378-0.812-0.378-1.829
			c0-1.076-0.232-2.354-0.639-3.865l0.348-0.088C6.535,274.218,7.319,274.975,7.9,275.787z M20.396,284.186h5.23
			c0.291-0.291,0.494-0.522,0.668-0.697c0.523-0.522,0.93-0.785,1.163-0.785c0.291,0,0.9,0.35,1.83,0.988
			c0.873,0.697,1.337,1.162,1.337,1.396c0,0.203-0.232,0.465-0.639,0.784c-0.581,0.378-0.843,0.727-0.843,1.018v7.961
			c0,0.932-0.552,1.629-1.598,2.15c-0.872,0.378-1.569,0.581-2.15,0.581c-0.203,0-0.377-0.377-0.522-1.075
			c-0.233-0.842-1.075-1.539-2.529-2.12l0.117-0.553c1.22,0.231,2.179,0.319,2.935,0.319c0.465,0,0.698-0.291,0.698-0.9v-1.686
			h-6.48v5.201c0,0.349-0.494,0.64-1.453,0.843c-0.436,0.059-0.755,0.087-0.93,0.087c-0.61,0-0.901-0.319-0.901-0.93
			c0.058-1.018,0.116-2.006,0.116-3.052v-6.827c0-1.426-0.087-2.82-0.232-4.187C17.548,283.052,18.943,283.546,20.396,284.186z
			 M26.091,287.236v-2.268h-6.48v2.268H26.091z M26.091,290.752v-2.702h-6.48v2.702H26.091z"/>
		<path fill="#DCDCDD" d="M42.799,271.429c0.64,0.058,0.988,0.204,0.988,0.494c0,0.115-0.204,0.261-0.581,0.437
			c-0.465,0.203-0.669,0.437-0.669,0.697v0.9h1.831c0.058,0,0.349-0.35,0.901-1.018c0.639-0.756,1.017-1.133,1.133-1.133
			c0.32,0,0.843,0.377,1.541,1.104c0.697,0.756,1.075,1.221,1.075,1.395c0,0.291-0.175,0.438-0.465,0.438H37.655
			c-1.656,0-2.818,0.058-3.516,0.115l-0.436-1.133c0.901,0.174,2.208,0.232,3.952,0.232h2.062v-0.668
			c0-0.729-0.087-1.482-0.232-2.268C40.62,271.139,41.724,271.254,42.799,271.429z M38.615,276.107h4.62
			c0.261-0.351,0.494-0.642,0.726-0.873c0.204-0.231,0.407-0.377,0.64-0.377c0.262,0,0.755,0.262,1.482,0.785
			c0.813,0.551,1.22,0.928,1.22,1.161c0,0.175-0.145,0.349-0.377,0.522c-0.233,0.175-0.378,0.318-0.407,0.494v1.918
			c0,0.349-0.436,0.58-1.279,0.726c0.291,0.146,0.698,0.407,1.191,0.785c0.813,0.64,1.22,1.134,1.22,1.452
			c0,0.204-0.319,0.35-0.93,0.406c-0.697,0.06-1.104,0.146-1.22,0.264c-0.901,0.404-1.86,0.727-2.848,1.018v0.492
			c1.86-0.115,3.633-0.232,5.347-0.377l0.116,0.348c-1.801,0.641-3.604,1.164-5.463,1.569v2.761c0,1.135-0.436,1.891-1.278,2.268
			c-0.785,0.291-1.424,0.437-1.889,0.437c-0.203,0-0.378-0.291-0.523-0.872c-0.174-0.697-1.046-1.365-2.557-2.062l0.116-0.467
			c0.93,0.232,1.686,0.35,2.267,0.35c0.755,0,1.133-0.174,1.133-0.581v-1.221c-1.104,0.233-2.208,0.407-3.313,0.553
			c-0.436,0.028-0.639,0.115-0.639,0.231c-0.059,0.088-0.088,0.203-0.088,0.319c-0.058,0.232-0.145,0.349-0.261,0.349
			c-0.32,0-0.697-0.551-1.104-1.655c-0.116-0.291-0.319-0.813-0.61-1.511c2.092-0.06,4.097-0.146,6.015-0.262v-0.088
			c0-0.378-0.087-1.104-0.204-2.15c0.872,0.146,1.743,0.35,2.646,0.582l0.872-1.047h-5.58c-1.104,0-2.063,0.088-2.818,0.232
			l-0.465-1.365c1.162,0.231,2.267,0.348,3.283,0.348h5.347c0.407-0.348,0.755-0.64,1.045-0.87c0.059-0.06,0.146-0.087,0.233-0.146
			c-0.407-0.059-0.611-0.291-0.611-0.698h-5.202v0.233c0,0.349-0.464,0.581-1.336,0.697c-0.378,0.058-0.669,0.087-0.843,0.087
			c-0.523,0-0.785-0.262-0.785-0.784c0.058-0.465,0.116-0.987,0.116-1.599v-1.338c0-0.609-0.087-1.336-0.233-2.178
			C36.435,275.264,37.51,275.643,38.615,276.107z M38.585,291.77c0,1.859-0.117,3.108-0.319,3.777
			c-0.233,0.727-0.639,1.249-1.22,1.568c-0.349,0.146-0.698,0.232-1.075,0.232c-0.611,0-1.104-0.174-1.512-0.522
			c-0.377-0.32-0.552-0.755-0.552-1.308c0-0.232,0.349-0.522,1.104-0.873c0.813-0.349,1.424-0.726,1.889-1.162
			c0.436-0.406,0.813-0.987,1.104-1.801L38.585,291.77z M43.67,279.071v-2.151h-5.202v2.151H43.67z M45.269,293.426
			c0.523,0.553,0.785,1.075,0.785,1.54c0,0.843-0.175,1.425-0.494,1.743c-0.437,0.494-0.901,0.756-1.424,0.756
			c-0.378,0-0.669-0.146-0.901-0.379c-0.232-0.202-0.32-0.755-0.32-1.627c0-0.929-0.174-2.033-0.494-3.342l0.464-0.231
			C43.874,292.352,44.659,292.873,45.269,293.426z M50.47,276.339c0-0.465,0.029-0.899,0.029-1.364c0-1.018-0.087-2.326-0.233-3.953
			c0.901,0.146,1.802,0.319,2.674,0.494c1.162,0.232,1.743,0.494,1.743,0.756c0,0.203-0.232,0.406-0.697,0.582
			c-0.407,0.146-0.64,0.318-0.668,0.552c0,1.104-0.029,2.092-0.029,2.935h0.958c0.174-0.23,0.407-0.494,0.698-0.755
			c0.407-0.407,0.697-0.61,0.872-0.61c0.291,0,0.872,0.35,1.743,1.047c0.727,0.64,1.104,1.074,1.104,1.336
			c0,0.175-0.262,0.466-0.726,0.843c-0.349,0.379-0.523,0.64-0.523,0.757c0,3.079,0.087,5.316,0.291,6.712
			c0.174,1.046,0.436,1.569,0.727,1.569c0.203,0,0.609-1.162,1.249-3.518l0.581,0.116c-0.319,2.093-0.465,3.312-0.465,3.633
			c0,0.755,0.116,1.308,0.407,1.714c0.174,0.465,0.262,0.785,0.262,1.019c0,0.203-0.117,0.407-0.291,0.581
			c-0.232,0.23-0.436,0.32-0.61,0.32c-0.872,0-1.715-0.291-2.499-0.873c-0.755-0.522-1.308-1.453-1.686-2.848
			c-0.552-1.802-0.813-5.23-0.813-10.229H53.29c-0.058,2.412-0.175,4.039-0.291,4.854c-0.058,0.262-0.117,0.493-0.175,0.668
			c0.465,0.407,0.843,0.785,1.133,1.192c0.407,0.581,0.61,1.161,0.61,1.771c0,0.467-0.174,0.844-0.465,1.163
			c-0.291,0.377-0.61,0.552-0.988,0.552c-0.291,0-0.755-0.522-1.453-1.627c-0.058,0.088-0.087,0.146-0.117,0.202
			c-0.581,1.019-1.424,1.978-2.557,2.849c-1.075,0.844-2.731,1.656-4.969,2.44l-0.232-0.465c1.627-1.017,2.993-2.18,4.068-3.517
			c0.872-1.018,1.54-2.324,2.005-3.894c0-0.028,0.029-0.06,0.029-0.088c-0.755-0.871-1.627-1.655-2.586-2.383l0.232-0.552
			c1.046,0.291,1.947,0.58,2.703,0.871c0.116-1.074,0.174-2.412,0.231-4.01c-1.279,0-2.15,0.028-2.586,0.059l-0.464-1.133
			C48.437,276.252,49.453,276.339,50.47,276.339z M51.894,293.251c0.726,0.61,1.104,1.19,1.104,1.715
			c0,0.755-0.291,1.336-0.843,1.802c-0.32,0.291-0.728,0.465-1.22,0.465c-0.233,0-0.407-0.116-0.553-0.319
			c-0.145-0.174-0.262-0.61-0.377-1.308c-0.145-0.987-0.523-2.209-1.104-3.604l0.349-0.23
			C50.412,292.234,51.284,292.729,51.894,293.251z M58.955,293.542c0.552,0.581,0.843,1.22,0.843,1.976
			c0,0.522-0.232,1.047-0.697,1.541c-0.32,0.349-0.727,0.521-1.221,0.521c-0.349,0-0.668-0.465-0.901-1.395
			c-0.349-1.338-0.9-2.615-1.714-3.836l0.233-0.465C57.125,292.408,58.287,292.961,58.955,293.542z"/>
		<path fill="#DCDCDD" d="M66.83,276.455h2.382c0.059,0,0.378-0.348,0.901-1.018c0.639-0.756,1.045-1.134,1.162-1.134
			c0.319,0,0.843,0.378,1.54,1.104c0.698,0.756,1.046,1.22,1.046,1.396c0,0.29-0.146,0.437-0.436,0.437H66.83
			c-1.656,0-2.819,0.059-3.516,0.115l-0.465-1.133C63.778,276.396,65.085,276.455,66.83,276.455z M67.846,272.939h0.698
			c0.058,0,0.291-0.291,0.727-0.844c0.522-0.64,0.843-0.986,0.958-0.986c0.291,0,0.726,0.348,1.366,0.986
			c0.61,0.641,0.93,1.047,0.93,1.192c0,0.29-0.174,0.435-0.465,0.435h-4.213c-1.656,0-2.818,0.06-3.516,0.116l-0.436-1.133
			C64.795,272.882,66.103,272.939,67.846,272.939z M67.846,280.088h1.046c0.058,0,0.319-0.349,0.842-1.017
			c0.581-0.757,0.959-1.134,1.075-1.134c0.291,0,0.785,0.377,1.482,1.104c0.668,0.755,1.017,1.22,1.017,1.395
			c0,0.291-0.174,0.437-0.465,0.437h-4.998c-1.656,0-2.818,0.058-3.516,0.116l-0.436-1.135
			C64.795,280.03,66.103,280.088,67.846,280.088z M67.963,283.953h1.133c0.059-0.029,0.349-0.35,0.872-0.96
			c0.581-0.696,0.959-1.075,1.075-1.075c0.291,0,0.755,0.379,1.395,1.075c0.639,0.696,0.988,1.134,0.988,1.308
			c0,0.291-0.175,0.438-0.465,0.438h-4.998c-1.657,0-2.819,0.058-3.517,0.115l-0.437-1.133
			C64.912,283.895,66.219,283.953,67.963,283.953z M68.108,288.05h0.785c0.378-0.465,0.755-0.901,1.104-1.249
			c0.232-0.291,0.465-0.466,0.698-0.466c0.203,0,0.726,0.263,1.54,0.728c0.93,0.639,1.424,1.074,1.424,1.308
			c0,0.262-0.204,0.522-0.552,0.784c-0.261,0.232-0.377,0.522-0.377,0.813v2.267c0,0.9,0.029,2.121,0.116,3.633
			c0,0.349-0.494,0.639-1.453,0.814c-0.436,0.058-0.755,0.086-0.929,0.086c-0.523,0-0.785-0.319-0.785-0.9v-0.668h-2.267v1.249
			c0,0.349-0.465,0.639-1.395,0.813c-0.407,0.059-0.697,0.088-0.872,0.088c-0.639,0-0.93-0.32-0.93-0.901
			c0.059-0.988,0.117-1.977,0.117-2.964v-2.849c0-1.395-0.087-2.73-0.232-4.067C65.405,286.916,66.742,287.41,68.108,288.05z
			 M69.677,294.385v-5.551H67.41v5.551H69.677z M82.724,290.084c0.407,0.697,1.017,1.336,1.831,1.946
			c1.075,0.813,2.702,1.452,4.882,1.919v0.668c-0.93,0.552-1.511,1.22-1.744,2.033c-0.232,0.523-0.436,0.813-0.639,0.813
			c-0.291,0-0.93-0.379-1.889-1.075c-0.901-0.727-1.627-1.512-2.15-2.354c-0.668-0.932-1.191-2.035-1.569-3.312
			c-0.059-0.203-0.116-0.379-0.146-0.553c-0.232,0.755-0.465,1.365-0.756,1.859c-0.697,1.337-1.831,2.5-3.341,3.486
			c-1.25,0.813-3.051,1.568-5.375,2.268l-0.233-0.436c1.569-0.814,2.964-1.744,4.126-2.818c1.046-0.901,1.917-2.122,2.557-3.633
			c0.494-1.338,0.755-2.936,0.812-4.795c0-1.453-0.059-2.645-0.116-3.633c0.901,0.116,1.802,0.291,2.673,0.465
			c1.22,0.232,1.86,0.438,1.86,0.668c0,0.232-0.204,0.465-0.581,0.668c-0.465,0.177-0.669,0.379-0.669,0.582
			c-0.116,1.222-0.261,2.267-0.436,3.139c0.116,0.523,0.291,0.988,0.522,1.396c0.319-0.465,0.639-1.018,0.958-1.599
			c0.581-0.987,1.075-2.092,1.453-3.283c0.959,0.639,1.86,1.191,2.703,1.714c0.756,0.582,1.162,0.988,1.162,1.25
			c0,0.319-0.145,0.466-0.436,0.466l-1.714-0.233C85.572,288.484,84.322,289.27,82.724,290.084z M77.494,285.202
			c0,1.976-0.087,3.342-0.204,4.067c-0.203,0.813-0.522,1.365-0.93,1.686c-0.232,0.175-0.494,0.262-0.785,0.262
			c-0.61,0-1.104-0.175-1.511-0.521c-0.349-0.291-0.523-0.728-0.523-1.309c0-0.262,0.291-0.582,0.9-0.959
			c0.668-0.378,1.191-0.814,1.569-1.309c0.349-0.436,0.668-1.104,0.93-2.033L77.494,285.202z M81.649,271.573
			c1.22,0.233,1.86,0.465,1.86,0.698c0,0.231-0.204,0.465-0.581,0.639c-0.465,0.203-0.669,0.406-0.669,0.609
			c-0.174,1.859-0.406,3.312-0.727,4.418c1.396,0.35,2.558,0.696,3.458,1.045c1.104,0.494,1.889,1.019,2.412,1.6
			c0.436,0.464,0.668,0.93,0.668,1.424c0,0.521-0.204,0.93-0.552,1.277c-0.319,0.466-0.697,0.67-1.162,0.67
			c-0.349,0-1.046-0.698-2.063-2.15c-0.843-1.047-1.859-2.006-3.08-2.877c-0.116,0.262-0.232,0.494-0.32,0.668
			c-0.581,1.135-1.481,2.121-2.702,2.993c-1.018,0.728-2.47,1.366-4.33,1.918l-0.204-0.437c1.133-0.64,2.122-1.424,2.993-2.324
			c0.756-0.756,1.366-1.743,1.86-3.021c0.349-1.104,0.552-2.44,0.581-3.98c0-1.424-0.059-2.645-0.116-3.633
			C79.876,271.227,80.777,271.398,81.649,271.573z M77.377,273.172c0,2.034-0.058,3.398-0.174,4.155
			c-0.146,0.813-0.378,1.364-0.669,1.687c-0.203,0.202-0.406,0.289-0.609,0.289c-0.611,0-1.104-0.174-1.511-0.522
			c-0.378-0.29-0.552-0.727-0.552-1.308c0-0.262,0.262-0.58,0.813-0.988c0.582-0.405,1.018-0.842,1.337-1.336
			c0.32-0.465,0.581-1.162,0.813-2.092L77.377,273.172z M83.188,277.589l-0.232-0.349c0.377-0.465,0.755-1.047,1.133-1.803
			c0.465-0.812,0.843-1.686,1.133-2.614c0.9,0.581,1.743,1.104,2.528,1.569c0.727,0.521,1.104,0.93,1.104,1.161
			c0,0.232-0.175,0.349-0.465,0.349l-1.569-0.115C85.979,276.368,84.758,276.979,83.188,277.589z"/>
		<path fill="#DCDCDD" d="M96.7,281.337h1.395c0.029-2.034,0.058-4.358,0.058-7.032c0-0.842-0.058-1.859-0.116-3.078
			c1.104,0.174,2.092,0.348,2.993,0.493c1.162,0.203,1.771,0.464,1.771,0.755s-0.261,0.553-0.726,0.727
			c-0.494,0.176-0.727,0.379-0.727,0.64c0,2.937-0.029,5.435-0.087,7.497h1.22c0.058-0.027,0.349-0.378,0.901-1.074
			c0.639-0.785,1.017-1.19,1.133-1.19c0.349,0,0.872,0.405,1.627,1.161c0.727,0.812,1.104,1.279,1.104,1.453
			c0,0.291-0.174,0.436-0.465,0.436h-5.55c-0.058,1.628-0.146,2.965-0.232,4.04c2.121-0.437,4.155-0.959,6.131-1.54l0.232,0.465
			c-2.15,1.309-4.388,2.411-6.683,3.283c-0.059,0.232-0.087,0.406-0.146,0.553c-0.61,1.801-1.424,3.312-2.441,4.475
			c-1.336,1.481-3.167,2.905-5.492,4.301l-0.465-0.465c1.424-1.221,2.586-2.5,3.458-3.952c0.728-0.987,1.308-2.267,1.772-3.776
			c-0.639,0.203-1.278,0.377-1.917,0.523c-0.465,0.058-0.698,0.174-0.698,0.404c-0.058,0.117-0.087,0.233-0.116,0.407
			c-0.058,0.263-0.174,0.378-0.319,0.378c-0.407,0-0.843-0.639-1.337-1.976c-0.174-0.349-0.407-0.96-0.727-1.772
			c1.918-0.175,3.778-0.437,5.579-0.727c0.087-1.162,0.174-2.702,0.232-4.621H96.7c-1.685,0-2.848,0.059-3.545,0.117l-0.437-1.133
			C93.62,281.279,94.957,281.337,96.7,281.337z M96.671,275.729c0.61,0.697,0.93,1.336,0.93,1.859c0,0.785-0.233,1.424-0.669,1.947
			c-0.406,0.521-0.872,0.783-1.395,0.783c-0.204,0-0.377-0.086-0.552-0.262c-0.145-0.175-0.291-0.843-0.464-1.947
			c-0.233-1.248-0.785-2.76-1.686-4.504l0.436-0.317C94.899,274.218,96.032,275.032,96.671,275.729z M106.348,273.579
			c0.813,0.291,1.249,0.552,1.249,0.843c0,0.262-0.232,0.436-0.697,0.493c-0.465,0.088-0.727,0.175-0.785,0.291
			c-0.465,0.987-1.018,1.802-1.627,2.498c-0.61,0.67-1.396,1.338-2.354,2.035l-0.349-0.319c0.523-1.104,0.93-2.121,1.221-3.052
			c0.262-0.988,0.494-2.15,0.727-3.545C104.633,273.085,105.505,273.348,106.348,273.579z M111.316,274.538
			c0.901,0.116,1.366,0.319,1.366,0.552c0,0.29-0.291,0.553-0.843,0.727c-0.407,0.117-0.61,0.319-0.61,0.64v14.181
			c0,0.377-0.465,0.67-1.336,0.844c-0.407,0.058-0.669,0.086-0.843,0.086c-0.698,0-1.017-0.289-1.017-0.93
			c0.146-1.714,0.232-3.312,0.232-4.766v-6.915c0-1.86-0.087-3.488-0.232-4.882C108.905,274.16,109.98,274.305,111.316,274.538z
			 M115.995,271.37c1.569,0.231,2.382,0.437,2.382,0.668c0,0.319-0.291,0.61-0.813,0.872c-0.349,0.115-0.553,0.349-0.553,0.697
			v19.76c0,1.831-0.436,3.021-1.307,3.545c-0.959,0.581-1.686,0.872-2.208,0.872c-0.291,0-0.552-0.349-0.727-0.988
			c-0.291-1.104-1.599-1.976-3.923-2.731l0.087-0.696c1.279,0.231,2.383,0.349,3.312,0.349c0.582,0,0.988-0.087,1.279-0.261
			c0.174-0.116,0.291-0.407,0.291-0.873v-16.911c0-1.801-0.087-3.342-0.203-4.648C114.484,271.139,115.269,271.254,115.995,271.37z"
			/>
		<path fill="#DCDCDD" d="M133.139,293.191c-1.221,1.135-2.731,1.687-4.504,1.687c-2.208,0-3.923-0.842-5.114-2.586
			c-1.046-1.511-1.569-3.429-1.569-5.754c0-6.915,2.586-10.402,7.788-10.402c1.133,0,2.121,0.232,2.993,0.64
			c1.104,0.553,1.656,1.336,1.656,2.384c0,0.639-0.175,1.19-0.494,1.627c-0.407,0.522-0.901,0.755-1.54,0.755
			c-0.552,0-1.046-0.174-1.453-0.521c-0.407-0.35-0.611-0.785-0.611-1.338c0-0.349,0.117-0.697,0.407-1.104
			c0.262-0.379,0.407-0.553,0.407-0.553c0-0.582-0.407-0.901-1.162-0.901c-1.772,0-3.08,0.844-3.923,2.528
			c-0.64,1.277-0.988,2.964-0.988,4.998c0.959-0.987,2.325-1.512,4.097-1.512c1.656,0,3.051,0.553,4.155,1.6
			c1.104,1.074,1.686,2.439,1.686,4.097C134.969,290.636,134.359,292.088,133.139,293.191z M131.25,285.783
			c-0.698-1.104-1.541-1.686-2.586-1.686c-1.046,0-1.889,0.58-2.557,1.686c-0.581,0.988-0.872,2.033-0.872,3.139
			c0,1.191,0.261,2.268,0.843,3.254c0.639,1.163,1.511,1.715,2.586,1.715s1.947-0.552,2.615-1.686
			c0.552-0.988,0.843-2.062,0.843-3.254C132.122,287.816,131.831,286.771,131.25,285.783z"/>
		<path fill="#DCDCDD" d="M143.396,279.188h6.015c0.117-1.25,0.204-2.586,0.232-3.98c0-1.568-0.058-2.905-0.116-3.98
			c0.987,0.146,1.976,0.318,2.935,0.494c1.366,0.262,2.063,0.522,2.063,0.756c0,0.291-0.233,0.522-0.64,0.726
			c-0.494,0.233-0.727,0.437-0.727,0.64c-0.174,1.977-0.349,3.777-0.552,5.348h6.363c0.058-0.028,0.437-0.465,1.134-1.336
			c0.813-0.988,1.307-1.513,1.453-1.513c0.407,0,1.075,0.494,1.947,1.425c0.901,0.987,1.366,1.568,1.366,1.772
			c0,0.29-0.204,0.437-0.581,0.437h-10.665c0.465,1.889,1.075,3.66,1.889,5.287c0.872,1.859,2.034,3.43,3.487,4.768
			c1.801,1.598,3.777,2.876,5.986,3.806l-0.116,0.669c-1.046,0.406-1.744,0.9-2.034,1.539c-0.349,0.785-0.669,1.191-0.93,1.191
			c-0.32,0-0.93-0.437-1.801-1.25c-1.018-0.842-2.093-2.032-3.197-3.603c-0.872-1.163-1.656-2.702-2.354-4.62
			c-0.726-1.803-1.307-4.416-1.771-7.787h-0.291c-0.464,3.021-1.046,5.287-1.801,6.799c-1.162,2.498-2.731,4.621-4.736,6.334
			c-1.744,1.569-4.098,2.994-7.09,4.359l-0.233-0.58c2.325-1.541,4.33-3.313,6.073-5.406c1.541-1.742,2.79-4.097,3.749-7.061
			c0.377-1.337,0.668-2.818,0.872-4.445h-6.364c-1.569,0-2.848,0.086-3.865,0.231l-0.465-1.366
			C140.374,279.071,141.943,279.188,143.396,279.188z"/>
		<path fill="#DCDCDD" d="M171.203,276.688h2.296c0.058-0.028,0.348-0.377,0.872-1.074c0.639-0.785,1.046-1.191,1.162-1.191
			c0.319,0,0.843,0.406,1.598,1.162c0.756,0.812,1.133,1.277,1.133,1.452c0,0.291-0.174,0.437-0.465,0.437h-6.597
			c-1.656,0-2.818,0.059-3.516,0.116l-0.436-1.134C168.152,276.629,169.46,276.688,171.203,276.688z M172.337,280.204h0.93
			c0.058,0,0.349-0.351,0.872-1.019c0.639-0.754,1.046-1.133,1.163-1.133c0.319,0,0.843,0.379,1.54,1.104
			c0.697,0.755,1.075,1.22,1.075,1.395c0,0.29-0.174,0.437-0.465,0.437h-5.114c-1.656,0-2.818,0.058-3.516,0.117l-0.437-1.135
			C169.286,280.146,170.594,280.204,172.337,280.204z M172.453,273.172h1.046c0.058-0.029,0.319-0.349,0.842-0.958
			c0.581-0.728,0.959-1.104,1.075-1.104c0.291,0,0.756,0.377,1.395,1.104c0.639,0.696,0.988,1.134,0.988,1.308
			c0,0.289-0.174,0.437-0.465,0.437h-4.882c-1.656,0-2.818,0.058-3.516,0.116l-0.436-1.135
			C169.402,273.113,170.71,273.172,172.453,273.172z M172.453,284.068h0.93c0.059-0.028,0.319-0.379,0.843-1.018
			c0.581-0.755,0.959-1.134,1.075-1.134c0.291,0,0.785,0.379,1.482,1.104c0.668,0.754,1.017,1.221,1.017,1.396
			c0,0.29-0.174,0.435-0.465,0.435h-4.882c-1.656,0-2.818,0.06-3.516,0.117l-0.436-1.134
			C169.402,284.011,170.71,284.068,172.453,284.068z M172.163,288.137h0.639c0.407-0.465,0.813-0.9,1.162-1.308
			c0.291-0.319,0.523-0.494,0.756-0.494c0.233,0,0.755,0.263,1.627,0.784c0.959,0.669,1.453,1.134,1.453,1.365
			c0,0.263-0.174,0.523-0.523,0.785c-0.261,0.232-0.377,0.522-0.377,0.813v2.614c0,0.9,0.029,2.121,0.117,3.633
			c0,0.35-0.494,0.64-1.454,0.812c-0.436,0.06-0.755,0.088-0.93,0.088c-0.552,0-0.812-0.319-0.812-0.9v-1.133h-2.034v1.336
			c0,0.378-0.465,0.669-1.366,0.843c-0.407,0.06-0.727,0.088-0.9,0.088c-0.611,0-0.901-0.319-0.901-0.931
			c0.059-0.987,0.088-1.946,0.088-2.936v-2.73c0-1.395-0.088-2.762-0.204-4.067C169.692,287.148,170.913,287.585,172.163,288.137z
			 M173.819,294.385v-5.434h-2.034v5.434H173.819z M179.95,275.061v-1.539c0-0.959-0.087-1.802-0.233-2.5
			c0.873,0.117,1.976,0.263,3.255,0.437c1.162,0.116,1.743,0.319,1.743,0.581c0,0.35-0.319,0.609-0.93,0.814
			c-0.436,0.146-0.639,0.405-0.639,0.754v1.482h4.185v-1.568c0-0.959-0.087-1.802-0.232-2.5c0.872,0.117,1.976,0.263,3.254,0.437
			c1.163,0.116,1.744,0.319,1.744,0.581c0,0.35-0.32,0.609-0.959,0.814c-0.436,0.146-0.64,0.405-0.64,0.754v1.482
			c0.058,0,0.262-0.232,0.64-0.697c0.465-0.521,0.755-0.785,0.843-0.785c0.232,0,0.609,0.291,1.133,0.845
			c0.522,0.552,0.812,0.871,0.812,0.987c0,0.318-0.116,0.465-0.349,0.465h-3.08v8.396c0,0.378-0.494,0.641-1.424,0.785
			c-0.465,0.087-0.785,0.116-0.959,0.116c-0.61,0-0.901-0.175-0.901-0.581c0-0.174,0.029-0.32,0.058-0.438h-0.494v2.818h2.15
			c0.06-0.027,0.378-0.406,0.93-1.104c0.697-0.844,1.104-1.278,1.22-1.278c0.349,0,0.93,0.437,1.686,1.249
			c0.755,0.814,1.162,1.308,1.162,1.482c0,0.318-0.203,0.465-0.581,0.465h-6.044c0.93,1.308,1.976,2.295,3.138,2.935
			c1.22,0.696,2.47,1.19,3.69,1.481l-0.087,0.668c-0.843,0.291-1.482,0.871-1.889,1.744c-0.232,0.64-0.436,0.987-0.61,0.987
			c-0.232,0-0.698-0.319-1.395-0.959c-0.755-0.755-1.453-1.687-2.121-2.789c-0.494-0.901-0.901-1.858-1.25-2.877v7.644
			c0,0.348-0.523,0.639-1.54,0.842c-0.465,0.059-0.785,0.087-0.959,0.087c-0.552,0-0.813-0.318-0.813-0.929
			c0.145-1.047,0.232-2.559,0.232-4.534v-0.843c-0.116,0.146-0.232,0.262-0.319,0.379c-0.784,0.871-1.686,1.625-2.673,2.295
			c-1.046,0.697-2.15,1.221-3.371,1.686l-0.204-0.436c1.075-0.813,2.092-1.859,3.051-3.139c0.901-1.25,1.656-2.674,2.295-4.242
			h-1.279c-1.656,0-2.818,0.059-3.517,0.115l-0.465-1.133c0.93,0.145,2.237,0.202,3.98,0.202h2.499v-2.817h-0.552v0.437
			c0,0.378-0.494,0.639-1.453,0.812c-0.464,0.09-0.755,0.117-0.93,0.117c-0.639,0-0.93-0.175-0.93-0.581
			c0.058-0.552,0.116-0.959,0.116-1.25v-7.815c-0.872,0.028-1.511,0.058-1.918,0.086l-0.465-1.133
			C178.178,274.975,178.962,275.032,179.95,275.061z M187.331,279.071v-3.169h-4.185v3.169H187.331z M187.331,283.372v-3.519h-4.185
			v3.519H187.331z"/>
		<path fill="#DCDCDD" d="M200.349,273.84h4.358c0.261-0.261,0.494-0.521,0.727-0.783c0.349-0.379,0.581-0.582,0.755-0.582
			c0.262,0,0.756,0.262,1.454,0.756c0.813,0.641,1.249,1.074,1.249,1.309c0,0.203-0.204,0.436-0.552,0.668
			c-0.319,0.29-0.464,0.552-0.464,0.784v3.081c0.813-1.191,1.482-2.297,1.947-3.342c0.581-1.338,1.046-2.965,1.453-4.824
			c0.93,0.262,1.86,0.522,2.732,0.756c0.813,0.262,1.249,0.521,1.249,0.812s-0.232,0.465-0.697,0.523
			c-0.465,0.059-0.727,0.174-0.785,0.291c-0.174,0.377-0.349,0.727-0.523,1.016h3.603c0.291-0.261,0.582-0.521,0.872-0.755
			c0.465-0.407,0.813-0.61,1.046-0.61c0.291,0,0.959,0.408,2.005,1.222c0.988,0.872,1.511,1.453,1.511,1.743
			c0,0.175-0.349,0.378-1.017,0.552c-0.698,0.116-1.075,0.233-1.133,0.351c-1.046,1.742-2.062,3.166-3.051,4.24
			c0.261,0.146,0.523,0.264,0.813,0.378c1.424,0.64,3.255,1.222,5.521,1.744l-0.116,0.437c-0.61,0.174-1.163,0.696-1.657,1.627
			c-0.348,0.668-0.581,0.987-0.726,0.987c-0.349,0-1.104-0.291-2.208-0.899c-1.453-0.756-2.615-1.569-3.545-2.44
			c-0.959,0.843-1.889,1.54-2.819,2.093c-0.639,0.405-1.278,0.783-1.917,1.104c0.987,0.29,1.917,0.639,2.79,1.045h3.749
			c0.29-0.29,0.552-0.581,0.784-0.871c0.349-0.407,0.61-0.609,0.785-0.609c0.291,0,0.813,0.262,1.598,0.783
			c0.901,0.697,1.366,1.163,1.366,1.396c0,0.261-0.203,0.552-0.581,0.843c-0.291,0.349-0.436,0.668-0.436,0.959v1.017l0.231,5.812
			c0,0.349-0.552,0.639-1.627,0.814c-0.465,0.058-0.785,0.086-0.988,0.086c-0.552,0-0.813-0.319-0.813-0.9v-1.046h-4.301v1.046
			c0,0.349-0.465,0.639-1.396,0.814c-0.407,0.058-0.697,0.086-0.872,0.086c-0.698,0-1.018-0.319-1.018-0.9
			c0.117-2.062,0.204-3.895,0.204-5.463v-0.116c0-1.222-0.058-2.702-0.174-4.417c-0.61,0.32-1.22,0.609-1.859,0.872v0.93
			l0.116,4.882c0,0.35-0.436,0.581-1.308,0.728c-0.406,0.059-0.668,0.088-0.843,0.088c-0.464,0-0.697-0.263-0.697-0.813v-1.569
			h-4.882v1.918c0,0.349-0.436,0.581-1.249,0.696c-0.378,0.06-0.64,0.088-0.785,0.088c-0.61,0-0.901-0.262-0.901-0.784
			c0.145-1.83,0.232-3.457,0.232-4.882V277.24c0-1.192-0.087-2.674-0.232-4.417C198.401,273.113,199.418,273.434,200.349,273.84z
			 M201.394,281.803v-7.147h-1.133v7.147H201.394z M201.394,290.752v-8.165h-1.133v8.165H201.394z M203.893,281.803h1.25v-7.147
			h-1.25V281.803z M203.893,290.752h1.25v-8.165h-1.25V290.752z M212.03,282.732c0.581-0.582,1.075-1.135,1.54-1.688
			c-0.291-0.348-0.523-0.668-0.697-1.016c-0.582-0.932-1.017-2.006-1.366-3.227c-0.117,0.115-0.204,0.203-0.262,0.29
			c-0.872,0.988-2.005,1.947-3.371,2.937v6.16C209.327,285.115,210.722,283.953,212.03,282.732z M214.209,279.1
			c0.174,0.174,0.349,0.32,0.523,0.438c0.116-0.175,0.232-0.378,0.349-0.553c0.697-1.221,1.336-2.5,1.889-3.895h-4.185
			c-0.262,0.406-0.523,0.784-0.784,1.104C212.611,277.355,213.337,278.345,214.209,279.1z M217.289,294.617v-6.684h-4.301v6.684
			H217.289z"/>
		<path fill="#DCDCDD" d="M249.803,282.936h15.895c0.088-0.028,0.466-0.465,1.104-1.277c0.784-0.959,1.249-1.453,1.396-1.453
			c0.406,0,1.017,0.465,1.888,1.365c0.873,0.93,1.31,1.512,1.31,1.686c0,0.319-0.205,0.465-0.582,0.465h-21.444
			c-1.569,0-2.848,0.088-3.865,0.233l-0.464-1.366C246.781,282.818,248.351,282.936,249.803,282.936z"/>
		<path fill="#DCDCDD" d="M284.789,285.202c-1.771,1.946-3.545,3.485-5.289,4.647c-1.191,0.729-1.771,1.135-1.771,1.252v0.871
			c-0.059,0.493-0.146,0.726-0.319,0.726c-0.291,0-0.813-0.581-1.511-1.772c-0.407-0.609-0.901-1.423-1.453-2.439
			c2.73-0.668,6.102-1.918,10.111-3.748L284.789,285.202z M278.542,277.152c0.058-0.029,0.377-0.436,0.929-1.191
			c0.697-0.871,1.104-1.307,1.221-1.307c0.35,0,0.931,0.436,1.744,1.277c0.813,0.844,1.222,1.366,1.222,1.541
			c0,0.319-0.203,0.465-0.581,0.465h-4.417c-1.687,0-2.849,0.058-3.517,0.115l-0.466-1.134
			C275.548,277.095,276.855,277.152,278.542,277.152z M290.893,279.594c1.451,0.203,2.179,0.438,2.179,0.727
			c0,0.291-0.263,0.522-0.784,0.727c-0.466,0.204-0.697,0.467-0.697,0.757c-0.146,1.046-0.29,2.005-0.438,2.847
			c0.408,1.104,0.873,2.094,1.367,2.906c0.871,1.512,1.945,2.789,3.254,3.808c1.278,1.018,2.905,1.946,4.882,2.788l-0.087,0.467
			c-0.641,0.174-1.222,0.726-1.743,1.685c-0.351,0.697-0.61,1.048-0.757,1.048c-0.318,0-0.959-0.438-1.889-1.31
			c-1.221-1.104-2.236-2.295-3.021-3.573c-0.814-1.395-1.482-2.79-1.948-4.186c-0.174-0.493-0.348-1.016-0.464-1.568
			c-0.437,1.744-0.931,3.051-1.481,3.952c-0.582,1.104-1.628,2.267-3.109,3.429c-1.51,1.278-3.37,2.44-5.579,3.486l-0.466-0.348
			c2.238-1.773,3.981-3.459,5.23-5.146c0.872-1.19,1.569-2.644,2.094-4.328c0.493-1.803,0.754-3.807,0.754-5.957
			c0-0.696-0.058-1.569-0.114-2.616C289.002,279.332,289.961,279.479,290.893,279.594z M288.77,272.242
			c0.961,0.29,1.455,0.609,1.455,0.93c0,0.291-0.291,0.494-0.814,0.581s-0.842,0.204-0.901,0.32
			c-0.348,1.104-0.696,2.092-1.073,2.963h7.438c0.407-0.318,0.755-0.581,1.075-0.812c0.407-0.351,0.755-0.554,0.987-0.554
			c0.291,0,0.988,0.494,2.093,1.424c1.017,0.813,1.54,1.396,1.54,1.743c0,0.291-0.262,0.494-0.784,0.553
			c-0.61,0-0.959,0.06-1.046,0.146c-1.104,1.395-2.471,2.789-4.098,4.184l-0.553-0.231c0.464-1.802,0.9-3.69,1.249-5.666h-8.252
			c-0.29,0.61-0.553,1.161-0.843,1.628c-0.844,1.423-1.947,2.876-3.283,4.387l-0.465-0.464c0.871-1.978,1.539-3.836,2.004-5.551
			c0.465-1.802,0.843-3.951,1.191-6.48C286.734,271.633,287.782,271.951,288.77,272.242z"/>
		<path fill="#DCDCDD" d="M313.091,272.271c0.697,0.405,1.075,0.696,1.075,0.899c0,0.175-0.204,0.263-0.581,0.291
			c-0.465,0-0.728,0.058-0.785,0.146c-0.493,0.115-1.017,0.203-1.54,0.291c-0.465,0.086-1.133,0.146-1.976,0.203l0.058,2.236h0.407
			c0,0,0.203-0.203,0.581-0.609c0.523-0.58,0.842-0.871,1.018-0.871c0.115,0,0.581,0.349,1.336,1.045
			c0.465,0.408,0.697,0.668,0.697,0.785c0,0.319-0.115,0.465-0.349,0.465h-3.661l0.058,2.936h0.438c0,0,0.203-0.204,0.581-0.609
			c0.521-0.582,0.843-0.873,1.017-0.873c0.116,0,0.581,0.351,1.337,1.019c0.465,0.437,0.698,0.696,0.698,0.813
			c0,0.291-0.117,0.436-0.351,0.436h-3.689l0.059,2.383h13.89l0.146-2.47c-1.25,0-2.267,0.028-3.021,0.087l-0.465-1.133
			c0.986,0.174,2.149,0.231,3.545,0.231l0.146-2.73c-1.336,0-2.411,0.059-3.226,0.116l-0.465-1.133
			c1.046,0.174,2.266,0.23,3.72,0.23l0.146-2.383c-1.278,0-2.384,0.059-3.283,0.115l-0.465-1.133
			c1.364,0.174,2.498,0.233,3.429,0.233c0.319-0.32,0.64-0.642,0.959-0.96c0.405-0.406,0.727-0.639,0.959-0.639
			c0.291,0,0.812,0.318,1.569,0.899c0.842,0.668,1.277,1.075,1.277,1.249c0,0.291-0.29,0.582-0.871,0.814
			c-0.523,0.289-0.813,0.608-0.844,0.899l-0.29,6.742c0.29-0.233,0.494-0.379,0.64-0.379c0.231,0,0.784,0.407,1.715,1.163
			c0.812,0.668,1.221,1.133,1.221,1.424c0,0.261-0.232,0.406-0.669,0.465c-0.522,0-0.843,0.059-0.9,0.116
			c-0.959,0.61-2.149,1.221-3.545,1.802l-0.437-0.203c0.466-0.844,0.9-1.715,1.25-2.615h-19.44c-0.058,0.64-0.087,1.134-0.146,1.424
			c-0.115,0.669-0.318,1.134-0.609,1.396c-0.203,0.175-0.407,0.231-0.581,0.231c-0.581,0-1.046-0.146-1.424-0.493
			c-0.349-0.263-0.494-0.669-0.494-1.192c0-0.23,0.231-0.492,0.728-0.812c0.522-0.291,0.93-0.64,1.248-1.048
			c0.291-0.349,0.523-0.899,0.728-1.655l0.581,0.088v1.249h0.669l-0.233-6.684c0-1.336-0.145-2.762-0.436-4.213l2.762,0.987
			c0.348-0.233,0.668-0.465,0.958-0.698c0.61-0.494,1.046-0.957,1.278-1.423C311.929,271.633,312.538,271.98,313.091,272.271z
			 M312.016,286.335h6.916c0.29-0.261,0.522-0.494,0.728-0.668c0.522-0.465,0.929-0.697,1.22-0.697c0.319,0,0.932,0.406,1.803,1.162
			c0.9,0.757,1.364,1.278,1.364,1.568c0,0.233-0.377,0.378-1.133,0.407c-0.64,0.059-1.075,0.146-1.25,0.262
			c-1.046,0.465-1.946,0.872-2.702,1.163c0.117,0.114,0.204,0.23,0.204,0.317c0,0.291-0.263,0.523-0.728,0.698
			c-0.377,0.116-0.61,0.263-0.697,0.437h6.306c0.06-0.029,0.378-0.406,0.959-1.162c0.668-0.871,1.075-1.338,1.191-1.338
			c0.349,0,0.93,0.438,1.743,1.279c0.813,0.871,1.222,1.396,1.222,1.568c0,0.291-0.204,0.438-0.581,0.438h-10.896v2.848
			c0,1.162-0.379,2.005-1.104,2.469c-0.842,0.523-1.687,0.814-2.528,0.814c-0.29,0-0.464-0.263-0.521-0.785
			c-0.176-0.871-1.19-1.743-3.109-2.614l0.116-0.552c1.54,0.29,2.674,0.436,3.399,0.436c0.465,0,0.697-0.146,0.697-0.436v-2.18
			h-7.382c-1.656,0-2.817,0.058-3.517,0.115l-0.465-1.134c0.932,0.174,2.237,0.231,3.98,0.231h7.382
			c-0.028-0.58-0.116-1.395-0.233-2.498c1.513,0.231,2.529,0.437,2.994,0.553h0.029c0.521-0.553,1.075-1.191,1.626-1.919h-7.03
			c-1.25,0-2.412,0.088-3.517,0.233l-0.466-1.367C309.197,286.219,310.533,286.335,312.016,286.335z M318.96,277.821
			c0.669,0.349,1.017,0.61,1.017,0.784c0,0.231-0.201,0.35-0.552,0.35c-0.435,0-0.668,0.087-0.696,0.23
			c-0.175,0.176-0.35,0.32-0.522,0.438c0.437,0.29,0.785,0.552,1.017,0.812c0.35,0.35,0.523,0.728,0.523,1.133
			c0,0.379-0.146,0.699-0.407,0.988c-0.231,0.35-0.522,0.494-0.842,0.494c-0.291,0-0.845-0.553-1.687-1.686
			c-0.117-0.146-0.232-0.29-0.35-0.407c-0.872,0.581-2.179,1.162-3.864,1.743l-0.116-0.348c1.047-0.756,1.977-1.569,2.791-2.472
			l0.027-0.028c-0.581-0.436-1.162-0.843-1.801-1.25l0.23-0.436c0.932,0.175,1.743,0.378,2.44,0.609
			c0.466-0.639,0.844-1.277,1.075-1.859C317.885,277.27,318.438,277.589,318.96,277.821z M319.077,272.038
			c0.639,0.351,0.987,0.61,0.987,0.785c0,0.202-0.176,0.319-0.523,0.349c-0.436,0-0.668,0.087-0.727,0.232
			c-0.088,0.115-0.174,0.203-0.262,0.289c0.29,0.233,0.523,0.467,0.697,0.67c0.318,0.378,0.494,0.785,0.494,1.191
			c0,0.377-0.146,0.696-0.407,0.986c-0.231,0.35-0.522,0.494-0.842,0.494c-0.263,0-0.785-0.581-1.541-1.743
			c-0.756,0.61-1.83,1.222-3.226,1.858l-0.117-0.348c0.813-0.785,1.541-1.656,2.181-2.587c0.028-0.058,0.06-0.087,0.087-0.145
			c-0.581-0.582-1.249-1.104-1.947-1.599l0.233-0.438c0.987,0.232,1.83,0.466,2.526,0.697c0.291-0.553,0.494-1.104,0.668-1.627
			C318.002,271.486,318.554,271.807,319.077,272.038z"/>
		<path fill="#DCDCDD" d="M346.391,271.573c0.988,0.291,1.482,0.552,1.482,0.784c0,0.291-0.291,0.494-0.872,0.553
			c-0.087,0.029-0.174,0.059-0.231,0.059c1.656,0.756,3.369,1.336,5.172,1.743c2.324,0.522,4.621,0.872,6.944,1.075l-0.116,0.668
			c-0.812,0.263-1.364,0.814-1.655,1.656c-0.203,0.64-0.438,0.96-0.728,0.96c-0.436,0-1.453-0.292-3.021-0.931
			c-1.687-0.582-3.256-1.365-4.707-2.324c-1.104-0.728-2.063-1.453-2.818-2.209c-1.568,1.396-3.226,2.5-4.969,3.371
			c-1.249,0.696-2.703,1.396-4.389,2.033c0.785,0.29,1.569,0.61,2.354,0.959h12.466c0.406-0.436,0.784-0.812,1.162-1.134
			c0.262-0.29,0.523-0.464,0.756-0.464c0.231,0,0.756,0.261,1.598,0.784c0.988,0.696,1.482,1.161,1.482,1.395
			c0,0.263-0.175,0.523-0.465,0.784c-0.232,0.232-0.349,0.494-0.349,0.784v0.931c0,0.901,0.028,2.121,0.114,3.633
			c0,0.377-0.494,0.64-1.451,0.812c-0.437,0.059-0.756,0.088-0.931,0.088c-0.466,0-0.727-0.232-0.756-0.697h-14.005
			c0,0.319-0.32,0.553-0.9,0.727c1.161,0.35,2.323,0.785,3.545,1.338h8.717c0.406-0.438,0.783-0.814,1.162-1.163
			c0.291-0.291,0.522-0.437,0.756-0.437c0.232,0,0.756,0.262,1.599,0.785c0.987,0.668,1.481,1.133,1.481,1.365
			c0,0.29-0.203,0.553-0.609,0.842c-0.291,0.264-0.407,0.553-0.407,0.872v1.481c0,0.931,0.028,2.18,0.087,3.749
			c0,0.349-0.494,0.639-1.48,0.813c-0.465,0.059-0.814,0.088-0.988,0.088c-0.552,0-0.814-0.32-0.814-0.901v-0.232h-10.197v0.319
			c0,0.378-0.467,0.669-1.396,0.843c-0.406,0.06-0.697,0.088-0.871,0.088c-0.64,0-0.931-0.319-0.931-0.931
			c0.06-0.987,0.116-1.946,0.116-2.936v-2.033c0-1.309-0.087-2.586-0.203-3.836h-0.029c-0.406,0.059-0.726,0.088-0.9,0.088
			c-0.609,0-0.899-0.291-0.899-0.93c0.058-0.961,0.116-1.947,0.116-2.936V282.7c0-1.104-0.059-2.179-0.146-3.226
			c-0.9,0.35-1.83,0.67-2.817,0.959l-0.349-0.465c2.004-0.959,4.185-2.296,6.537-3.98c1.859-1.395,3.545-3.108,5.057-5.201
			C344.706,271.109,345.605,271.37,346.391,271.573z M343.805,286.104v-5.317h-5.346v5.317H343.805z M342.062,282.384
			c0.696,0.466,1.045,0.871,1.045,1.22c0,0.728-0.262,1.309-0.756,1.744c-0.318,0.291-0.696,0.406-1.162,0.406
			c-0.231,0-0.405-0.058-0.553-0.23c-0.145-0.146-0.261-0.494-0.377-1.075c-0.175-0.814-0.523-1.773-1.104-2.878l0.318-0.232
			C340.607,281.688,341.48,282.034,342.062,282.384z M350.604,292.117v-2.383h-10.197v2.383H350.604z M350.604,295.4v-2.498h-10.197
			v2.498H350.604z M344.822,277.355h0.23c0.061,0,0.35-0.349,0.901-0.987c0.639-0.755,1.018-1.162,1.133-1.162
			c0.32,0,0.844,0.378,1.541,1.133c0.696,0.756,1.075,1.191,1.075,1.365c0,0.319-0.176,0.466-0.467,0.466h-4.415
			c-1.657,0-2.819,0.059-3.518,0.117l-0.465-1.135C341.771,277.299,343.078,277.355,344.822,277.355z M352.436,286.104v-5.317
			h-5.578v5.317H352.436z M350.633,282.034c0.959,0.35,1.453,0.668,1.453,1.018c0,0.203-0.23,0.349-0.668,0.407
			c-0.465,0.087-0.756,0.203-0.814,0.377c-0.726,0.698-1.713,1.337-2.935,1.918l-0.465-0.32c0.553-1.276,0.931-2.73,1.134-4.328
			C349.15,281.396,349.936,281.715,350.633,282.034z"/>
		<path fill="#DCDCDD" d="M376.203,271.604c0.697,0.059,1.075,0.231,1.075,0.552c0,0.116-0.232,0.29-0.641,0.493
			c-0.493,0.205-0.726,0.466-0.726,0.757v1.25h6.363c0.058-0.029,0.406-0.438,0.987-1.222c0.696-0.93,1.134-1.396,1.278-1.396
			c0.378,0,0.987,0.466,1.831,1.338c0.813,0.871,1.249,1.423,1.249,1.599c0,0.318-0.203,0.465-0.581,0.465h-8.021
			c0.319,0.115,0.64,0.203,0.93,0.262c0.785,0.232,1.191,0.494,1.191,0.755c0,0.291-0.231,0.465-0.697,0.522
			c-0.465,0.059-0.727,0.146-0.784,0.263c-0.349,0.755-0.756,1.364-1.22,1.889c-0.263,0.291-0.554,0.581-0.873,0.843h4.358
			c0.29-0.262,0.494-0.465,0.668-0.64c0.554-0.464,0.931-0.728,1.163-0.728c0.291,0,0.9,0.351,1.83,0.988
			c0.872,0.697,1.337,1.162,1.337,1.396s-0.231,0.493-0.639,0.784c-0.581,0.377-0.845,0.727-0.845,1.047v11.798
			c0,0.959-0.552,1.714-1.627,2.237c-0.899,0.406-1.627,0.609-2.207,0.609c-0.232,0-0.407-0.35-0.554-1.047
			c-0.23-0.871-1.133-1.568-2.644-2.15l0.029-0.086c-0.379,0.059-0.642,0.086-0.814,0.086c-0.521,0-0.784-0.261-0.784-0.783v-0.465
			h-5.114v1.045c0,0.379-0.436,0.641-1.308,0.813c-0.407,0.058-0.668,0.088-0.843,0.088c-0.641,0-0.93-0.291-0.93-0.901
			c0.058-0.899,0.115-1.801,0.115-2.73v-1.365c0-1.162-0.059-2.268-0.174-3.342c-0.466,0.175-0.931,0.29-1.396,0.377l-0.349-0.318
			c0.554-0.232,1.046-0.58,1.511-1.018c0.494-0.407,0.844-0.814,1.075-1.277c0.233-0.641,0.349-1.425,0.349-2.384v-1.221h-3.282
			v15.981c0,0.349-0.466,0.64-1.396,0.843c-0.406,0.059-0.697,0.087-0.871,0.087c-0.697,0-1.019-0.319-1.019-0.93
			c0.146-2.035,0.233-3.865,0.233-5.435v-7.613c0-1.364-0.088-3.021-0.233-4.997c1.25,0.319,2.412,0.728,3.517,1.25h3.4
			c-0.146-0.35-0.32-0.844-0.523-1.482c-0.349-1.104-0.813-2.062-1.396-2.936l0.059-0.115h-3.021c-1.656,0-2.819,0.058-3.518,0.115
			l-0.465-1.133c0.93,0.174,2.237,0.232,3.981,0.232h7.612v-1.135c0-0.783-0.088-1.598-0.232-2.41
			C373.85,271.227,375.041,271.398,376.203,271.604z M375.797,287.354c0.406-0.408,0.812-0.756,1.162-1.076
			c0.29-0.262,0.552-0.406,0.784-0.406c0.233,0,0.756,0.262,1.599,0.785c0.959,0.668,1.453,1.133,1.453,1.395
			s-0.204,0.522-0.581,0.756c-0.291,0.262-0.437,0.522-0.437,0.813v0.465c0,0.813,0.028,1.89,0.115,3.283
			c0,0.202-0.115,0.349-0.318,0.465c0.812,0.088,1.48,0.117,2.033,0.117c0.522,0,0.785-0.292,0.785-0.931v-7.816
			c-0.609,0.29-1.512,0.436-2.731,0.436h-1.425c-0.522,0-0.987-0.027-1.395-0.146c-0.843-0.116-1.25-0.61-1.25-1.425v-3.282h-2.848
			v1.221c0,0.987-0.232,1.83-0.639,2.47c-0.379,0.553-1.019,1.047-1.89,1.452c-0.291,0.177-0.581,0.291-0.872,0.407
			c0.93,0.291,1.83,0.609,2.762,1.018H375.797L375.797,287.354z M376.465,279.973c0.232-0.757,0.407-1.482,0.553-2.121
			c0.115-0.699,0.231-1.482,0.318-2.412h-7.234c0.262,0.115,0.493,0.262,0.728,0.377c0.581,0.379,0.987,0.756,1.22,1.162
			c0.232,0.35,0.35,0.697,0.35,1.075c0,0.581-0.232,1.104-0.64,1.511c-0.146,0.203-0.291,0.35-0.407,0.408H376.465z
			 M376.843,292.234v-4.099h-5.114v4.099H376.843z M378.092,282.587c0,0.494,0.116,0.756,0.407,0.813
			c0.231,0.059,0.61,0.086,1.162,0.086c0.378,0,0.64-0.114,0.784-0.318c0.059-0.232,0.175-0.871,0.35-1.945h0.465l0.116,1.364
			c0,0.263,0.261,0.494,0.842,0.728c0.06,0.028,0.116,0.059,0.177,0.059v-2.587h-4.303V282.587z"/>
		<path fill="#DCDCDD" d="M394.189,276.455h2.384c0.058,0,0.378-0.348,0.899-1.018c0.641-0.756,1.047-1.134,1.162-1.134
			c0.319,0,0.844,0.378,1.541,1.104c0.697,0.756,1.046,1.22,1.046,1.396c0,0.29-0.146,0.437-0.437,0.437h-6.596
			c-1.656,0-2.818,0.059-3.518,0.115l-0.464-1.133C391.139,276.396,392.447,276.455,394.189,276.455z M395.207,272.939h0.697
			c0.059,0,0.291-0.291,0.727-0.844c0.523-0.64,0.844-0.986,0.959-0.986c0.291,0,0.727,0.348,1.365,0.986
			c0.611,0.641,0.931,1.047,0.931,1.192c0,0.29-0.175,0.435-0.466,0.435h-4.213c-1.656,0-2.818,0.06-3.518,0.116l-0.435-1.133
			C392.156,272.882,393.464,272.939,395.207,272.939z M395.207,280.088h1.047c0.059,0,0.319-0.349,0.842-1.017
			c0.581-0.757,0.959-1.134,1.075-1.134c0.291,0,0.784,0.377,1.482,1.104c0.668,0.755,1.017,1.22,1.017,1.395
			c0,0.291-0.175,0.437-0.465,0.437h-4.998c-1.656,0-2.818,0.058-3.518,0.116l-0.435-1.135
			C392.156,280.03,393.464,280.088,395.207,280.088z M395.323,283.953h1.134c0.059-0.029,0.35-0.35,0.871-0.96
			c0.582-0.696,0.959-1.075,1.076-1.075c0.289,0,0.755,0.379,1.395,1.075c0.639,0.696,0.987,1.134,0.987,1.308
			c0,0.291-0.175,0.438-0.465,0.438h-4.998c-1.656,0-2.818,0.058-3.517,0.115l-0.436-1.133
			C392.271,283.895,393.58,283.953,395.323,283.953z M395.469,288.05h0.785c0.377-0.465,0.755-0.901,1.104-1.249
			c0.231-0.291,0.465-0.466,0.696-0.466c0.203,0,0.728,0.263,1.541,0.728c0.929,0.639,1.423,1.074,1.423,1.308
			c0,0.262-0.203,0.522-0.552,0.784c-0.262,0.232-0.377,0.522-0.377,0.813v2.267c0,0.9,0.027,2.121,0.115,3.633
			c0,0.349-0.494,0.639-1.453,0.814c-0.437,0.058-0.755,0.086-0.93,0.086c-0.523,0-0.784-0.319-0.784-0.9v-0.668h-2.268v1.249
			c0,0.349-0.465,0.639-1.396,0.813c-0.406,0.059-0.697,0.088-0.871,0.088c-0.639,0-0.93-0.32-0.93-0.901
			c0.058-0.988,0.114-1.977,0.114-2.964v-2.849c0-1.395-0.086-2.73-0.23-4.067C392.766,286.916,394.104,287.41,395.469,288.05z
			 M397.038,294.385v-5.551h-2.267v5.551H397.038z M410.084,290.084c0.407,0.697,1.018,1.336,1.832,1.946
			c1.075,0.813,2.702,1.452,4.882,1.919v0.668c-0.931,0.552-1.512,1.22-1.743,2.033c-0.232,0.523-0.437,0.813-0.641,0.813
			c-0.29,0-0.93-0.379-1.889-1.075c-0.9-0.727-1.627-1.512-2.15-2.354c-0.668-0.932-1.189-2.035-1.568-3.312
			c-0.059-0.203-0.115-0.379-0.146-0.553c-0.233,0.755-0.465,1.365-0.755,1.859c-0.698,1.337-1.832,2.5-3.342,3.486
			c-1.25,0.813-3.053,1.568-5.377,2.268l-0.232-0.436c1.568-0.814,2.965-1.744,4.127-2.818c1.046-0.901,1.917-2.122,2.557-3.633
			c0.494-1.338,0.756-2.936,0.814-4.795c0-1.453-0.059-2.645-0.116-3.633c0.9,0.116,1.801,0.291,2.673,0.465
			c1.221,0.232,1.859,0.438,1.859,0.668c0,0.232-0.203,0.465-0.581,0.668c-0.465,0.177-0.668,0.379-0.668,0.582
			c-0.116,1.222-0.263,2.267-0.437,3.139c0.115,0.523,0.291,0.988,0.522,1.396c0.319-0.465,0.64-1.018,0.959-1.599
			c0.582-0.987,1.076-2.092,1.453-3.283c0.959,0.639,1.858,1.191,2.702,1.714c0.755,0.582,1.162,0.988,1.162,1.25
			c0,0.319-0.146,0.466-0.437,0.466l-1.715-0.233C412.934,288.484,411.684,289.27,410.084,290.084z M404.854,285.202
			c0,1.976-0.086,3.342-0.203,4.067c-0.203,0.813-0.522,1.365-0.931,1.686c-0.23,0.175-0.493,0.262-0.784,0.262
			c-0.609,0-1.104-0.175-1.511-0.521c-0.349-0.291-0.522-0.728-0.522-1.309c0-0.262,0.291-0.582,0.9-0.959
			c0.668-0.378,1.191-0.814,1.568-1.309c0.349-0.436,0.669-1.104,0.931-2.033L404.854,285.202z M409.01,271.573
			c1.221,0.233,1.859,0.465,1.859,0.698c0,0.231-0.203,0.465-0.581,0.639c-0.465,0.203-0.668,0.406-0.668,0.609
			c-0.175,1.859-0.407,3.312-0.728,4.418c1.396,0.35,2.559,0.696,3.459,1.045c1.104,0.494,1.889,1.019,2.412,1.6
			c0.436,0.464,0.668,0.93,0.668,1.424c0,0.521-0.203,0.93-0.554,1.277c-0.317,0.466-0.696,0.67-1.162,0.67
			c-0.349,0-1.046-0.698-2.062-2.15c-0.843-1.047-1.859-2.006-3.079-2.877c-0.116,0.262-0.233,0.494-0.32,0.668
			c-0.581,1.135-1.482,2.121-2.702,2.993c-1.017,0.728-2.47,1.366-4.329,1.918l-0.203-0.437c1.134-0.64,2.121-1.424,2.992-2.324
			c0.756-0.756,1.366-1.743,1.86-3.021c0.349-1.104,0.552-2.44,0.581-3.98c0-1.424-0.059-2.645-0.116-3.633
			C407.237,271.227,408.138,271.398,409.01,271.573z M404.738,273.172c0,2.034-0.059,3.398-0.174,4.155
			c-0.146,0.813-0.379,1.364-0.67,1.687c-0.203,0.202-0.405,0.289-0.609,0.289c-0.61,0-1.104-0.174-1.512-0.522
			c-0.377-0.29-0.551-0.727-0.551-1.308c0-0.262,0.26-0.58,0.812-0.988c0.581-0.405,1.017-0.842,1.336-1.336
			c0.32-0.465,0.581-1.162,0.814-2.092L404.738,273.172z M410.55,277.589l-0.231-0.349c0.378-0.465,0.755-1.047,1.134-1.803
			c0.465-0.812,0.842-1.686,1.133-2.614c0.901,0.581,1.743,1.104,2.527,1.569c0.728,0.521,1.104,0.93,1.104,1.161
			c0,0.232-0.175,0.349-0.465,0.349l-1.568-0.115C413.339,276.368,412.119,276.979,410.55,277.589z"/>
		<path fill="#DCDCDD" d="M431.354,293.57c-1.337,0.871-2.935,1.308-4.766,1.308c-1.771,0-3.284-0.377-4.533-1.19
			c-1.481-0.93-2.207-2.237-2.207-3.924c0-1.017,0.465-1.976,1.452-2.848c0.784-0.697,1.743-1.22,2.876-1.627
			c-0.988-0.407-1.83-0.959-2.499-1.715c-0.784-0.842-1.161-1.743-1.161-2.702c0-1.511,0.696-2.731,2.092-3.603
			c1.162-0.756,2.558-1.135,4.186-1.135c1.627,0,3.021,0.35,4.184,1.047c1.396,0.871,2.094,2.062,2.094,3.604
			c0,0.812-0.379,1.568-1.135,2.267c-0.639,0.61-1.396,1.104-2.236,1.453c1.075,0.377,2.004,0.987,2.761,1.83
			c0.812,0.959,1.22,1.978,1.22,3.052C433.679,291.188,432.895,292.582,431.354,293.57z M425.775,285.986
			c-1.918,0.756-2.849,2.033-2.849,3.836c0,1.104,0.377,2.062,1.162,2.848c0.756,0.812,1.656,1.221,2.731,1.221
			c1.104,0,2.033-0.406,2.79-1.221c0.726-0.784,1.104-1.744,1.104-2.848C430.716,287.963,429.059,286.686,425.775,285.986z
			 M426.821,277.123c-1.075,0-1.918,0.32-2.499,0.9c-0.581,0.641-0.871,1.482-0.871,2.559c0,1.511,1.51,2.614,4.591,3.312
			c1.423-0.988,2.15-2.093,2.15-3.312C430.192,278.287,429.059,277.123,426.821,277.123z"/>
		<path fill="#DCDCDD" d="M441.697,279.188h6.016c0.117-1.25,0.204-2.586,0.233-3.98c0-1.568-0.06-2.905-0.116-3.98
			c0.987,0.146,1.976,0.318,2.935,0.494c1.365,0.262,2.063,0.522,2.063,0.756c0,0.291-0.233,0.522-0.641,0.726
			c-0.494,0.233-0.727,0.437-0.727,0.64c-0.175,1.977-0.35,3.777-0.553,5.348h6.363c0.06-0.028,0.437-0.465,1.134-1.336
			c0.812-0.988,1.308-1.513,1.452-1.513c0.407,0,1.075,0.494,1.947,1.425c0.9,0.987,1.365,1.568,1.365,1.772
			c0,0.29-0.203,0.437-0.581,0.437h-10.664c0.465,1.889,1.075,3.66,1.89,5.287c0.871,1.859,2.033,3.43,3.486,4.768
			c1.803,1.598,3.776,2.876,5.985,3.806l-0.116,0.669c-1.046,0.406-1.743,0.9-2.033,1.539c-0.35,0.785-0.669,1.191-0.931,1.191
			c-0.319,0-0.93-0.437-1.802-1.25c-1.018-0.842-2.092-2.032-3.196-3.603c-0.872-1.163-1.656-2.702-2.354-4.62
			c-0.726-1.803-1.307-4.416-1.771-7.787h-0.29c-0.466,3.021-1.047,5.287-1.802,6.799c-1.162,2.498-2.731,4.621-4.737,6.334
			c-1.743,1.569-4.097,2.994-7.09,4.359l-0.232-0.58c2.324-1.541,4.33-3.313,6.073-5.406c1.539-1.742,2.79-4.097,3.748-7.061
			c0.378-1.337,0.669-2.818,0.872-4.445h-6.363c-1.568,0-2.849,0.086-3.865,0.231l-0.465-1.366
			C438.676,279.071,440.245,279.188,441.697,279.188z"/>
		<path fill="#DCDCDD" d="M469.273,272.707h0.582c0.349-0.436,0.668-0.812,0.959-1.134c0.23-0.29,0.436-0.464,0.639-0.464
			c0.175,0,0.609,0.203,1.308,0.609c0.785,0.553,1.192,0.93,1.192,1.104c0,0.202-0.146,0.405-0.407,0.61
			c-0.204,0.202-0.291,0.405-0.291,0.64v1.133c0,0.728,0.029,1.714,0.116,2.964c0,0.291-0.406,0.494-1.162,0.609
			c-0.349,0.059-0.61,0.059-0.756,0.059c-0.465,0-0.697-0.203-0.697-0.668v-0.466h-1.568v0.67c0,0.317-0.35,0.552-1.047,0.696
			c0.845,0.291,1.715,0.609,2.588,1.018h5.84c0.35-0.349,0.668-0.697,1.018-0.988c0.231-0.23,0.436-0.377,0.668-0.377
			c0.175,0,0.669,0.232,1.424,0.697c0.871,0.609,1.309,1.018,1.309,1.249s-0.174,0.465-0.465,0.697
			c-0.232,0.231-0.319,0.493-0.319,0.755v3.197c0,0.812,0.029,1.889,0.087,3.283c0,0.35-0.465,0.58-1.365,0.696
			c-0.406,0.058-0.728,0.088-0.9,0.088c-0.465,0-0.668-0.262-0.668-0.784h-2.15v2.73h3.051c0.059-0.028,0.35-0.35,0.844-0.959
			c0.609-0.727,0.987-1.104,1.104-1.104c0.29,0,0.755,0.377,1.395,1.104c0.64,0.697,0.988,1.133,0.988,1.309
			c0,0.29-0.175,0.436-0.466,0.436h-6.915v0.785c0,1.715,0.029,3.051,0.116,4.097c0,0.319-0.465,0.553-1.396,0.728
			c-0.406,0.029-0.727,0.059-0.9,0.059c-0.465,0-0.668-0.262-0.668-0.785c0.059-0.959,0.115-2.295,0.115-4.098v-0.784h-2.848
			c-1.656,0-2.818,0.059-3.517,0.116l-0.437-1.133c0.9,0.174,2.209,0.231,3.952,0.231h2.848v-2.731h-2.034v0.581
			c0,0.32-0.437,0.554-1.308,0.697c-0.407,0.058-0.696,0.088-0.872,0.088c-0.522,0-0.784-0.262-0.784-0.785
			c0.059-0.901,0.116-1.801,0.116-2.73v-3.864c0-1.163-0.087-2.296-0.203-3.4h-0.146c-0.522,0-0.784-0.261-0.784-0.812
			c0.059-0.813,0.116-1.628,0.116-2.472v-0.812c0-1.162-0.087-2.295-0.231-3.398C467.299,271.98,468.286,272.301,469.273,272.707z
			 M470.756,276.92v-3.398h-1.568v3.398H470.756z M472.471,283.836v-2.964h-2.033v2.964H472.471z M472.471,287.816v-3.195h-2.033
			v3.195H472.471z M477.439,272.707h0.465c0.349-0.406,0.669-0.756,0.986-1.074c0.204-0.263,0.407-0.406,0.61-0.406
			c0.175,0,0.641,0.23,1.366,0.668c0.812,0.58,1.249,0.959,1.249,1.162c0,0.202-0.175,0.406-0.465,0.609
			c-0.231,0.204-0.319,0.407-0.319,0.639v0.785c0,0.727,0.029,1.715,0.116,2.964c0,0.291-0.407,0.494-1.191,0.61
			c-0.349,0.058-0.608,0.058-0.756,0.058c-0.464,0-0.668-0.202-0.668-0.668v-0.35h-1.481v0.466c0,0.318-0.406,0.552-1.162,0.698
			c-0.349,0.058-0.609,0.087-0.756,0.087c-0.553,0-0.812-0.264-0.812-0.785c0.058-0.812,0.116-1.656,0.116-2.499v-0.581
			c0-1.162-0.087-2.295-0.233-3.398C475.463,271.98,476.451,272.301,477.439,272.707z M475.202,283.836h2.149v-2.964h-2.149V283.836
			z M475.202,287.816h2.149v-3.195h-2.149V287.816z M490.895,278.287c0.812,0.695,1.22,1.133,1.22,1.336
			c0,0.318-0.203,0.465-0.581,0.465l-5.782,0.697c0.06,2.498,0.232,4.301,0.466,5.434c0.059,0.35,0.115,0.641,0.202,0.9
			c0.64-1.452,1.134-3.166,1.482-5.201c0.986,0.32,1.802,0.581,2.439,0.784c0.931,0.35,1.425,0.641,1.425,0.901
			c0,0.263-0.203,0.437-0.61,0.522c-0.406,0.087-0.64,0.203-0.64,0.378c-1.047,2.498-2.033,4.446-3.021,5.812
			c0.116,0.318,0.262,0.608,0.437,0.871c0.958,1.541,1.627,2.295,2.033,2.295c0.175,0,0.438-0.551,0.814-1.655
			c0.116-0.522,0.348-1.22,0.639-2.093l0.466,0.115c-0.32,2.441-0.466,3.865-0.466,4.301c0,0.379,0.088,0.814,0.262,1.338
			c0.117,0.349,0.204,0.669,0.204,0.959c-0.059,0.58-0.32,0.93-0.785,1.018c-0.727,0-1.567-0.379-2.499-1.134
			c-1.075-0.755-1.977-1.83-2.73-3.226c-0.116-0.203-0.233-0.407-0.32-0.64c-0.842,0.755-1.656,1.365-2.469,1.859
			c-1.454,0.872-3.429,1.714-5.958,2.558l-0.231-0.438c2.702-1.512,4.648-2.817,5.841-3.979c0.669-0.64,1.278-1.364,1.859-2.18
			c-0.291-0.843-0.552-1.743-0.727-2.675c-0.406-1.48-0.697-3.659-0.844-6.508c-0.465,0.059-0.9,0.146-1.365,0.231l-0.668-1.249
			c0.696,0.059,1.365,0.116,2.005,0.116c-0.059-1.513-0.087-3.168-0.087-4.998c0-1.481-0.116-2.731-0.319-3.749
			c1.366,0.176,2.382,0.291,3.05,0.406c1.047,0.117,1.6,0.32,1.6,0.611c0,0.29-0.29,0.551-0.843,0.726
			c-0.522,0.176-0.757,0.466-0.757,0.872c0,2.238,0.03,4.185,0.089,5.869l2.091-0.262c0.291-0.494,0.582-0.93,0.845-1.336
			c0.349-0.641,0.608-0.988,0.842-0.988C489.702,277.355,490.167,277.676,490.895,278.287z M478.834,276.92v-3.398h-1.48v3.398
			H478.834z M490.428,273.811c0.494,0.291,0.756,0.642,0.756,1.047c0,0.553-0.231,1.076-0.668,1.541
			c-0.349,0.349-0.756,0.521-1.25,0.521c-0.289,0-0.552-0.318-0.726-0.959c-0.291-0.871-0.756-1.714-1.425-2.557l0.232-0.465
			C488.801,273.229,489.847,273.521,490.428,273.811z"/>
		<path fill="#DCDCDD" d="M500.977,271.895c0.813,0.261,1.221,0.521,1.221,0.812s-0.232,0.465-0.697,0.521
			c-0.465,0.061-0.697,0.176-0.755,0.291c-0.697,1.424-1.482,2.615-2.383,3.604c-0.872,0.988-2.034,1.977-3.431,2.965l-0.317-0.349
			c1.016-1.425,1.801-2.761,2.354-3.981c0.522-1.277,0.987-2.848,1.396-4.648C499.232,271.398,500.105,271.661,500.977,271.895z
			 M502.574,277.123c0.813,0.263,1.221,0.523,1.221,0.814c0,0.058-0.029,0.115-0.029,0.115c0.756,0.059,1.627,0.116,2.646,0.116
			v-2.18c0-1.859-0.087-3.486-0.232-4.882c0.872,0.088,1.947,0.231,3.283,0.465c0.901,0.117,1.366,0.32,1.366,0.58
			c0,0.176-0.059,0.263-0.146,0.32c0.784,0.291,1.396,0.553,1.831,0.784c0.609,0.378,0.931,0.728,0.931,1.046
			c0,0.698-0.263,1.223-0.728,1.628c-0.087,0.087-0.175,0.146-0.262,0.203c0.29,0.203,0.668,0.523,1.104,0.987
			c0.669,0.757,1.019,1.222,1.019,1.365c0,0.319-0.146,0.467-0.438,0.467h-4.795v17.812c0,0.348-0.435,0.639-1.308,0.842
			c-0.406,0.059-0.668,0.087-0.843,0.087c-0.697,0-1.018-0.319-1.018-0.929c0.146-1.744,0.232-3.312,0.232-4.768v-13.046
			c-1.365,0.028-2.354,0.058-2.964,0.116l-0.263-0.67c-0.028,0.029-0.058,0.029-0.087,0.029c-0.465,0.088-0.727,0.174-0.784,0.29
			c-0.522,1.191-1.074,2.267-1.655,3.196c0.058,0.029,0.145,0.059,0.202,0.059c0.582,0.203,0.901,0.379,0.901,0.494
			c0,0.291-0.204,0.553-0.553,0.727c-0.232,0.117-0.349,0.35-0.349,0.64v13.048c0,0.319-0.438,0.553-1.309,0.727
			c-0.407,0.059-0.698,0.087-0.872,0.087c-0.696,0-1.018-0.29-1.018-0.812c0.146-2.034,0.232-4.067,0.232-6.132v-5.376
			c-0.843,0.872-1.803,1.715-2.848,2.558l-0.32-0.349c1.425-1.858,2.499-3.604,3.255-5.201c0.756-1.686,1.425-3.69,1.946-6.045
			C500.831,276.602,501.703,276.861,502.574,277.123z M504.492,281.657c1.104,0.231,1.686,0.436,1.686,0.581
			c0,0.261-0.115,0.436-0.291,0.553c-0.406,0.202-0.608,0.348-0.608,0.464c-0.146,2.646-0.351,4.417-0.61,5.289
			c-0.291,1.22-0.697,2.208-1.191,2.963c-0.58,0.873-1.309,1.454-2.18,1.744l-0.116-0.349c0.466-0.814,0.784-1.627,0.987-2.471
			c0.233-0.812,0.379-1.802,0.494-2.964c0.059-1.221,0.116-3.284,0.116-6.132C503.505,281.453,504.086,281.568,504.492,281.657z
			 M511.641,276.339c-0.203,0-0.349-0.058-0.465-0.231c-0.115-0.116-0.231-0.406-0.318-0.931c-0.146-0.668-0.407-1.452-0.813-2.354
			c-0.059,0.028-0.088,0.028-0.088,0.028c-0.406,0.116-0.61,0.349-0.61,0.668v4.649h0.814c0.058-0.028,0.318-0.377,0.842-1.019
			c0.291-0.377,0.523-0.639,0.669-0.812L511.641,276.339L511.641,276.339z M512.688,282.121c0.728,0.117,1.104,0.291,1.104,0.466
			c0,0.263-0.232,0.465-0.669,0.609c-0.319,0.087-0.465,0.263-0.465,0.522v4.998c0,0.378,0.028,0.581,0.087,0.61
			c0.088,0.116,0.232,0.175,0.466,0.175c0.115,0,0.231-0.029,0.291-0.146c0.058-0.086,0.087-0.317,0.146-0.695
			c0.028-0.407,0.115-1.018,0.261-1.772h0.437c0.059,0.843,0.087,1.425,0.146,1.772c0.029,0.406,0.146,0.695,0.378,0.872
			c0.407,0.261,0.608,0.493,0.608,0.668c0,0.349-0.087,0.61-0.261,0.812c-0.174,0.204-0.407,0.35-0.756,0.467
			c-0.377,0.146-0.784,0.203-1.249,0.203c-0.756,0-1.308-0.029-1.715-0.146c-0.407-0.087-0.668-0.231-0.784-0.406
			c-0.291-0.262-0.436-0.843-0.436-1.743v-4.417c0-1.396-0.089-2.471-0.232-3.167C510.74,281.859,511.641,281.977,512.688,282.121z
			 M520.445,278.838c0.639,0.814,0.959,1.337,0.959,1.6c0,0.291-0.174,0.436-0.465,0.436h-1.716v13.077
			c0,1.452-0.493,2.382-1.481,2.817c-0.93,0.465-1.656,0.697-2.15,0.697c-0.261,0-0.464-0.32-0.639-0.96
			c-0.262-0.929-1.309-1.714-3.108-2.354l0.115-0.436c1.278,0.176,2.383,0.233,3.313,0.233c0.58,0,0.899-0.263,0.899-0.814v-12.263
			h-0.582c-0.58,0-1.336,0.059-2.267,0.115l-0.436-1.133c1.162,0.176,2.062,0.232,2.701,0.232h2.063
			c0.175-0.32,0.437-0.785,0.728-1.424c0.348-0.784,0.61-1.191,0.727-1.191C519.341,277.473,519.806,277.938,520.445,278.838z
			 M520.445,272.416c0.639,0.784,0.959,1.309,0.959,1.541c0,0.318-0.174,0.465-0.465,0.465h-4.767c-0.582,0-1.337,0.059-2.268,0.116
			l-0.464-1.134c1.162,0.146,2.092,0.203,2.73,0.203h1.481c0.175-0.291,0.437-0.756,0.728-1.336c0.348-0.756,0.61-1.162,0.727-1.162
			C519.341,271.109,519.806,271.544,520.445,272.416z"/>
	</g>
</g>
<g>
	<path fill="#C8D92B" d="M94.204,175.688H82.326l34.18-48.644H89.033l1.455-8.564h37.978l-1.536,8.728L94.204,175.688z"/>
	<path fill="#C6B82E" d="M146.582,153.276c-1.697,0.519-3.44,1.036-5.185,1.555v11.312c0,2.687-0.424,4.195-1.933,5.091
		c-1.414,0.942-3.535,1.178-6.646,1.178c-0.094-1.508-0.801-3.912-1.508-5.515c1.697,0.095,3.346,0.095,3.912,0.048
		c0.566,0,0.754-0.188,0.754-0.802v-9.803l-4.431,1.272l-1.225-5.373c1.649-0.377,3.535-0.849,5.656-1.367v-8.389h-4.902v-5.185
		h4.902v-8.908h5.42v8.908h5.231v5.185h-5.231v6.928l4.43-1.226L146.582,153.276z M173.399,130.606c0,0,0,1.461-0.047,2.168
		c-0.424,10.133-0.849,14.327-2.121,15.836c-0.942,1.226-1.979,1.696-3.44,1.885c-1.226,0.188-3.299,0.236-5.515,0.188
		c-0.094-1.696-0.707-3.911-1.603-5.325c1.838,0.188,3.488,0.235,4.336,0.235c0.66,0,1.037-0.142,1.461-0.565
		c0.66-0.754,0.99-3.252,1.272-9.332h-7.777c-0.895,7.022-3.11,12.584-10.746,16.071c-0.613-1.414-2.168-3.44-3.299-4.383
		c5.986-2.545,7.729-6.646,8.39-11.688h-6.646v-5.09H173.399z M148.938,152.569h23.707v19.653h-5.656v-1.791h-12.678v1.979h-5.373
		V152.569z M154.312,157.565v7.87h12.678v-7.87H154.312z"/>
	<path fill="#C6B82E" d="M220.865,137.864c-1.131,9.521-3.723,17.155-7.541,23.094c2.451,2.97,5.231,5.326,8.483,7.117
		c-1.178,0.99-2.922,2.97-3.817,4.431c-3.017-1.933-5.703-4.289-7.965-7.164c-2.639,3.017-5.703,5.42-9.144,7.353
		c-0.801-1.556-2.498-3.959-3.771-5.091l0.754-0.329c-6.881,1.084-13.998,2.215-19.324,2.922l-0.801-5.656
		c2.356-0.282,5.373-0.612,8.578-1.036v-5.609h-7.117v-5.043h7.117v-4.336h5.609v4.336h6.928v5.043h-6.928v4.854
		c2.498-0.377,5.043-0.707,7.588-1.084l0.189,4.572c2.545-1.509,4.854-3.535,6.881-5.938c-1.084-1.791-2.074-3.771-3.017-5.75
		c-0.565,0.989-1.178,1.979-1.791,2.922c-0.518-1.367-2.026-4.147-3.016-5.467c0.848-1.226,1.649-2.64,2.356-4.195
		c-1.037-3.205-1.932-6.504-2.687-9.991l4.195-0.896c0.283,1.272,0.565,2.545,0.896,3.771c1.037-3.724,1.791-7.824,2.356-11.972
		l5.185,0.802c-0.377,2.497-0.849,4.995-1.367,7.446h6.646l0.943-0.188L220.865,137.864z M195.32,148.516
		c-0.189-0.519-0.424-1.084-0.707-1.743c-11.406,0.989-13.385,1.272-14.705,1.79c-0.283-1.084-1.131-3.629-1.744-5.043
		c0.754-0.235,1.461-0.942,2.215-2.026c0.519-0.754,1.838-2.922,2.97-5.467h-5.09v-5.091h21.445v5.091h-10.369
		c-1.084,2.31-2.451,4.618-3.865,6.646l6.834-0.425c-0.66-1.178-1.272-2.309-1.885-3.299l4.242-1.933
		c1.744,2.875,4.101,6.787,5.137,9.238L195.32,148.516z M208.422,142.153c-0.66,2.31-1.414,4.571-2.168,6.646
		c0.943,2.498,2.121,4.854,3.44,7.022c2.31-3.912,4.006-8.483,5.043-13.668H208.422z"/>
	<path fill="#C6B82E" d="M262.956,148.28c1.886,1.933,4.383,3.629,6.787,4.666c-1.037,0.896-2.546,2.687-3.3,3.864
		c-0.471-0.235-0.896-0.471-1.319-0.754c-0.047,0.377-0.047,0.802-0.095,1.084c-0.424,8.343-0.941,11.877-2.073,13.197
		c-0.896,1.084-1.885,1.461-3.204,1.649c-1.132,0.142-3.111,0.188-5.185,0.094c-0.095-1.461-0.66-3.346-1.32-4.618
		c1.603,0.141,3.111,0.188,3.865,0.188c0.612,0,1.037-0.095,1.414-0.472c0.519-0.66,0.896-2.687,1.178-7.446h-4.524
		c-1.272,5.608-4.101,9.897-10.699,12.631c-0.565-1.272-1.979-3.252-3.111-4.242c4.996-1.932,7.4-4.713,8.531-8.389h-4.854v-3.488
		c-0.707,0.472-1.461,0.896-2.215,1.272c-0.377-0.565-1.226-1.603-2.121-2.498v11.548c0,2.356-0.33,3.817-1.697,4.713
		c-1.319,0.896-3.11,0.989-5.797,0.989c-0.094-1.366-0.66-3.771-1.32-5.137c1.367,0.047,2.734,0.047,3.205,0.047
		c0.519,0,0.66-0.188,0.66-0.754v-10.935h-3.771c-0.283,5.938-1.037,12.349-2.828,17.062c-0.943-0.754-3.158-1.933-4.336-2.403
		c2.404-6.457,2.593-15.837,2.593-22.671v-16.92h13.291v22.341c2.357-1.226,4.289-2.781,5.892-4.619h-4.996v-4.524h7.871
		c0.377-0.896,0.755-1.744,1.084-2.733h-7.493v-4.572h3.676c-0.896-1.603-2.592-3.676-4.1-5.137l3.817-2.263
		c1.838,1.556,3.676,3.724,4.572,5.278l-3.205,2.121h3.959c0.472-2.403,0.755-5.09,0.942-8.012l5.091,0.282
		c-0.235,2.781-0.565,5.373-0.99,7.729h3.677c-0.754-0.66-1.556-1.272-2.168-1.696c1.696-1.509,3.393-3.865,4.478-5.609l4.382,1.414
		c-1.225,2.168-2.592,4.195-4.005,5.892h3.816v4.572h-11.264c-0.282,0.942-0.565,1.838-0.896,2.733h13.856v4.524H262.956z
		 M235.762,150.684v-4.807h-3.582v1.649c0,0.942,0,2.026-0.047,3.157H235.762z M232.18,135.602v5.373h3.582v-5.373H232.18z
		 M263.758,155.161c-2.451-1.838-4.761-4.289-6.41-6.881h-4.666c-1.603,2.733-3.582,4.948-6.127,6.881h4.289
		c0.142-1.366,0.235-2.828,0.33-4.289h5.09c-0.094,1.461-0.188,2.923-0.33,4.289H263.758z"/>
	<path fill="#C6B82E" d="M287.327,165.812v6.787h-5.326v-6.787h-10.039v-4.854h10.039v-2.262h-8.2V141.54h22.104v17.156h-8.577
		v2.262h9.614v4.854H287.327z M284.075,139.891h-10.699v-10.228h10.699V139.891z M279.928,133.198h-2.545v3.158h2.545V133.198z
		 M278.372,148.139h3.959v-2.498h-3.959V148.139z M278.372,154.596h3.959v-2.592h-3.959V154.596z M296.376,139.891h-10.698v-10.228
		h10.698V139.891z M291.098,145.641h-4.054v2.498h4.054V145.641z M291.098,152.004h-4.054v2.592h4.054V152.004z M292.182,133.198
		h-2.545v3.158h2.545V133.198z M315.04,148.704c-1.461,4.524-3.677,9.002-6.504,12.961c0.754,2.545,1.649,4.054,2.592,4.101
		c0.754,0.047,1.226-2.121,1.509-6.362c0.942,1.178,3.204,2.592,4.1,3.11c-1.178,8.153-3.534,10.039-5.562,9.944
		c-2.827-0.141-4.948-2.262-6.551-6.079c-2.215,2.356-4.713,4.336-7.353,5.797c-0.849-1.32-2.498-2.97-3.912-3.959
		c3.582-1.697,6.787-4.289,9.521-7.447c-0.942-3.864-1.555-8.577-2.026-13.95l-3.865,0.471l-0.612-5.137l4.054-0.519
		c-0.236-4.006-0.377-8.342-0.519-12.914h5.325c0.048,4.289,0.188,8.39,0.425,12.302l10.133-1.273l0.66,5.138l-10.369,1.272
		c0.283,3.205,0.612,6.127,0.99,8.672c1.555-2.687,2.827-5.562,3.723-8.483L315.04,148.704z M311.175,139.561
		c-0.659-2.215-2.592-5.702-4.43-8.247l4.101-2.263c1.885,2.451,3.959,5.75,4.713,8.013L311.175,139.561z"/>
	<path fill="#C6B82E" d="M363.26,148.28h-3.63v17.627c0,2.64-0.377,4.101-2.073,5.043c-1.603,0.896-3.912,0.942-7.022,0.942
		c-0.142-1.555-0.802-3.817-1.509-5.42c1.886,0.095,3.865,0.095,4.478,0.047c0.613,0,0.802-0.141,0.802-0.707V148.28h-4.101v-3.724
		h-6.881v27.666h-4.902v-27.666H332.2v-3.252c-0.755,1.649-1.697,3.44-2.733,5.138v25.969h-5.185v-18.758
		c-0.896,1.037-1.791,1.979-2.64,2.78c-0.519-1.131-2.121-3.959-3.063-5.137c3.582-3.158,7.164-8.06,9.19-13.009l4.431,1.461v-0.329
		h6.221v-10.935h4.902v10.935h7.069v3.817h12.914L363.26,148.28z M332.152,130.182c-2.45,4.195-6.221,8.72-9.803,11.547
		c-0.66-1.131-1.979-3.204-2.875-4.147c2.922-2.356,6.127-6.127,7.588-9.143L332.152,130.182z M337.008,147.102
		c0,8.955-0.519,14.894-4.148,18.476c-0.471-0.989-1.696-2.545-2.639-3.252c2.639-2.969,2.828-7.541,2.875-15.224H337.008z
		 M347.564,138.524c-0.66-1.603-2.168-4.195-3.582-6.08l3.394-1.838c1.461,1.791,3.063,4.288,3.817,5.891L347.564,138.524z
		 M349.309,164.258c-3.724,0-4.431-1.414-4.431-5.515v-11.594h4.007v11.641c0,1.272,0,1.65,0.282,1.65h1.084
		c0.472,0,1.084-0.095,1.556-0.236c0.094,1.037,0.235,2.875,0.377,3.771c-0.565,0.283-1.226,0.283-1.979,0.283H349.309z
		 M362.6,136.874h-11.217v-4.948H362.6V136.874z"/>
	<path fill="#C8D92B" d="M182.522,210.384c0.485-0.16,1.091-0.295,1.818-0.402c0.727-0.109,1.414-0.162,2.061-0.162
		c2.8,0,5.279,0.432,7.434,1.293c2.154,0.861,3.959,2.033,5.414,3.514c1.454,1.482,2.558,3.191,3.312,5.131s1.132,3.986,1.132,6.143
		c0,2.855-0.499,5.574-1.495,8.16c-0.998,2.586-2.438,4.848-4.323,6.787c-1.886,1.939-4.202,3.49-6.949,4.646
		c-2.747,1.158-5.898,1.736-9.454,1.736c-2.748,0-5.28-0.402-7.596-1.211c-2.317-0.809-4.323-1.953-6.02-3.436
		c-1.697-1.48-3.03-3.299-4-5.453s-1.455-4.576-1.455-7.271c0-2.855,0.632-5.738,1.899-8.646c1.265-2.91,3.354-6.141,6.262-9.697
		l18.747-22.947h11.555l-18.423,21.656L182.522,210.384z M172.018,229.858c0,1.455,0.269,2.762,0.808,3.918
		c0.538,1.158,1.265,2.143,2.182,2.949c0.916,0.809,1.965,1.428,3.151,1.857c1.184,0.434,2.424,0.648,3.717,0.648
		c3.77,0,6.747-1.158,8.929-3.475c2.181-2.316,3.272-5.387,3.272-9.211c0-1.508-0.27-2.855-0.808-4.041
		c-0.539-1.184-1.239-2.182-2.101-2.99c-0.862-0.807-1.858-1.414-2.99-1.816c-1.131-0.404-2.291-0.605-3.475-0.605
		c-1.939,0-3.704,0.322-5.292,0.967c-1.589,0.648-2.922,1.549-4,2.709c-1.078,1.158-1.913,2.518-2.505,4.078
		C172.312,226.411,172.018,228.079,172.018,229.858z"/>
	<path fill="#C6B82E" d="M237.895,216.905c3.111,9.191,8.813,16.59,17.627,20.172c-1.414,1.18-3.253,3.678-4.147,5.279
		c-8.531-4.006-13.999-10.887-17.675-19.984c-2.545,7.871-7.635,15.225-17.627,20.031c-0.896-1.555-2.545-3.582-4.194-4.76
		c10.793-4.807,15.271-12.631,17.108-20.738h-16.213v-5.797h17.155c0.472-4.43,0.424-8.719,0.472-12.584h6.127
		c-0.047,3.865-0.094,8.201-0.565,12.584h18.522v5.797H237.895z"/>
	<path fill="#C6B82E" d="M301.715,207.716h-13.81l4.431,0.895c-0.943,1.697-1.979,3.346-2.922,4.809h10.133v23.848
		c0,2.498-0.613,3.582-2.356,4.242c-1.697,0.658-4.242,0.707-8.013,0.707c-0.235-1.227-0.849-2.971-1.508-4.102
		c2.262,0.094,4.948,0.094,5.655,0.047c0.754,0,1.037-0.234,1.037-0.941v-19.277h-7.306v1.227c0,0.895,0.095,1.318,0.896,1.318h2.31
		c0.707,0,2.121-0.094,2.733-0.283c0.048,1.273,0.142,2.451,0.33,3.725c-0.659,0.234-1.933,0.33-2.969,0.33h-3.771
		c-3.818,0-4.478-1.791-4.478-5.139v-1.178h-3.347c-0.565,3.488-2.026,5.75-6.127,7.258h17.062v11.5h-13.621v1.934h-4.666v-13.01
		c-0.565,0.143-1.131,0.283-1.791,0.426c-0.329-1.037-1.319-2.594-2.215-3.488v19.795h-5.373v-28.938h9.709
		c-0.519-1.414-1.414-3.254-2.168-4.715l3.11-0.988h-12.867v-4.713h18.57c-0.283-1.227-0.707-2.451-1.084-3.535l5.42-1.367
		c0.565,1.508,1.226,3.346,1.649,4.902h17.345V207.716z M267.403,222.231c4.383-0.754,5.892-2.027,6.457-4.289h-6.457V222.231z
		 M284.182,213.419c0.943-1.791,1.933-3.961,2.451-5.703h-11.877c0.849,1.555,1.838,3.393,2.356,4.617l-3.017,1.086H284.182z
		 M276.075,229.065v3.771h9.144v-3.771H276.075z"/>
	<path fill="#C6B82E" d="M323.635,210.731h-17.815v-4.43h7.353c-0.519-1.838-1.697-4.383-2.687-6.316l4.571-1.602
		c1.179,1.932,2.404,4.619,3.017,6.268l-3.911,1.65h9.473V210.731z M321.797,217.048h-14.14v-4.242h14.14V217.048z M340.696,230.667
		c2.026,3.348,5.09,5.75,9.567,6.93c-1.131,1.037-2.639,3.252-3.346,4.713c-4.996-1.697-8.248-4.76-10.463-9.096
		c-1.744,3.393-4.996,6.645-10.888,9.283c-0.754-1.035-2.215-2.592-3.535-3.533v0.941h-9.567v1.98h-4.808v-16.262h14.375v13.057
		c10.134-4.242,11.17-10.652,11.17-14.705v-5.609h5.326v5.703c0,0.471,0,0.896-0.047,1.367c0.471,1.602,1.036,3.016,1.743,4.336
		c1.226-2.357,2.687-5.703,3.488-8.154l5.09,1.744c-1.696,3.064-3.487,6.363-4.996,8.531L340.696,230.667z M307.657,219.12h14.14
		v4.242h-14.14V219.12z M317.178,230.103h-4.713v5.279h4.713V230.103z M327.17,232.647c-0.942-2.262-2.97-6.127-4.619-8.955
		l4.101-2.027c1.696,2.734,3.864,6.363,4.854,8.578L327.17,232.647z M345.457,220.771c-1.98-1.932-5.703-4.525-9.191-6.693
		c-1.885,3.205-5.043,5.373-10.51,6.977c-0.472-1.367-1.838-3.488-2.922-4.572c10.18-2.545,10.698-6.928,10.887-17.957h5.091
		c-0.048,4.289-0.236,7.871-0.896,10.84c3.864,2.121,8.342,4.902,10.698,6.977L345.457,220.771z M327.971,211.675
		c-0.942-2.168-3.016-5.846-4.571-8.484l4.053-2.215c1.65,2.639,3.771,6.033,4.808,8.105L327.971,211.675z M348.756,203.097
		c-1.838,2.781-3.724,5.75-5.231,7.729l-3.959-1.695c1.319-2.168,3.063-5.516,4.006-8.014L348.756,203.097z"/>
	<path fill="#C6B82E" d="M369.072,210.591h-15.836v-4.432h6.74c-0.377-1.791-1.226-4.24-1.979-6.174l4.807-1.271
		c0.849,1.932,1.839,4.617,2.263,6.314l-3.629,1.131h7.635V210.591z M354.415,216.858v-4.242h14.139v4.242H354.415z
		 M368.554,223.269h-14.139v-4.242h14.139V223.269z M368.225,238.257c2.686-1.697,5.467-4.902,6.928-7.871l3.912,1.461
		c-1.603,3.912-4.478,8.105-7.399,10.416c-0.802-1.131-2.263-2.781-3.44-3.725v1.367h-8.908v1.885h-4.76v-16.117h13.668V238.257z
		 M363.794,230.103h-4.478v5.42h4.478V230.103z M385.852,229.206v13.291h-5.421v-13.291h-10.51v-4.713h10.51v-2.875h-7.353v-13.572
		h-3.157v-4.715h3.157v-4.854h5.043v4.854h9.521v-4.854h5.325v4.854h3.535v4.715h-3.535v13.572h-7.116v2.875h10.651v4.713H385.852z
		 M378.121,208.046v2.449h9.521v-2.449H378.121z M378.121,217.142h9.521v-2.545h-9.521V217.142z M390.423,230.479
		c2.356,2.922,5.373,7.07,6.834,9.615l-4.194,2.168c-1.32-2.592-4.242-6.881-6.504-9.945L390.423,230.479z"/>
	<path fill="#C6B82E" d="M443.825,205.122c-1.838,4.525-4.618,8.391-7.965,11.596c2.64,1.602,5.608,2.779,8.813,3.535
		c-0.565,1.412-1.084,4.006-1.226,5.607c-0.659-0.188-1.272-0.377-1.885-0.613v16.779h-5.091v-2.355h-9.614v2.449h-4.901V225.2
		c-0.802,0.33-1.65,0.613-2.404,0.85c-0.235-1.133-0.848-2.875-1.461-4.102v12.301h-12.254v3.111h-4.194v-35.537h16.448v9.238
		c3.582-3.064,6.881-7.777,8.767-12.725l4.713,1.412c-0.472,1.227-1.037,2.404-1.649,3.582h9.709l0.99-0.188L443.825,205.122z
		 M405.838,206.632v8.955h2.498v-8.955H405.838z M405.838,229.442h2.498v-9.709h-2.498V229.442z M414.086,206.632h-2.404v8.955
		h2.404V206.632z M414.086,229.442v-9.709h-2.404v9.709H414.086z M418.092,220.534c3.44-0.941,6.74-2.355,9.662-4.053
		c-1.272-1.414-2.451-2.922-3.44-4.477c-1.132,1.318-2.31,2.545-3.488,3.629c-0.519-0.943-1.838-2.875-2.733-4.006V220.534z
		 M439.159,224.306c-2.687-1.178-5.137-2.592-7.353-4.242c-2.403,1.697-4.948,3.064-7.588,4.242H439.159z M436.473,234.769v-5.562
		h-9.614v5.562H436.473z M427.707,208.374c1.036,1.934,2.403,3.678,4.053,5.232c1.838-1.555,3.394-3.299,4.666-5.232H427.707z"/>
</g>
</svg>
