<svg xmlns="http://www.w3.org/2000/svg" viewBox="0 0 154.5 154.5"><defs><style>.cls-1{fill:#fe8d7b;}.cls-2{fill:none;stroke:#fff;stroke-miterlimit:10;stroke-width:0.5px;}</style></defs><title>intelligence-small</title><g id="圖層_2" data-name="圖層 2"><g id="智力"><circle class="cls-1" cx="77.25" cy="77.25" r="63.53"/><path class="cls-2" d="M109.5,7.31a77,77,0,0,1,13.57,131.83"/><path class="cls-2" d="M17.81,126.2A77,77,0,0,1,99.36,3.47"/><path class="cls-2" d="M114,144.92a77,77,0,0,1-93.54-15.65"/><circle class="cls-2" cx="25.16" cy="20.21" r="7.35"/><path class="cls-2" d="M25.17,25.56a6.38,6.38,0,0,1-.87-.07,5.36,5.36,0,0,1,.85-10.64,5.14,5.14,0,0,1,.88.08,5.35,5.35,0,0,1-.86,10.63Z"/><path class="cls-2" d="M25.17,22.56a2.56,2.56,0,0,1-.39,0,2.35,2.35,0,0,1-1.94-2.7,2.37,2.37,0,0,1,2.31-2,1.67,1.67,0,0,1,.39,0,2.35,2.35,0,0,1-.37,4.67Z"/><ellipse class="cls-2" cx="25.14" cy="20.88" rx="2.35" ry="11.08" transform="translate(0.46 42.31) rotate(-80.68)"/></g></g></svg>