<svg xmlns="http://www.w3.org/2000/svg" xmlns:xlink="http://www.w3.org/1999/xlink" viewBox="0 0 555.59 293.6"><defs><style>.cls-1{isolation:isolate;}.cls-2{fill:url(#未命名漸層_21);}.cls-10,.cls-3{fill:none;}.cls-4{fill:#cad6ac;}.cls-5{fill:#67745a;}.cls-6{fill:#8e322a;}.cls-7{fill:#af3e36;}.cls-8{fill:#c7746e;}.cls-9{opacity:0.4;mix-blend-mode:lighten;fill:url(#未命名漸層_182);}.cls-10{stroke:#fff;stroke-linecap:round;stroke-miterlimit:10;stroke-width:9.08px;}.cls-11{opacity:0.35;mix-blend-mode:overlay;fill:url(#未命名漸層_168);}</style><linearGradient id="未命名漸層_21" x1="360.25" y1="35.46" x2="193.66" y2="257.82" gradientUnits="userSpaceOnUse"><stop offset="0" stop-color="#cbd7ad"/><stop offset="0.19" stop-color="#bbc79d"/><stop offset="0.61" stop-color="#9ca87d"/><stop offset="0.84" stop-color="#909c71"/></linearGradient><linearGradient id="未命名漸層_182" x1="421.45" y1="34.92" x2="490.39" y2="111.4" gradientTransform="matrix(-0.89, 1.02, -1.1, -0.82, 784.29, -330.45)" gradientUnits="userSpaceOnUse"><stop offset="0" stop-color="#fff" stop-opacity="0"/><stop offset="0.04" stop-color="#fff" stop-opacity="0.07"/><stop offset="0.2" stop-color="#fff" stop-opacity="0.31"/><stop offset="0.35" stop-color="#fff" stop-opacity="0.52"/><stop offset="0.5" stop-color="#fff" stop-opacity="0.69"/><stop offset="0.64" stop-color="#fff" stop-opacity="0.83"/><stop offset="0.77" stop-color="#fff" stop-opacity="0.92"/><stop offset="0.9" stop-color="#fff" stop-opacity="0.98"/><stop offset="1" stop-color="#fff"/></linearGradient><radialGradient id="未命名漸層_168" cx="260.35" cy="165.51" r="124.4" gradientUnits="userSpaceOnUse"><stop offset="0.36" stop-color="#fff"/><stop offset="0.97" stop-color="#999"/></radialGradient></defs><title>planet5_1</title><g class="cls-1"><g id="圖層_2" data-name="圖層 2"><g id="plant"><circle class="cls-2" cx="276.69" cy="147" r="142"/><rect class="cls-3" width="555.59" height="293.6"/><polygon class="cls-4" points="394.95 132.83 372.34 129.24 356.53 155.82 363.34 185.98 385.95 189.57 401.76 162.99 394.95 132.83"/><polyline class="cls-5" points="357.84 160.38 373.64 133.81 395.84 137.32 394.82 132.81 372.21 129.22 356.41 155.8 357.49 160.59"/><polygon class="cls-4" points="331.14 176.18 316.43 172.5 304.91 187.33 308.1 205.84 322.81 209.51 334.33 194.68 331.14 176.18"/><polyline class="cls-5" points="305.57 190.15 317.09 175.32 331.54 178.93 331.06 176.16 316.35 172.48 304.82 187.31 305.33 190.25"/><polygon class="cls-4" points="379.13 205.36 370.67 201.33 361.38 209.93 360.56 222.56 369.02 226.59 378.31 217.99 379.13 205.36"/><polyline class="cls-5" points="361.37 211.88 370.65 203.27 378.96 207.23 379.08 205.34 370.62 201.31 361.34 209.91 361.2 211.92"/><polygon class="cls-4" points="310.59 236.32 305.34 233.81 299.57 239.16 299.06 247 304.31 249.5 310.08 244.16 310.59 236.32"/><polyline class="cls-5" points="299.56 240.36 305.33 235.02 310.49 237.48 310.56 236.3 305.31 233.8 299.54 239.14 299.46 240.39"/><polygon class="cls-4" points="311.64 141.66 306.38 139.16 300.62 144.5 300.1 152.35 305.36 154.85 311.13 149.51 311.64 141.66"/><polyline class="cls-5" points="300.61 145.71 306.37 140.37 311.53 142.83 311.61 141.65 306.35 139.15 300.59 144.49 300.5 145.74"/><polygon class="cls-4" points="343.86 240.46 336.83 237.11 329.12 244.26 328.43 254.75 335.46 258.09 343.17 250.95 343.86 240.46"/><polyline class="cls-5" points="329.1 245.87 336.81 238.73 343.71 242.01 343.82 240.44 336.79 237.09 329.08 244.24 328.97 245.9"/><polygon class="cls-4" points="279.42 208.28 263.53 205.45 252.03 223.97 256.42 245.32 272.31 248.15 283.81 229.63 279.42 208.28"/><polyline class="cls-5" points="252.89 227.2 264.39 208.68 279.99 211.47 279.33 208.27 263.44 205.43 251.94 223.95 252.64 227.34"/><polygon class="cls-4" points="164.45 114.72 180.59 114.91 188.42 135.25 180.11 155.4 163.97 155.21 156.14 134.87 164.45 114.72"/><polyline class="cls-5" points="186.97 138.27 179.14 117.93 163.3 117.74 164.54 114.72 180.68 114.91 188.51 135.25 187.19 138.46"/><polygon class="cls-4" points="213.1 136.91 228.99 134.08 239.22 145.51 233.57 159.79 217.69 162.62 207.45 151.18 213.1 136.91"/><polyline class="cls-5" points="238.18 147.69 227.94 136.25 212.34 139.03 213.19 136.9 229.08 134.06 239.31 145.5 238.41 147.77"/><polygon class="cls-4" points="224.44 188.47 235.64 186.47 242.86 194.53 238.87 204.59 227.67 206.59 220.45 198.53 224.44 188.47"/><polyline class="cls-5" points="242.12 196.06 234.9 188 223.91 189.96 224.5 188.46 235.71 186.46 242.92 194.52 242.29 196.12"/><polygon class="cls-4" points="269.19 271.58 275.76 262.28 286.56 262.95 290.8 272.91 284.23 282.2 273.43 281.54 269.19 271.58"/><polyline class="cls-5" points="287.11 264.56 276.31 263.89 269.86 273.02 269.23 271.52 275.8 262.23 286.6 262.9 287.27 264.48"/><polygon class="cls-4" points="174.06 184.3 193.15 184.53 202.47 204.05 192.68 223.35 173.59 223.12 164.28 203.59 174.06 184.3"/><polyline class="cls-5" points="200.76 206.94 191.45 187.41 172.7 187.19 174.17 184.3 193.26 184.53 202.57 204.06 201.02 207.12"/><polygon class="cls-4" points="213.75 248.96 221.33 247.61 226.49 254.63 224.08 263.01 216.5 264.36 211.34 257.34 213.75 248.96"/><polyline class="cls-5" points="226.03 255.91 220.87 248.88 213.44 250.21 213.8 248.95 221.37 247.6 226.53 254.63 226.15 255.96"/><circle class="cls-6" cx="212.6" cy="81.96" r="20.27"/><circle class="cls-7" cx="210.98" cy="84.25" r="18.06"/><circle class="cls-8" cx="209.72" cy="85.5" r="16.81"/><ellipse class="cls-9" cx="319.62" cy="73.25" rx="50.25" ry="75.03" transform="translate(75.32 291.97) rotate(-54.75)"/><path class="cls-10" d="M350.15,66.58A149.87,149.87,0,0,0,304.7,34.73"/><path class="cls-10" d="M367.59,88.06q-3.25-4.86-6.89-9.47"/><path class="cls-11" d="M147.85,133.25a141.43,141.43,0,0,1,33-91.06A142,142,0,1,0,385.83,237.88a142,142,0,0,1-238-104.63Z"/></g></g></g></svg>