<svg xmlns="http://www.w3.org/2000/svg" xmlns:xlink="http://www.w3.org/1999/xlink" viewBox="0 0 555.59 301.67"><defs><style>.cls-1{isolation:isolate;}.cls-2,.cls-8{fill:none;}.cls-3{fill:url(#未命名漸層_195);}.cls-4{opacity:0.3;mix-blend-mode:overlay;}.cls-5{fill:url(#未命名漸層_168);}.cls-6{fill:#fe7a32;}.cls-7{fill:#f94e03;}.cls-8{stroke:#fff;stroke-linecap:round;stroke-miterlimit:10;stroke-width:9.08px;}.cls-9{opacity:0.4;mix-blend-mode:lighten;fill:url(#未命名漸層_182);}</style><linearGradient id="未命名漸層_195" x1="171.28" y1="40.56" x2="378.63" y2="257.07" gradientUnits="userSpaceOnUse"><stop offset="0" stop-color="#ffc873"/><stop offset="0.2" stop-color="#feb46a"/><stop offset="0.5" stop-color="#fd9c5f"/><stop offset="0.77" stop-color="#fc8d58"/><stop offset="1" stop-color="#fc8856"/></linearGradient><radialGradient id="未命名漸層_168" cx="289.84" cy="172.13" r="133.75" gradientUnits="userSpaceOnUse"><stop offset="0.36" stop-color="#fff"/><stop offset="0.97" stop-color="#999"/></radialGradient><linearGradient id="未命名漸層_182" x1="142.83" y1="41.24" x2="211.77" y2="117.72" gradientTransform="matrix(1.02, 0.89, -0.82, 1.1, 106.83, -151.71)" gradientUnits="userSpaceOnUse"><stop offset="0" stop-color="#fff" stop-opacity="0"/><stop offset="0.04" stop-color="#fff" stop-opacity="0.07"/><stop offset="0.2" stop-color="#fff" stop-opacity="0.31"/><stop offset="0.35" stop-color="#fff" stop-opacity="0.52"/><stop offset="0.5" stop-color="#fff" stop-opacity="0.69"/><stop offset="0.64" stop-color="#fff" stop-opacity="0.83"/><stop offset="0.77" stop-color="#fff" stop-opacity="0.92"/><stop offset="0.9" stop-color="#fff" stop-opacity="0.98"/><stop offset="1" stop-color="#fff"/></linearGradient></defs><title>planet3</title><g class="cls-1"><g id="圖層_2" data-name="圖層 2"><g id="plant"><rect class="cls-2" width="555.59" height="301.67"/><circle class="cls-3" cx="276.89" cy="150.83" r="150.8"/><g class="cls-4"><path class="cls-5" d="M381.87,42.62A150.78,150.78,0,0,1,152,235.34,150.79,150.79,0,1,0,381.87,42.62Z"/></g><circle class="cls-6" cx="307.32" cy="190.42" r="22.08"/><path class="cls-7" d="M324.37,180.83a22,22,0,0,1-28.51,28.46,22.06,22.06,0,1,0,19.3-39.47A21.92,21.92,0,0,1,324.37,180.83Z"/><ellipse class="cls-6" cx="374.44" cy="111.43" rx="22.08" ry="36.71" transform="translate(-16.04 99.42) rotate(-14.81)"/><path class="cls-7" d="M378,82.5c12.21,10.86,18.81,33.12,14.73,49.74-1.9,7.7-5.76,12.79-10.57,15,6.53-.9,12-6.48,14.34-16.12,4.09-16.61-2.51-38.87-14.72-49.73-6.55-5.82-13.38-7.14-18.94-4.58C367.59,76.15,372.89,77.94,378,82.5Z"/><ellipse class="cls-6" cx="162.46" cy="157.44" rx="10.48" ry="19.03"/><path class="cls-7" d="M157,171c-4.11-7.4-4.13-19.45-.06-26.9,1.89-3.46,4.33-5.3,6.82-5.57-3.1-.67-6.32,1.14-8.68,5.47-4.08,7.45-4.05,19.5,0,26.91,2.2,4,5.13,5.78,8,5.47C160.86,175.91,158.69,174.13,157,171Z"/><ellipse class="cls-6" cx="160.6" cy="208.86" rx="4.39" ry="7.97" transform="translate(-71.23 83.67) rotate(-24.07)"/><path class="cls-7" d="M160.82,215a13,13,0,0,1-4.62-10.29,4,4,0,0,1,1.66-3.29c-1.3.27-2.22,1.52-2.39,3.57a13,13,0,0,0,4.62,10.29c1.52,1.14,2.95,1.33,4,.73A4.2,4.2,0,0,1,160.82,215Z"/><ellipse class="cls-6" cx="203.21" cy="210.49" rx="11.84" ry="20.77" transform="translate(-82.37 146.88) rotate(-33.45)"/><path class="cls-7" d="M205.74,226.12c-8.34-4.5-15.39-15.6-15.74-24.78-.17-4.26,1.15-7.33,3.43-9-3.42,1.13-5.52,4.62-5.32,9.94.35,9.18,7.4,20.28,15.74,24.79,4.48,2.42,8.41,2.43,11,.52C212.41,228.43,209.25,228,205.74,226.12Z"/><ellipse class="cls-6" cx="361.23" cy="216.36" rx="12.84" ry="9.71" transform="translate(22.33 466.25) rotate(-67.32)"/><path class="cls-7" d="M370.3,214.1c-.79,6.86-6,12.73-11.57,13.13a7.49,7.49,0,0,1-6.38-2.68,7.67,7.67,0,0,0,7.43,4.21c5.6-.4,10.78-6.28,11.57-13.13a11.64,11.64,0,0,0-2.32-9A12.49,12.49,0,0,1,370.3,214.1Z"/><ellipse class="cls-6" cx="293.79" cy="255.71" rx="10.48" ry="7.92" transform="translate(-95.62 263.61) rotate(-42.2)"/><path class="cls-7" d="M301.27,257.18c-3,4.79-8.82,7.34-13.1,5.7a6.12,6.12,0,0,1-3.78-4.2,6.26,6.26,0,0,0,4,5.69c4.27,1.64,10.14-.91,13.1-5.7a9.49,9.49,0,0,0,1.4-7.45A10.14,10.14,0,0,1,301.27,257.18Z"/><ellipse class="cls-6" cx="239.92" cy="253.54" rx="3.76" ry="5.83" transform="translate(-63.27 426.5) rotate(-76.28)"/><path class="cls-7" d="M240.9,257c-3.17-.34-5.85-2.35-6-4.48a2.65,2.65,0,0,1,1.29-2.41,2.88,2.88,0,0,0-2,2.8c.14,2.13,2.82,4.14,6,4.48a6.31,6.31,0,0,0,4.18-.82A6.92,6.92,0,0,1,240.9,257Z"/><circle class="cls-6" cx="252.1" cy="226.47" r="6.43"/><path class="cls-7" d="M257.06,223.67a6.42,6.42,0,0,1-8.3,8.29,6.42,6.42,0,1,0,5.62-11.49A6.38,6.38,0,0,1,257.06,223.67Z"/><circle class="cls-6" cx="188.39" cy="239.77" r="3.21"/><path class="cls-7" d="M188.11,242.6a3.2,3.2,0,0,1-2.33-3.89,3.16,3.16,0,0,1,1.31-1.88,3.21,3.21,0,1,0,3.1,5.59A3.2,3.2,0,0,1,188.11,242.6Z"/><circle class="cls-6" cx="204.88" cy="258.99" r="7.86"/><path class="cls-7" d="M202.86,265.65a7.84,7.84,0,0,1,.33-14.33,7.85,7.85,0,1,0,4.75,14.9A7.76,7.76,0,0,1,202.86,265.65Z"/><circle class="cls-6" cx="322.98" cy="138.41" r="6.43"/><path class="cls-7" d="M327.94,135.62a6.43,6.43,0,0,1-3.72,8.29,6.34,6.34,0,0,1-4.58,0,6.42,6.42,0,1,0,5.62-11.49A6.41,6.41,0,0,1,327.94,135.62Z"/><circle class="cls-6" cx="353.06" cy="173.8" r="3.98"/><path class="cls-7" d="M356.14,172.07A4,4,0,0,1,351,177.2a4,4,0,0,0,5.78-4.82,4,4,0,0,0-2.3-2.3A4,4,0,0,1,356.14,172.07Z"/><path class="cls-8" d="M193.93,62.19a150,150,0,0,1,45.45-31.85"/><path class="cls-8" d="M176.49,83.67q3.25-4.86,6.89-9.47"/><ellipse class="cls-9" cx="221.22" cy="72.59" rx="75.03" ry="50.25" transform="translate(5.09 159.17) rotate(-40)"/></g></g></g></svg>