<svg xmlns="http://www.w3.org/2000/svg" xmlns:xlink="http://www.w3.org/1999/xlink" viewBox="0 0 554.32 340.42"><defs><style>.cls-1{opacity:0.78;}.cls-2{filter:url(#luminosity-noclip-3);}.cls-3{isolation:isolate;}.cls-4{fill:#e44440;}.cls-5{fill:#c4201c;}.cls-6{fill:#f05064;}.cls-7{fill:#fc857d;}.cls-8{opacity:0.6;fill:url(#未命名漸層_16);}.cls-16,.cls-8{mix-blend-mode:overlay;}.cls-9{mask:url(#mask);}.cls-10,.cls-11{mix-blend-mode:color-dodge;}.cls-10{fill:url(#未命名漸層_38);}.cls-11{fill:url(#未命名漸層_56);}.cls-12,.cls-13{mix-blend-mode:screen;}.cls-12{fill:url(#未命名漸層_63);}.cls-13{fill:url(#未命名漸層_57);}.cls-14{fill:none;stroke:#fff;stroke-linecap:round;stroke-miterlimit:10;stroke-width:10.65px;}.cls-15{mask:url(#mask-3);}.cls-16{opacity:0.5;fill:url(#未命名漸層_144);}.cls-17{filter:url(#luminosity-noclip);}</style><radialGradient id="未命名漸層_16" cx="255.81" cy="194.83" r="143.36" gradientUnits="userSpaceOnUse"><stop offset="0" stop-color="#fff" stop-opacity="0"/><stop offset="0.13" stop-color="#f7f7f7" stop-opacity="0.08"/><stop offset="0.38" stop-color="#e1e1e1" stop-opacity="0.3"/><stop offset="0.7" stop-color="#bdbdbd" stop-opacity="0.65"/><stop offset="1" stop-color="#999"/></radialGradient><filter id="luminosity-noclip" x="0" y="16.6" width="554.32" height="297.17" filterUnits="userSpaceOnUse" color-interpolation-filters="sRGB"><feFlood flood-color="#fff" result="bg"/><feBlend in="SourceGraphic" in2="bg"/></filter><mask id="mask" x="0" y="16.6" width="554.32" height="297.17" maskUnits="userSpaceOnUse"><g class="cls-17"><path d="M80,111.7"/><path class="cls-1" d="M413.89,90.82a163.07,163.07,0,0,0-289.54,31.93l302,122.7A162.94,162.94,0,0,0,413.89,90.82Z"/></g></mask><linearGradient id="未命名漸層_38" x1="463.37" y1="-43.06" x2="93.48" y2="397.76" gradientTransform="matrix(0.54, 0.84, -0.84, 0.54, 274.15, -150.42)" gradientUnits="userSpaceOnUse"><stop offset="0" stop-color="#a72973"/><stop offset="0.94" stop-color="#2e4454"/></linearGradient><linearGradient id="未命名漸層_56" x1="463.37" y1="-43.06" x2="93.48" y2="397.76" gradientTransform="matrix(0.54, 0.84, -0.84, 0.54, 274.15, -150.42)" gradientUnits="userSpaceOnUse"><stop offset="0" stop-color="#a72973"/><stop offset="0.13" stop-color="#83205a" stop-opacity="0.87"/><stop offset="0.32" stop-color="#55153a" stop-opacity="0.7"/><stop offset="0.5" stop-color="#300c21" stop-opacity="0.57"/><stop offset="0.67" stop-color="#16050f" stop-opacity="0.48"/><stop offset="0.82" stop-color="#060104" stop-opacity="0.42"/><stop offset="0.94" stop-opacity="0.4"/></linearGradient><linearGradient id="未命名漸層_63" x1="466.17" y1="-14.41" x2="466.17" y2="7.98" gradientTransform="matrix(0.54, 0.84, -0.84, 0.54, 274.15, -150.42)" gradientUnits="userSpaceOnUse"><stop offset="0" stop-color="#c4201c"/><stop offset="0.43" stop-color="#cf2c28"/><stop offset="1" stop-color="#e44440"/></linearGradient><linearGradient id="未命名漸層_57" x1="33.35" y1="309" x2="33.35" y2="331.39" gradientTransform="matrix(0.54, 0.84, -0.84, 0.54, 274.15, -150.42)" gradientUnits="userSpaceOnUse"><stop offset="0" stop-color="#c4201c" stop-opacity="0.7"/><stop offset="0.2" stop-color="#c02127" stop-opacity="0.74"/><stop offset="0.55" stop-color="#b62446" stop-opacity="0.84"/><stop offset="1" stop-color="#a72973"/></linearGradient><filter id="luminosity-noclip-3" x="112.6" y="-163.91" width="565" height="520" filterUnits="userSpaceOnUse" color-interpolation-filters="sRGB"><feFlood flood-color="#fff" result="bg"/><feBlend in="SourceGraphic" in2="bg"/></filter><mask id="mask-3" x="112.6" y="-163.91" width="565" height="520" maskUnits="userSpaceOnUse"><path class="cls-2" d="M588.6-106.91l-276-57-200,93s25.24,65.4,51.45,132.05A163.07,163.07,0,1,1,360.18,318.47l44.42,37.62,254-56,19-171Z"/></mask><radialGradient id="未命名漸層_144" cx="318.08" cy="142.92" r="140.39" gradientUnits="userSpaceOnUse"><stop offset="0" stop-color="#fff"/><stop offset="0.1" stop-color="#fff" stop-opacity="0.98"/><stop offset="0.22" stop-color="#fff" stop-opacity="0.91"/><stop offset="0.36" stop-color="#fff" stop-opacity="0.81"/><stop offset="0.51" stop-color="#fff" stop-opacity="0.67"/><stop offset="0.67" stop-color="#fff" stop-opacity="0.48"/><stop offset="0.84" stop-color="#fff" stop-opacity="0.25"/><stop offset="1" stop-color="#fff" stop-opacity="0"/></radialGradient></defs><title>資產 2</title><g class="cls-3"><g id="圖層_2" data-name="圖層 2"><g id="Star3"><circle class="cls-4" cx="278.43" cy="177.35" r="163.07" transform="translate(-43.86 248.82) rotate(-45)"/><path class="cls-5" d="M421.79,99.58c-19.82,15.37-45,37.31-86.57,45.82-61.41,12.58-84.34-19.39-145-8.94-27.11,4.67-51.92,16.12-74.65,32.64q-.21,4.1-.21,8.25a163.57,163.57,0,0,0,4,36.27c23-16.91,48.15-28.64,75.66-33.38,60.65-10.45,83.58,21.52,145,8.94,48.56-10,74.8-38.24,96.2-52.94A161.84,161.84,0,0,0,421.79,99.58Z"/><path class="cls-6" d="M298.16,220.65C248.62,219.59,231.9,184.73,186.3,193c-26.68,4.82-47.19,21.5-61.88,38.08a162.41,162.41,0,0,0,11.21,25.09C149.36,243,167,231.19,188.68,227.26,234.27,219,251,253.88,300.54,255c68.6,1.47,106-63.9,140.6-67,.22-3.52.35-7.06.35-10.63a163.23,163.23,0,0,0-1.73-23.75C404.94,155.48,367.43,222.14,298.16,220.65Z"/><path class="cls-7" d="M400.93,243.13c-23.93,13.18-86,47.39-131.78,28-12.09-5.13-15.44-10.77-35.2-18.05-13.38-4.93-29-10.68-47.83-9-15.51,1.36-33.22,7.75-46.47,19a163.58,163.58,0,0,0,20.74,26.86,87.43,87.43,0,0,1,25.73-6.45c18.85-1.66,34.45,4.09,47.83,9,19.76,7.28,23.11,12.92,35.2,18.05,45.78,19.41,107.85-14.79,131.78-28,1.39-.76,2.71-1.51,4-2.24a162.8,162.8,0,0,0,30.28-57.9C428.31,225.25,420,232.63,400.93,243.13Z"/><path class="cls-6" d="M418.69,94.16a161.23,161.23,0,0,0-10.38-15.39c-28.69,25-73.58,32.05-106.66,29.88-60.09-3.94-73-37.59-116.43-28.88-27.67,5.55-45,23.78-57.84,36.05a161.86,161.86,0,0,0-9.81,34.67c13.67-9.55,32.21-37.44,67.65-44.55,43.39-8.71,56.34,24.94,116.43,28.88C339.07,137.28,391.58,128,418.69,94.16Z"/><path class="cls-7" d="M376.44,47a95,95,0,0,1-23.35,8.29c-29.46,6.21-56.81-3.1-84.84-12.64C247,35.45,234.6,28.42,223.05,23.94A163.1,163.1,0,0,0,172,53.83,104.84,104.84,0,0,1,193.34,50c27.21-1.74,36.9,10.53,74.91,23.47,28,9.54,55.38,18.85,84.84,12.64,17.76-3.75,32.15-12.27,43.27-21.35A163.5,163.5,0,0,0,376.44,47Z"/><path class="cls-5" d="M278.43,14.29c-.93,0-1.85,0-2.78,0a139.38,139.38,0,0,0,26.9,12.2c17.15,5.66,40.68,9.7,55.58,8.55A162.31,162.31,0,0,0,278.43,14.29Z"/><path class="cls-5" d="M330.81,331.82c-7.48-2.81-18.66-4.74-29.16-6.56-26-4.49-28.55.89-46-3.61-27.05-7-30.68-22.35-50.54-21.66-8.2.29-17.78,3.27-24.26,8a163.23,163.23,0,0,0,28.82,17.25c6.43.65,11.11,3.2,16,6.44a163.78,163.78,0,0,0,105.19.15Z"/><path class="cls-8" d="M396.91,288.71A163.08,163.08,0,0,1,176.83,49.25,163.08,163.08,0,1,0,396.91,288.71Z"/><g class="cls-9"><path class="cls-10" d="M552.65,290.87c16.69-41.37-93.11-124.69-245.25-186.1S18.38,27.12,1.68,68.49s93.1,124.69,245.25,186.1S536,332.24,552.65,290.87ZM251.83,242.45C113.16,186.48,12.08,113,26.08,78.34s137.75-17.4,276.42,38.57S542.24,246.36,528.25,281,390.5,298.42,251.83,242.45Z"/></g><g class="cls-9"><path class="cls-11" d="M552.65,290.87c16.69-41.37-93.11-124.69-245.25-186.1S18.38,27.12,1.68,68.49s93.1,124.69,245.25,186.1S536,332.24,552.65,290.87ZM251.83,242.45C113.16,186.48,12.08,113,26.08,78.34s137.75-17.4,276.42,38.57S542.24,246.36,528.25,281,390.5,298.42,251.83,242.45Z"/></g><circle class="cls-12" cx="530.87" cy="238.71" r="11.19"/><circle class="cls-13" cx="23.84" cy="52.03" r="11.19"/><path class="cls-14" d="M391.57,96.34a204.1,204.1,0,0,1,16.1,19.35"/><path class="cls-14" d="M301.23,41a201.08,201.08,0,0,1,70.89,37.27"/><g class="cls-15"><path class="cls-16" d="M445.76,96.34c0,111.43,47.7,189.5-63.74,189.5S180.26,195.51,180.26,84.08s27.25-80,138.68-80S445.76-15.09,445.76,96.34Z"/></g></g></g></g></svg>