<svg xmlns="http://www.w3.org/2000/svg" xmlns:xlink="http://www.w3.org/1999/xlink" viewBox="0 0 555.59 318.17"><defs><style>.cls-1{filter:url(#luminosity-noclip);}.cls-2{isolation:isolate;}.cls-13,.cls-3{opacity:0.5;}.cls-11,.cls-13,.cls-3{mix-blend-mode:overlay;}.cls-3{fill:url(#未命名漸層_50);}.cls-4{fill:url(#未命名漸層_36);}.cls-5{fill:url(#未命名漸層_15);}.cls-6{fill:url(#未命名漸層_18);}.cls-7{fill:url(#未命名漸層_29);}.cls-8{fill:url(#未命名漸層_18-2);}.cls-9{fill:url(#未命名漸層_24);}.cls-10{fill:#55ccd3;}.cls-11{opacity:0.61;fill:url(#未命名漸層_67);}.cls-12{mask:url(#mask);}.cls-13{fill:url(#未命名漸層_144);}.cls-14,.cls-15{fill:none;}.cls-14{stroke:#fff;stroke-linecap:round;stroke-miterlimit:10;stroke-width:10.65px;}</style><radialGradient id="未命名漸層_50" cx="274.91" cy="166.5" r="150" gradientUnits="userSpaceOnUse"><stop offset="0" stop-color="#55ccd3"/><stop offset="0" stop-color="#60cdd2" stop-opacity="0.9"/><stop offset="0" stop-color="#7ed1cf" stop-opacity="0.64"/><stop offset="0" stop-color="#add7ca" stop-opacity="0.23"/><stop offset="0" stop-color="#c7dac7" stop-opacity="0"/><stop offset="1" stop-color="#fff" stop-opacity="0.98"/></radialGradient><linearGradient id="未命名漸層_36" x1="274.42" y1="204.7" x2="273.23" y2="-11.01" gradientUnits="userSpaceOnUse"><stop offset="0.09" stop-color="#55ccd3"/><stop offset="0.19" stop-color="#6acfd1"/><stop offset="0.39" stop-color="#a0d5cb"/><stop offset="0.52" stop-color="#c7dac7"/></linearGradient><linearGradient id="未命名漸層_15" x1="278.39" y1="300.26" x2="277.24" y2="230.55" gradientUnits="userSpaceOnUse"><stop offset="0" stop-color="#fe6787"/><stop offset="1" stop-color="#ffb68c"/></linearGradient><linearGradient id="未命名漸層_18" x1="134.72" y1="255.15" x2="133.6" y2="126.71" gradientUnits="userSpaceOnUse"><stop offset="0.13" stop-color="#fe8d7b"/><stop offset="0.34" stop-color="#fea285"/><stop offset="0.68" stop-color="#fc9"/></linearGradient><linearGradient id="未命名漸層_29" x1="265.92" y1="189.93" x2="134.81" y2="147.26" gradientUnits="userSpaceOnUse"><stop offset="0.18" stop-color="#fe8d7b"/><stop offset="0.39" stop-color="#fea285"/><stop offset="0.73" stop-color="#fc9"/></linearGradient><linearGradient id="未命名漸層_18-2" x1="275.67" y1="253.92" x2="274.55" y2="125.48" xlink:href="#未命名漸層_18"/><linearGradient id="未命名漸層_24" x1="275.54" y1="238.26" x2="274.79" y2="153.05" gradientUnits="userSpaceOnUse"><stop offset="0.13" stop-color="#fe8d7b"/><stop offset="0.4" stop-color="#fea285"/><stop offset="0.83" stop-color="#fc9"/></linearGradient><radialGradient id="未命名漸層_67" cx="277.69" cy="168.54" r="143.34" gradientUnits="userSpaceOnUse"><stop offset="0.34" stop-color="#fff"/><stop offset="0.41" stop-color="#f9f9f9"/><stop offset="0.5" stop-color="#e8e8e8"/><stop offset="0.61" stop-color="#ccc"/><stop offset="0.72" stop-color="#a5a5a5"/><stop offset="0.85" stop-color="#747474"/><stop offset="0.88" stop-color="#666"/></radialGradient><filter id="luminosity-noclip" x="91.69" y="-163.91" width="565" height="520" filterUnits="userSpaceOnUse" color-interpolation-filters="sRGB"><feFlood flood-color="#fff" result="bg"/><feBlend in="SourceGraphic" in2="bg"/></filter><mask id="mask" x="91.69" y="-163.91" width="565" height="520" maskUnits="userSpaceOnUse"><path class="cls-1" d="M567.69-106.91l-276-57-200,93s25.24,65.4,51.45,132.05A163.07,163.07,0,1,1,339.27,318.47l44.42,37.62,254-56,19-171Z"/></mask><radialGradient id="未命名漸層_144" cx="297.17" cy="142.92" r="140.39" gradientUnits="userSpaceOnUse"><stop offset="0" stop-color="#fff"/><stop offset="0.1" stop-color="#fff" stop-opacity="0.98"/><stop offset="0.22" stop-color="#fff" stop-opacity="0.91"/><stop offset="0.36" stop-color="#fff" stop-opacity="0.81"/><stop offset="0.51" stop-color="#fff" stop-opacity="0.67"/><stop offset="0.67" stop-color="#fff" stop-opacity="0.48"/><stop offset="0.84" stop-color="#fff" stop-opacity="0.25"/><stop offset="1" stop-color="#fff" stop-opacity="0"/></radialGradient></defs><title>planet2</title><g class="cls-2"><g id="圖層_2" data-name="圖層 2"><g id="plant"><circle class="cls-3" cx="274.91" cy="166.5" r="150"/><path class="cls-4" d="M358.91,134.5c2.32-.2,28.69-2.09,56,8a142,142,0,0,0-281.54,12.92c30.49,4.72,45.84,42.65,90.57,43.09C279.78,199.05,292.11,140.23,358.91,134.5Z"/><path class="cls-5" d="M358.91,186.5c-66.8,5.73-79.13,64.55-135,64-41.72-.41-57.87-33.42-84.59-41.71A142,142,0,0,0,414.2,194.24C387.16,184.45,361.21,186.3,358.91,186.5Z"/><path class="cls-6" d="M133.34,155.41c0,.28,0,.56-.05.84l1.12-.64C134.06,155.55,133.7,155.46,133.34,155.41Z"/><path class="cls-7" d="M279.89,174.36l-3-.86c-33.94-9.85-30.76-19.4-58-26C192,141,157,142.61,132.41,156.61c29.78,5.44,45.3,42.46,89.5,42.89C247.09,199.75,263.43,187.94,279.89,174.36Z"/><path class="cls-8" d="M139.32,208.79c26.72,8.29,42.87,41.3,84.59,41.71,55.87.55,68.2-58.27,135-64,2.3-.2,28.25-2.05,55.29,7.74a143.15,143.15,0,0,0,2.71-27.74q0-6.25-.54-12.37c-9.23,3.05-20.95,15.29-48.46,22.37-37.25,9.59-70.62,1.24-86-3.14-16.46,13.58-32.8,25.39-58,25.14-44.2-.43-59.72-37.45-89.5-42.89l-1.12.64c-.24,3.38-.38,6.8-.38,10.25A141.64,141.64,0,0,0,139.32,208.79Z"/><path class="cls-9" d="M416.37,154.13q-.51-5.9-1.49-11.64c-27.28-10.08-53.65-8.19-56-8-36.69,3.15-57,22.31-77,38.86-16.46,13.58-32.8,25.39-58,25.14-44.2-.43-59.72-37.45-89.5-42.89l-1.12.64c-.24,3.38-.38,6.8-.38,10.25a141.64,141.64,0,0,0,6.41,42.29c26.72,8.29,42.87,41.3,84.59,41.71,55.87.55,68.2-58.27,135-64,2.3-.2,28.25-2.05,55.29,7.74a143.15,143.15,0,0,0,2.71-27.74Q416.91,160.25,416.37,154.13Z"/><path class="cls-10" d="M219.29,83.55c1.37.2,1.39,1.09,2.62,1.22,1.4.15,1.77-.88,3.32-.88a5.32,5.32,0,0,1,3.85,1.75c.32-.57-.48-1.62-.87-1.92a4,4,0,0,0-2.63-1c-1.55,0-1.92,1-3.32.88-1.23-.14-1.25-1-2.62-1.23a3.75,3.75,0,0,0-3.15,1.05c-.17.17-1.08,1.13-.92,1.94a5.15,5.15,0,0,1,.57-.72A3.71,3.71,0,0,1,219.29,83.55Z"/><path class="cls-10" d="M273.24,113.87c1.72.26,1.75,1.37,3.29,1.53,1.76.19,2.22-1.09,4.17-1.09a6.6,6.6,0,0,1,4.83,2.19c.4-.71-.6-2-1.09-2.41a5,5,0,0,0-3.3-1.32c-1.95,0-2.41,1.29-4.17,1.1-1.54-.17-1.57-1.28-3.29-1.54a4.7,4.7,0,0,0-3.95,1.32c-.22.21-1.35,1.42-1.16,2.43a6.37,6.37,0,0,1,.72-.9A4.67,4.67,0,0,1,273.24,113.87Z"/><path class="cls-10" d="M353.24,106.87c1.72.26,1.75,1.37,3.29,1.53,1.76.19,2.22-1.09,4.17-1.09a6.6,6.6,0,0,1,4.83,2.19c.4-.71-.6-2-1.09-2.41a5,5,0,0,0-3.3-1.32c-1.95,0-2.41,1.29-4.17,1.1-1.54-.17-1.57-1.28-3.29-1.54a4.7,4.7,0,0,0-3.95,1.32c-.22.21-1.35,1.42-1.16,2.43a6.37,6.37,0,0,1,.72-.9A4.67,4.67,0,0,1,353.24,106.87Z"/><path class="cls-10" d="M175.24,97.87c1.72.26,1.75,1.37,3.29,1.53,1.76.19,2.22-1.09,4.17-1.09a6.6,6.6,0,0,1,4.83,2.19c.4-.71-.6-2-1.09-2.41a5,5,0,0,0-3.3-1.32c-1.95,0-2.41,1.29-4.17,1.1-1.54-.17-1.57-1.28-3.29-1.54a4.7,4.7,0,0,0-4,1.32c-.22.21-1.35,1.42-1.16,2.43a6.37,6.37,0,0,1,.72-.9A4.67,4.67,0,0,1,175.24,97.87Z"/><path class="cls-10" d="M288.5,77.32c1.13.17,1.15.9,2.16,1s1.45-.72,2.74-.72a4.32,4.32,0,0,1,3.16,1.44c.27-.47-.39-1.34-.72-1.58a3.25,3.25,0,0,0-2.16-.87c-1.28,0-1.58.85-2.73.72s-1-.83-2.16-1a3.06,3.06,0,0,0-2.59.87c-.14.14-.89.93-.76,1.6a3.12,3.12,0,0,1,.47-.59A3.07,3.07,0,0,1,288.5,77.32Z"/><path class="cls-10" d="M345.5,71.32c1.13.17,1.15.9,2.16,1s1.45-.72,2.74-.72a4.32,4.32,0,0,1,3.16,1.44c.27-.47-.39-1.34-.72-1.58a3.25,3.25,0,0,0-2.16-.87c-1.28,0-1.58.85-2.73.72s-1-.83-2.16-1a3.06,3.06,0,0,0-2.59.87c-.14.14-.89.93-.76,1.6a3.12,3.12,0,0,1,.47-.59A3.07,3.07,0,0,1,345.5,71.32Z"/><path class="cls-10" d="M239,53.11c.9.14.92.72,1.73.81s1.16-.58,2.18-.58a3.41,3.41,0,0,1,2.52,1.15c.21-.37-.31-1.07-.57-1.26a2.61,2.61,0,0,0-1.72-.69c-1,0-1.26.67-2.18.57s-.83-.67-1.73-.8a2.42,2.42,0,0,0-2.06.69c-.11.11-.71.74-.61,1.27a3.13,3.13,0,0,1,.38-.47A2.46,2.46,0,0,1,239,53.11Z"/><path class="cls-10" d="M263,42.11c.9.14.92.72,1.73.81s1.16-.58,2.18-.58a3.41,3.41,0,0,1,2.52,1.15c.21-.37-.31-1.07-.57-1.26a2.61,2.61,0,0,0-1.72-.69c-1,0-1.26.67-2.18.57s-.83-.67-1.73-.8a2.42,2.42,0,0,0-2.06.69c-.11.11-.71.74-.61,1.27a3.13,3.13,0,0,1,.38-.47A2.46,2.46,0,0,1,263,42.11Z"/><path class="cls-10" d="M312,51.11c.9.14.92.72,1.73.81s1.16-.58,2.18-.58a3.41,3.41,0,0,1,2.52,1.15c.21-.37-.31-1.07-.57-1.26a2.61,2.61,0,0,0-1.72-.69c-1,0-1.26.67-2.18.57s-.83-.67-1.73-.8a2.42,2.42,0,0,0-2.06.69c-.11.11-.71.74-.61,1.27a3.13,3.13,0,0,1,.38-.47A2.46,2.46,0,0,1,312,51.11Z"/><path class="cls-11" d="M341.86,288.62A142,142,0,0,1,204.67,43,142,142,0,1,0,359.9,280.11,142.69,142.69,0,0,1,341.86,288.62Z"/><g class="cls-12"><path class="cls-13" d="M424.85,96.34c0,111.43,47.7,189.5-63.73,189.5S159.35,195.51,159.35,84.08s27.25-80,138.68-80S424.85-15.09,424.85,96.34Z"/></g><path class="cls-14" d="M376.83,104.28a201.61,201.61,0,0,1,13.84,21"/><path class="cls-14" d="M309.55,46.87a201.86,201.86,0,0,1,50,37.25"/><rect class="cls-15" y="16.5" width="555.59" height="301.67"/></g></g></g></svg>