<svg xmlns="http://www.w3.org/2000/svg" xmlns:xlink="http://www.w3.org/1999/xlink" viewBox="0 0 317.83 317.83"><defs><style>.cls-1{isolation:isolate;}.cls-2{fill:url(#未命名漸層_195);}.cls-3{opacity:0.3;mix-blend-mode:overlay;}.cls-4{fill:url(#未命名漸層_168);}.cls-5{fill:#fe7a32;}.cls-6{fill:#f94e03;}.cls-7{fill:none;stroke:#fff;stroke-linecap:round;stroke-miterlimit:10;stroke-width:9.08px;}.cls-8{opacity:0.4;mix-blend-mode:lighten;fill:url(#未命名漸層_182);}</style><linearGradient id="未命名漸層_195" x1="47.62" y1="42.71" x2="266.13" y2="270.87" gradientUnits="userSpaceOnUse"><stop offset="0" stop-color="#ffc873"/><stop offset="0.2" stop-color="#feb46a"/><stop offset="0.5" stop-color="#fd9c5f"/><stop offset="0.77" stop-color="#fc8d58"/><stop offset="1" stop-color="#fc8856"/></linearGradient><radialGradient id="未命名漸層_168" cx="172.56" cy="181.36" r="140.94" gradientUnits="userSpaceOnUse"><stop offset="0.36" stop-color="#fff"/><stop offset="0.97" stop-color="#999"/></radialGradient><linearGradient id="未命名漸層_182" x1="31.89" y1="-6.49" x2="104.54" y2="74.1" gradientTransform="matrix(1.02, 0.89, -0.82, 1.1, 59.59, 0.38)" gradientUnits="userSpaceOnUse"><stop offset="0" stop-color="#fff" stop-opacity="0"/><stop offset="0.04" stop-color="#fff" stop-opacity="0.07"/><stop offset="0.2" stop-color="#fff" stop-opacity="0.31"/><stop offset="0.35" stop-color="#fff" stop-opacity="0.52"/><stop offset="0.5" stop-color="#fff" stop-opacity="0.69"/><stop offset="0.64" stop-color="#fff" stop-opacity="0.83"/><stop offset="0.77" stop-color="#fff" stop-opacity="0.92"/><stop offset="0.9" stop-color="#fff" stop-opacity="0.98"/><stop offset="1" stop-color="#fff"/></linearGradient></defs><title>資產 3</title><g class="cls-1"><g id="圖層_2" data-name="圖層 2"><g id="Star2"><g id="圖層_7" data-name="圖層 7"><circle class="cls-2" cx="158.92" cy="158.92" r="158.92"/></g><g class="cls-3"><path class="cls-4" d="M269.55,44.88A158.9,158.9,0,0,1,27.29,248,158.91,158.91,0,1,0,269.55,44.88Z"/></g><circle class="cls-5" cx="190.98" cy="200.63" r="23.27"/><path class="cls-6" d="M209,190.53a23.23,23.23,0,0,1-30,30,23.25,23.25,0,1,0,20.34-41.6A23.11,23.11,0,0,1,209,190.53Z"/><ellipse class="cls-5" cx="261.71" cy="117.39" rx="23.27" ry="38.68" transform="translate(-21.31 70.8) rotate(-14.81)"/><path class="cls-6" d="M265.49,86.91c12.87,11.44,19.82,34.9,15.52,52.41-2,8.11-6.07,13.48-11.14,15.81,6.89-.95,12.62-6.83,15.12-17,4.3-17.51-2.65-41-15.52-52.41-6.91-6.14-14.1-7.53-20-4.83C254.5,80.22,260.08,82.1,265.49,86.91Z"/><ellipse class="cls-5" cx="38.33" cy="165.88" rx="11.04" ry="20.05"/><path class="cls-6" d="M32.54,180.19c-4.33-7.8-4.35-20.49-.06-28.35,2-3.65,4.57-5.59,7.18-5.87-3.26-.7-6.65,1.21-9.14,5.76-4.3,7.86-4.27,20.56.05,28.36,2.32,4.19,5.41,6.09,8.43,5.77C36.64,185.35,34.36,183.47,32.54,180.19Z"/><ellipse class="cls-5" cx="36.37" cy="220.07" rx="4.63" ry="8.4" transform="translate(-86.6 33.97) rotate(-24.07)"/><path class="cls-6" d="M36.6,226.54a13.71,13.71,0,0,1-4.87-10.84,4.15,4.15,0,0,1,1.75-3.47c-1.37.28-2.34,1.59-2.52,3.76a13.7,13.7,0,0,0,4.87,10.84c1.6,1.21,3.11,1.41,4.21.77A4.4,4.4,0,0,1,36.6,226.54Z"/><ellipse class="cls-5" cx="81.27" cy="221.79" rx="12.48" ry="21.89" transform="translate(-108.79 81.54) rotate(-33.45)"/><path class="cls-6" d="M83.94,238.26c-8.8-4.75-16.22-16.44-16.59-26.12-.18-4.48,1.21-7.73,3.62-9.46-3.61,1.19-5.83,4.87-5.61,10.48.37,9.67,7.79,21.37,16.59,26.12,4.71,2.54,8.85,2.56,11.63.55C91,240.69,87.63,240.25,83.94,238.26Z"/><ellipse class="cls-5" cx="247.8" cy="227.97" rx="13.53" ry="10.23" transform="translate(-58.09 368.71) rotate(-67.32)"/><path class="cls-6" d="M257.35,225.59c-.83,7.22-6.29,13.42-12.19,13.84a7.91,7.91,0,0,1-6.72-2.83,8.08,8.08,0,0,0,7.83,4.44c5.89-.42,11.35-6.62,12.19-13.84a12.31,12.31,0,0,0-2.44-9.48A13.13,13.13,0,0,1,257.35,225.59Z"/><ellipse class="cls-5" cx="176.73" cy="269.44" rx="11.05" ry="8.35" transform="translate(-135.18 188.54) rotate(-42.2)"/><path class="cls-6" d="M184.61,271c-3.12,5.05-9.3,7.73-13.8,6a6.43,6.43,0,0,1-4-4.42,6.59,6.59,0,0,0,4.25,6c4.5,1.73,10.68-.95,13.8-6a10,10,0,0,0,1.48-7.85A10.79,10.79,0,0,1,184.61,271Z"/><ellipse class="cls-5" cx="119.96" cy="267.15" rx="3.97" ry="6.14" transform="translate(-168.02 320.34) rotate(-76.28)"/><path class="cls-6" d="M121,270.8c-3.33-.37-6.15-2.48-6.3-4.73a2.78,2.78,0,0,1,1.36-2.53,3,3,0,0,0-2.12,2.94c.15,2.25,3,4.36,6.31,4.73a6.7,6.7,0,0,0,4.41-.87A7.32,7.32,0,0,1,121,270.8Z"/><circle class="cls-5" cx="132.79" cy="238.62" r="6.77"/><path class="cls-6" d="M138,235.68a6.76,6.76,0,0,1-8.74,8.73,6.77,6.77,0,1,0,5.92-12.11A6.79,6.79,0,0,1,138,235.68Z"/><circle class="cls-5" cx="65.65" cy="252.64" r="3.39"/><path class="cls-6" d="M65.36,255.62a3.38,3.38,0,0,1-1.08-6.08,3.38,3.38,0,1,0,3.27,5.89A3.33,3.33,0,0,1,65.36,255.62Z"/><circle class="cls-5" cx="83.04" cy="272.9" r="8.28"/><path class="cls-6" d="M80.9,279.92a8.27,8.27,0,0,1,.35-15.11,8.27,8.27,0,1,0,5,15.7A8.25,8.25,0,0,1,80.9,279.92Z"/><circle class="cls-5" cx="207.48" cy="145.82" r="6.77"/><path class="cls-6" d="M212.71,142.88a6.77,6.77,0,0,1-3.91,8.74,6.7,6.7,0,0,1-4.83,0,6.76,6.76,0,1,0,5.92-12.1A6.73,6.73,0,0,1,212.71,142.88Z"/><circle class="cls-5" cx="239.19" cy="183.12" r="4.2"/><path class="cls-6" d="M242.43,181.3a4.2,4.2,0,0,1-5.42,5.41,4.2,4.2,0,1,0,3.67-7.51A4.23,4.23,0,0,1,242.43,181.3Z"/><path class="cls-7" d="M71.49,65.5a158.1,158.1,0,0,1,47.9-33.56"/><path class="cls-7" d="M53.11,88.14q3.44-5.11,7.27-10"/><ellipse class="cls-8" cx="100.25" cy="76.46" rx="79.06" ry="52.95" transform="translate(-25.69 82.32) rotate(-40)"/></g></g></g></svg>