<svg xmlns="http://www.w3.org/2000/svg" xmlns:xlink="http://www.w3.org/1999/xlink" viewBox="0 0 555.59 306.19"><defs><style>.cls-1,.cls-9{fill:none;}.cls-2{isolation:isolate;}.cls-11,.cls-3,.cls-8{opacity:0.5;mix-blend-mode:overlay;}.cls-3{fill:url(#未命名漸層_148);}.cls-4{fill:#33c0f5;}.cls-5{fill:#1694b8;}.cls-6{fill:#e5385d;}.cls-7{fill:#f05064;}.cls-8{fill:url(#未命名漸層_134);}.cls-9{stroke:#fff;stroke-linecap:round;stroke-miterlimit:10;stroke-width:10.65px;}.cls-10{clip-path:url(#clip-path);}.cls-11{fill:url(#未命名漸層_144);}</style><radialGradient id="未命名漸層_148" cx="276.13" cy="155.39" r="150.8" gradientUnits="userSpaceOnUse"><stop offset="0" stop-color="#fff" stop-opacity="0"/><stop offset="0.09" stop-color="#fff" stop-opacity="0.06"/><stop offset="0.27" stop-color="#fff" stop-opacity="0.21"/><stop offset="0.51" stop-color="#fff" stop-opacity="0.45"/><stop offset="0.81" stop-color="#fff" stop-opacity="0.78"/><stop offset="1" stop-color="#fff"/></radialGradient><radialGradient id="未命名漸層_134" cx="261.77" cy="163.81" r="135.68" gradientUnits="userSpaceOnUse"><stop offset="0.45" stop-color="#fff"/><stop offset="0.58" stop-color="#e2e2e2"/><stop offset="0.84" stop-color="#adadad"/><stop offset="0.97" stop-color="#999"/></radialGradient><clipPath id="clip-path"><circle class="cls-1" cx="276.13" cy="155.39" r="150.8"/></clipPath><radialGradient id="未命名漸層_144" cx="334.54" cy="97.25" r="97.26" gradientUnits="userSpaceOnUse"><stop offset="0" stop-color="#fff"/><stop offset="0.1" stop-color="#fff" stop-opacity="0.98"/><stop offset="0.22" stop-color="#fff" stop-opacity="0.91"/><stop offset="0.36" stop-color="#fff" stop-opacity="0.81"/><stop offset="0.51" stop-color="#fff" stop-opacity="0.67"/><stop offset="0.67" stop-color="#fff" stop-opacity="0.48"/><stop offset="0.84" stop-color="#fff" stop-opacity="0.25"/><stop offset="1" stop-color="#fff" stop-opacity="0"/></radialGradient></defs><title>planet4_1</title><g class="cls-2"><g id="圖層_2" data-name="圖層 2"><g id="plant"><rect class="cls-1" y="4.06" width="555.59" height="301.67"/><circle class="cls-3" cx="276.13" cy="155.39" r="150.8"/><circle class="cls-4" cx="276.13" cy="155.39" r="138.59"/><path class="cls-5" d="M276.13,294A138.46,138.46,0,0,0,412.62,131.5a56.87,56.87,0,0,0-24.63,13c-18,16.57-9.29,35.74-23.76,46-17.8,12.68-36.67-12.25-71.77-6.92-37.06,5.62-44.16,37.69-72.76,34.15-20.95-2.6-39.89-22.63-37.62-35.14,2-10.83,18.73-10.13,25.25-24.26,8.53-18.49-9.41-43.06-10.89-45-9.33-12.46-24.05-20.66-41.89-24.48A138.6,138.6,0,0,0,276.13,294Z"/><path class="cls-6" d="M293.36,88.71c-23-11.76-28.8-40-48.64-39-10,.49-12.77,7.8-26.89,10.41-14.5,2.68-27.49-2.09-35.93-6.31-1.45,1.24-2.88,2.5-4.27,3.81,8.42,4.25,21.56,9.17,36.24,6.46,14.12-2.61,16.93-9.92,26.89-10.41,19.84-1,25.64,27.22,48.64,39,26,13.3,68.09,2.44,85.62-17.36C355.73,92.53,317.61,101.1,293.36,88.71Z"/><path class="cls-7" d="M319.56,23.81a138.55,138.55,0,0,0-138,30.32c8.43,4.26,21.57,9.18,36.24,6.47,14.12-2.61,16.94-9.92,26.89-10.42,19.85-1,25.64,27.23,48.65,39,28.15,14.39,75,.54,89.39-22.32A137.94,137.94,0,0,0,319.56,23.81Z"/><path class="cls-6" d="M392.08,188.6a9.58,9.58,0,0,1-.59,1.15,11.51,11.51,0,0,0,4.55-5.11c7.22-17.16-49.84-44-46.53-69.79a19.81,19.81,0,0,1,4.8-10.24c-5.6,4.79-8.17,9.58-8.76,14.2C342.24,144.56,399.3,171.44,392.08,188.6Z"/><path class="cls-6" d="M368.69,198.45c.29,2.92,6.4,6.21,9.53,11.93a6.48,6.48,0,0,1-.05,6.62c3.93-2.53,6.29-6.41,4-10.58-2.66-4.85-8.77-5.43-10.75-7.27C368.61,199.9,368.56,197.17,368.69,198.45Z"/><path class="cls-6" d="M304.82,242.84a5.47,5.47,0,0,0,3.61-1.77c5.61-7.18-32.92-7.67-23.76-67.32a22.76,22.76,0,0,1,5.08-11.11c-4.69,3.92-8.09,8.89-9,15.07C272.55,230.87,302.23,237,304.82,242.84Z"/><path class="cls-6" d="M303.23,256.17c.1-4.24-4.45-7.16-8.23-9.41-4.32-.46-6.61-4.94-7-3.76-.91,2.77,11.44,9.68,11.26,17.13a10,10,0,0,1-1.68,5.08C301,263,303.15,259.37,303.23,256.17Z"/><path class="cls-7" d="M157.43,227a138.6,138.6,0,1,0,237-143.8c-34.16,10.26-45.67,21.64-47,32.13-3.3,25.75,53.75,52.62,46.53,69.79-4.38,10.41-25.66,9.15-25.24,13.36.29,2.92,8.25,2.7,11.38,8.42,5.65,10.32-17.24,18.94-21.78,9.4-5-10.39,8.17-21.53,4-36.62-2.95-10.59-15.89-27.51-26.23-31.19-11.14-4-49.86,2.31-53.46,25.74-9.16,59.65,29.37,60.13,23.76,67.32-3.62,4.63-17.59-.74-18.31,1.48-.91,2.77,13.29,6.17,13.11,13.61-.16,6.65-9.06,14.95-20.44,9.66-19.41-9-1.81-49.54-26.83-70.79-17.81-15.13-45.48-7.76-50.48-6.43C184,194.19,164.66,208.69,157.43,227Z"/><path class="cls-8" d="M288,282.1A138.55,138.55,0,0,1,184.27,51.65a138.56,138.56,0,1,0,195.59,195.6A138,138,0,0,1,288,282.1Z"/><path class="cls-9" d="M367.08,78.15a139.11,139.11,0,0,1,11.06,13.29"/><path class="cls-9" d="M305,40.12a138.28,138.28,0,0,1,48.69,25.6"/><g class="cls-10"><path class="cls-11" d="M426.93,88.84c1.9,36.1,25.47,105.67-51.07,105.67A138.59,138.59,0,0,1,237.27,55.91c0-76.54,73.67-52.46,96.26-51.85C360.54,4.78,426.33,77.39,426.93,88.84Z"/></g></g></g></g></svg>