<svg xmlns="http://www.w3.org/2000/svg" xmlns:xlink="http://www.w3.org/1999/xlink" viewBox="0 0 346.21 343.39"><defs><style>.cls-1,.cls-9{fill:none;}.cls-2{isolation:isolate;}.cls-11,.cls-3,.cls-8{opacity:0.5;mix-blend-mode:overlay;}.cls-3{fill:url(#未命名漸層_148);}.cls-4{fill:#33c0f5;}.cls-5{fill:#1694b8;}.cls-6{fill:#e5385d;}.cls-7{fill:#f05064;}.cls-8{fill:url(#未命名漸層_134);}.cls-9{stroke:#fff;stroke-linecap:round;stroke-miterlimit:10;stroke-width:10.65px;}.cls-10{clip-path:url(#clip-path);}.cls-11{fill:url(#未命名漸層_144);}</style><radialGradient id="未命名漸層_148" cx="162.16" cy="181.23" r="162.16" gradientUnits="userSpaceOnUse"><stop offset="0" stop-color="#fff" stop-opacity="0"/><stop offset="0.09" stop-color="#fff" stop-opacity="0.06"/><stop offset="0.27" stop-color="#fff" stop-opacity="0.21"/><stop offset="0.51" stop-color="#fff" stop-opacity="0.45"/><stop offset="0.81" stop-color="#fff" stop-opacity="0.78"/><stop offset="1" stop-color="#fff"/></radialGradient><radialGradient id="未命名漸層_134" cx="146.73" cy="190.28" r="145.9" gradientUnits="userSpaceOnUse"><stop offset="0.45" stop-color="#fff"/><stop offset="0.58" stop-color="#e2e2e2"/><stop offset="0.84" stop-color="#adadad"/><stop offset="0.97" stop-color="#999"/></radialGradient><clipPath id="clip-path"><circle class="cls-1" cx="162.16" cy="181.23" r="162.16"/></clipPath><radialGradient id="未命名漸層_144" cx="233.29" cy="111.65" r="112.28" gradientUnits="userSpaceOnUse"><stop offset="0" stop-color="#fff"/><stop offset="0.1" stop-color="#fff" stop-opacity="0.98"/><stop offset="0.22" stop-color="#fff" stop-opacity="0.91"/><stop offset="0.36" stop-color="#fff" stop-opacity="0.81"/><stop offset="0.51" stop-color="#fff" stop-opacity="0.67"/><stop offset="0.67" stop-color="#fff" stop-opacity="0.48"/><stop offset="0.84" stop-color="#fff" stop-opacity="0.25"/><stop offset="1" stop-color="#fff" stop-opacity="0"/></radialGradient></defs><title>資產 4</title><g class="cls-2"><g id="圖層_2" data-name="圖層 2"><g id="Star1"><circle class="cls-3" cx="162.16" cy="181.23" r="162.16"/><circle class="cls-4" cx="162.16" cy="181.23" r="149.03"/><path class="cls-5" d="M162.16,330.27A148.94,148.94,0,0,0,308.94,155.54a61.15,61.15,0,0,0-26.49,14c-19.33,17.82-10,38.43-25.55,49.5-19.13,13.63-39.43-13.18-77.17-7.45-39.85,6.05-47.49,40.54-78.25,36.73C79,245.51,58.59,224,61,210.51c2.11-11.65,20.14-10.89,27.15-26.08,9.17-19.89-10.12-46.31-11.71-48.44-10-13.4-25.85-22.21-45-26.33A149.07,149.07,0,0,0,162.16,330.27Z"/><path class="cls-6" d="M180.7,109.53c-24.74-12.64-31-43-52.31-41.92-10.71.53-13.73,8.39-28.92,11.2C83.88,81.69,69.91,76.56,60.84,72c-1.56,1.34-3.1,2.69-4.6,4.09,9.06,4.58,23.19,9.87,39,7,15.18-2.81,18.2-10.67,28.91-11.2,21.34-1.06,27.57,29.28,52.31,41.91,28,14.31,73.21,2.63,92.07-18.66C247.76,113.64,206.77,122.85,180.7,109.53Z"/><path class="cls-7" d="M208.86,39.74A149,149,0,0,0,60.44,72.35c9.06,4.57,23.19,9.86,39,7,15.19-2.8,18.21-10.67,28.92-11.2,21.34-1,27.57,29.28,52.31,41.92,30.27,15.46,80.67.57,96.12-24A148.21,148.21,0,0,0,208.86,39.74Z"/><path class="cls-6" d="M286.85,217a11,11,0,0,1-.63,1.23,12.45,12.45,0,0,0,4.89-5.49c7.76-18.46-53.59-47.36-50-75.05a21.31,21.31,0,0,1,5.17-11c-6,5.16-8.79,10.31-9.43,15.28C233.26,169.59,294.61,198.49,286.85,217Z"/><path class="cls-6" d="M261.69,227.54c.31,3.14,6.88,6.67,10.25,12.83a6.93,6.93,0,0,1-.05,7.11c4.22-2.72,6.76-6.9,4.31-11.37-2.85-5.22-9.43-5.84-11.55-7.82C261.61,229.1,261.56,226.15,261.69,227.54Z"/><path class="cls-6" d="M193,275.27a5.92,5.92,0,0,0,3.88-1.9c6-7.73-35.4-8.25-25.55-72.39A24.42,24.42,0,0,1,176.81,189c-5,4.21-8.7,9.56-9.72,16.21C158.31,262.39,190.23,269,193,275.27Z"/><path class="cls-6" d="M191.31,289.6c.11-4.56-4.79-7.7-8.85-10.11-4.65-.51-7.11-5.32-7.52-4.05-1,3,12.3,10.41,12.11,18.42a10.78,10.78,0,0,1-1.81,5.47C188.94,296.89,191.22,293.05,191.31,289.6Z"/><path class="cls-7" d="M34.53,258.21A149,149,0,1,0,289.37,103.57c-36.74,11-49.12,23.27-50.56,34.55-3.56,27.69,57.8,56.59,50,75-4.71,11.2-27.6,9.83-27.15,14.37.31,3.14,8.88,2.9,12.25,9.05C280,247.69,255.4,257,250.52,246.7c-5.33-11.18,8.78-23.15,4.25-39.39-3.17-11.38-17.09-29.57-28.21-33.53-12-4.26-53.61,2.48-57.48,27.68-9.85,64.14,31.58,64.66,25.55,72.39-3.89,5-18.91-.8-19.69,1.59-1,3,14.29,6.63,14.1,14.64-.17,7.14-9.74,16.07-22,10.38-20.86-9.7-1.94-53.27-28.84-76.11-19.16-16.27-48.91-8.35-54.29-6.92C63.14,223,42.3,238.55,34.53,258.21Z"/><path class="cls-8" d="M174.94,317.49A149,149,0,0,1,63.38,69.68,149,149,0,1,0,273.71,280,148.4,148.4,0,0,1,174.94,317.49Z"/><path class="cls-9" d="M260,98.18a150.59,150.59,0,0,1,11.89,14.29"/><path class="cls-9" d="M193.24,57.28A148.62,148.62,0,0,1,245.6,84.81"/><g class="cls-10"><path class="cls-11" d="M334.47,120.09c23.14,79,17.25,103.2-65.06,103.2a149,149,0,0,1-149-149c0-82.31,19.53-84,99-62.82C297.25,32.2,313.76,49.39,334.47,120.09Z"/></g></g></g></g></svg>