<svg xmlns="http://www.w3.org/2000/svg" viewBox="0 0 124.28 179.65"><defs><style>.cls-1{fill:#963b74;}.cls-2{fill:#d45e8f;}.cls-3{fill:none;stroke:#fff;stroke-miterlimit:10;}.cls-4{fill:#0f2354;}</style></defs><title>rocky</title><g id="圖層_2" data-name="圖層 2"><g id="火箭"><path class="cls-1" d="M23.55,133s10.85-11.11,39.2-11.77,39.74,11.45,39.74,11.45C115.48,106.82,121.18,71.49,97,30l-69.44.43C5.71,73.09,11.15,107.84,23.55,133Z"/><path class="cls-2" d="M109.5,60.79c10.86-4.59,15.85-19.54,14.59-38.62a1,1,0,0,0-1.89-.26c-2.27,6.5-7.74,17.14-19.37,18.07"/><path class="cls-2" d="M16,62C4.94,57.77-.59,42.85.05,23.54a1.16,1.16,0,0,1,2.2-.48c3.49,7.44,11.34,21.34,20.05,18"/><line class="cls-3" x1="96.98" y1="29.98" x2="27.54" y2="30.41"/><rect class="cls-4" x="27.49" y="13.29" width="69.44" height="16.91" transform="matrix(-1, 0.01, -0.01, -1, 124.55, 43.1)"/><rect class="cls-1" x="35.39" y="0.17" width="53.38" height="13" transform="translate(124.21 12.94) rotate(179.64)"/><path class="cls-4" d="M63.06,65.57a23.76,23.76,0,1,1-23.61,23.9A23.78,23.78,0,0,1,63.06,65.57Z"/><circle class="cls-1" cx="63.21" cy="89.32" r="11.57"/><path class="cls-4" d="M23.55,133a129.69,129.69,0,0,0,39.64,46.62s24.43-17.28,39.3-46.94c0,0-7.9-11.29-39.64-11.09S23.55,133,23.55,133Z"/></g></g></svg>